G04*
G04 #@! TF.GenerationSoftware,Altium Limited,Altium Designer,24.7.2 (38)*
G04*
G04 Layer_Color=2752767*
%FSLAX44Y44*%
%MOMM*%
G71*
G04*
G04 #@! TF.SameCoordinates,27BF797F-714E-4A77-BE02-AF934A81444A*
G04*
G04*
G04 #@! TF.FilePolarity,Positive*
G04*
G01*
G75*
%ADD13C,0.1270*%
%ADD121C,0.1693*%
D13*
X283483Y349446D02*
X286023Y351986D01*
X288563D01*
X286023Y354526D01*
X288563Y357066D01*
X286023D01*
X283483Y359606D01*
X280943Y357066D01*
X278403D01*
X280943Y354526D01*
X278403Y351986D01*
X280943D01*
X283483Y349446D01*
X274983D02*
X277523Y351986D01*
X280063D01*
X277523Y354526D01*
X280063Y357066D01*
X277523D01*
X274983Y359606D01*
X272443Y357066D01*
X269903D01*
X272443Y354526D01*
X269903Y351986D01*
X272443D01*
X274983Y349446D01*
X266482D02*
X269022Y351986D01*
X271562D01*
X269022Y354526D01*
X271562Y357066D01*
X269022D01*
X266482Y359606D01*
X263942Y357066D01*
X261402D01*
X263942Y354526D01*
X261402Y351986D01*
X263942D01*
X266482Y349446D01*
X257983D02*
X260523Y351986D01*
X263063D01*
X260523Y354526D01*
X263063Y357066D01*
X260523D01*
X257983Y359606D01*
X255443Y357066D01*
X252903D01*
X255443Y354526D01*
X252903Y351986D01*
X255443D01*
X257983Y349446D01*
Y362946D02*
X260523Y365486D01*
X263063D01*
X260523Y368026D01*
X263063Y370566D01*
X260523D01*
X257983Y373106D01*
X255443Y370566D01*
X252903D01*
X255443Y368026D01*
X252903Y365486D01*
X255443D01*
X257983Y362946D01*
X266482D02*
X269022Y365486D01*
X271562D01*
X269022Y368026D01*
X271562Y370566D01*
X269022D01*
X266482Y373106D01*
X263942Y370566D01*
X261402D01*
X263942Y368026D01*
X261402Y365486D01*
X263942D01*
X266482Y362946D01*
X274983D02*
X277523Y365486D01*
X280063D01*
X277523Y368026D01*
X280063Y370566D01*
X277523D01*
X274983Y373106D01*
X272443Y370566D01*
X269903D01*
X272443Y368026D01*
X269903Y365486D01*
X272443D01*
X274983Y362946D01*
X283483D02*
X286023Y365486D01*
X288563D01*
X286023Y368026D01*
X288563Y370566D01*
X286023D01*
X283483Y373106D01*
X280943Y370566D01*
X278403D01*
X280943Y368026D01*
X278403Y365486D01*
X280943D01*
X283483Y362946D01*
X222453Y354446D02*
X224993Y359526D01*
X222453Y364606D01*
X227533Y362066D01*
X232613Y364606D01*
X230073Y359526D01*
X232613Y354446D01*
X227533Y356986D01*
X222453Y354446D01*
Y395946D02*
X224993Y401026D01*
X222453Y406106D01*
X227533Y403566D01*
X232613Y406106D01*
X230073Y401026D01*
X232613Y395946D01*
X227533Y398486D01*
X222453Y395946D01*
X240982Y362946D02*
X243522Y365486D01*
X246062D01*
X243522Y368026D01*
X246062Y370566D01*
X243522D01*
X240982Y373106D01*
X238442Y370566D01*
X235902D01*
X238442Y368026D01*
X235902Y365486D01*
X238442D01*
X240982Y362946D01*
Y349446D02*
X243522Y351986D01*
X246062D01*
X243522Y354526D01*
X246062Y357066D01*
X243522D01*
X240982Y359606D01*
X238442Y357066D01*
X235902D01*
X238442Y354526D01*
X235902Y351986D01*
X238442D01*
X240982Y349446D01*
X300482D02*
X303022Y351986D01*
X305562D01*
X303022Y354526D01*
X305562Y357066D01*
X303022D01*
X300482Y359606D01*
X297942Y357066D01*
X295402D01*
X297942Y354526D01*
X295402Y351986D01*
X297942D01*
X300482Y349446D01*
X308853Y354446D02*
X311393Y359526D01*
X308853Y364606D01*
X313933Y362066D01*
X319013Y364606D01*
X316473Y359526D01*
X319013Y354446D01*
X313933Y356986D01*
X308853Y354446D01*
X300482Y362946D02*
X303022Y365486D01*
X305562D01*
X303022Y368026D01*
X305562Y370566D01*
X303022D01*
X300482Y373106D01*
X297942Y370566D01*
X295402D01*
X297942Y368026D01*
X295402Y365486D01*
X297942D01*
X300482Y362946D01*
X308853Y395946D02*
X311393Y401026D01*
X308853Y406106D01*
X313933Y403566D01*
X319013Y406106D01*
X316473Y401026D01*
X319013Y395946D01*
X313933Y398486D01*
X308853Y395946D01*
X249483Y362946D02*
X252023Y365486D01*
X254563D01*
X252023Y368026D01*
X254563Y370566D01*
X252023D01*
X249483Y373106D01*
X246943Y370566D01*
X244403D01*
X246943Y368026D01*
X244403Y365486D01*
X246943D01*
X249483Y362946D01*
Y349446D02*
X252023Y351986D01*
X254563D01*
X252023Y354526D01*
X254563Y357066D01*
X252023D01*
X249483Y359606D01*
X246943Y357066D01*
X244403D01*
X246943Y354526D01*
X244403Y351986D01*
X246943D01*
X249483Y349446D01*
X291982D02*
X294522Y351986D01*
X297062D01*
X294522Y354526D01*
X297062Y357066D01*
X294522D01*
X291982Y359606D01*
X289443Y357066D01*
X286903D01*
X289443Y354526D01*
X286903Y351986D01*
X289443D01*
X291982Y349446D01*
Y362946D02*
X294522Y365486D01*
X297062D01*
X294522Y368026D01*
X297062Y370566D01*
X294522D01*
X291982Y373106D01*
X289443Y370566D01*
X286903D01*
X289443Y368026D01*
X286903Y365486D01*
X289443D01*
X291982Y362946D01*
X260855Y14069D02*
X255775Y24229D01*
X265935D01*
X260855Y14069D01*
X26328Y284693D02*
X21247Y294853D01*
X31407D01*
X26328Y284693D01*
Y259693D02*
X21247Y269853D01*
X31407D01*
X26328Y259693D01*
X19812Y72898D02*
X14732Y83058D01*
X24892D01*
X19812Y72898D01*
X26328Y234693D02*
X21247Y244853D01*
X31407D01*
X26328Y234693D01*
X159080Y392631D02*
X154000Y402790D01*
X164160D01*
X159080Y392631D01*
X139080D02*
X134000Y402790D01*
X144160D01*
X139080Y392631D01*
X408432Y211328D02*
Y221488D01*
X418592D01*
Y211328D01*
X408432D01*
X349384D02*
Y221488D01*
X359544D01*
Y211328D01*
X349384D01*
X427482Y231140D02*
Y241300D01*
X437642D01*
Y231140D01*
X427482D01*
X361402D02*
Y241300D01*
X371562D01*
Y231140D01*
X361402D01*
X435864Y231394D02*
Y241554D01*
X446024D01*
Y231394D01*
X435864D01*
X351282Y231902D02*
Y242062D01*
X361442D01*
Y231902D01*
X351282D01*
X244190Y36418D02*
Y46578D01*
X254350D01*
Y36418D01*
X244190D01*
X90690Y350520D02*
Y360680D01*
X100850D01*
Y350520D01*
X90690D01*
X80794Y136396D02*
Y133856D01*
X85874D01*
Y136396D01*
X88414D01*
Y141476D01*
X85874D01*
Y144016D01*
X80794D01*
Y141476D01*
X78254D01*
Y136396D01*
X80794D01*
X80579Y147254D02*
Y144714D01*
X85659D01*
Y147254D01*
X88199D01*
Y152334D01*
X85659D01*
Y154874D01*
X80579D01*
Y152334D01*
X78039D01*
Y147254D01*
X80579D01*
X155367Y157321D02*
Y167481D01*
X165527D01*
Y157321D01*
X155367D01*
X156711Y213675D02*
Y223835D01*
X166871D01*
Y213675D01*
X156711D01*
X52402Y330789D02*
Y340949D01*
X62562D01*
Y330789D01*
X52402D01*
X84903Y197289D02*
Y207449D01*
X95063D01*
Y197289D01*
X84903D01*
X191653Y225539D02*
Y235699D01*
X201812D01*
Y225539D01*
X191653D01*
X190652Y279039D02*
Y289199D01*
X200812D01*
Y279039D01*
X190652D01*
X50402Y287789D02*
Y297949D01*
X60562D01*
Y287789D01*
X50402D01*
X377337Y96001D02*
Y106161D01*
X387497D01*
Y96001D01*
X377337D01*
X309880Y124676D02*
Y134836D01*
X320040D01*
Y124676D01*
X309880D01*
X227705Y92694D02*
Y102854D01*
X237865D01*
Y92694D01*
X227705D01*
X151705Y117195D02*
Y127355D01*
X161865D01*
Y117195D01*
X151705D01*
X214705Y68694D02*
Y78854D01*
X224865D01*
Y68694D01*
X214705D01*
X376965Y5112D02*
Y15272D01*
X387125D01*
Y5112D01*
X376965D01*
X301244Y51059D02*
Y61220D01*
X311404D01*
Y51059D01*
X301244D01*
X420435Y114904D02*
Y125064D01*
X430595D01*
Y114904D01*
X420435D01*
X167765Y192784D02*
Y202944D01*
X177925D01*
Y192784D01*
X167765D01*
X191765Y128284D02*
Y138444D01*
X201925D01*
Y128284D01*
X191765D01*
X227705Y1130D02*
Y11290D01*
X237865D01*
Y1130D01*
X227705D01*
X151705Y25631D02*
Y35791D01*
X161865D01*
Y25631D01*
X151705D01*
X214705Y63131D02*
Y73291D01*
X224865D01*
Y63131D01*
X214705D01*
X455482Y29281D02*
Y39441D01*
X465642D01*
Y29281D01*
X455482D01*
X399482D02*
Y39441D01*
X409642D01*
Y29281D01*
X399482D01*
X510012Y308284D02*
Y318444D01*
X520172D01*
Y308284D01*
X510012D01*
Y172284D02*
Y182444D01*
X520172D01*
Y172284D01*
X510012D01*
X472511Y295284D02*
Y305444D01*
X482672D01*
Y295284D01*
X472511D01*
X494012Y285284D02*
Y295444D01*
X504172D01*
Y285284D01*
X494012D01*
X107315Y127180D02*
Y137340D01*
X117475D01*
Y127180D01*
X107315D01*
X135377Y89669D02*
Y99829D01*
X145537D01*
Y89669D01*
X135377D01*
X78252Y234950D02*
Y245110D01*
X88412D01*
Y234950D01*
X78252D01*
X115570Y237920D02*
Y248080D01*
X125730D01*
Y237920D01*
X115570D01*
X114206Y212507D02*
Y222667D01*
X124366D01*
Y212507D01*
X114206D01*
X424104Y321325D02*
Y331485D01*
X434264D01*
Y321325D01*
X424104D01*
X361360Y325364D02*
Y335524D01*
X371520D01*
Y325364D01*
X361360D01*
X446139Y314706D02*
Y324866D01*
X456299D01*
Y314706D01*
X446139D01*
X114121Y289745D02*
Y299905D01*
X124281D01*
Y289745D01*
X114121D01*
X202127Y246253D02*
Y256413D01*
X212287D01*
Y246253D01*
X202127D01*
X391095Y254877D02*
Y265037D01*
X401255D01*
Y254877D01*
X391095D01*
X163508Y243333D02*
Y253493D01*
X173668D01*
Y243333D01*
X163508D01*
X393801Y216533D02*
Y226693D01*
X403961D01*
Y216533D01*
X393801D01*
X337923Y328680D02*
Y338840D01*
X348083D01*
Y328680D01*
X337923D01*
X238148Y324290D02*
Y334450D01*
X248308D01*
Y324290D01*
X238148D01*
X297016Y126174D02*
Y136334D01*
X307176D01*
Y126174D01*
X297016D01*
X294196Y323219D02*
Y333379D01*
X304356D01*
Y323219D01*
X294196D01*
X536763Y203640D02*
Y213800D01*
X546923D01*
Y203640D01*
X536763D01*
X533645Y207259D02*
Y217419D01*
X543805D01*
Y207259D01*
X533645D01*
X437748Y34473D02*
Y44633D01*
X447908D01*
Y34473D01*
X437748D01*
X270173Y85068D02*
Y95227D01*
X280333D01*
Y85068D01*
X270173D01*
X181221Y23436D02*
Y33596D01*
X191381D01*
Y23436D01*
X181221D01*
X183321Y66782D02*
Y76942D01*
X193481D01*
Y66782D01*
X183321D01*
X442483Y308284D02*
Y318444D01*
X452643D01*
Y308284D01*
X442483D01*
X417982Y172284D02*
Y182444D01*
X428142D01*
Y172284D01*
X417982D01*
X466482Y295284D02*
Y305444D01*
X476642D01*
Y295284D01*
X466482D01*
X444482Y285284D02*
Y295444D01*
X454642D01*
Y285284D01*
X444482D01*
X26384Y158846D02*
Y169006D01*
X36544D01*
Y158846D01*
X26384D01*
X1883Y102846D02*
Y113006D01*
X12043D01*
Y102846D01*
X1883D01*
X63883Y135846D02*
Y146006D01*
X74043D01*
Y135846D01*
X63883D01*
Y115846D02*
Y126006D01*
X74043D01*
Y115846D01*
X63883D01*
X82562Y365793D02*
Y375953D01*
X92722D01*
Y365793D01*
X82562D01*
X53401Y196120D02*
Y206280D01*
X63561D01*
Y196120D01*
X53401D01*
X141227Y32857D02*
Y43017D01*
X151387D01*
Y32857D01*
X141227D01*
X72354Y317388D02*
Y327548D01*
X82514D01*
Y317388D01*
X72354D01*
X91869Y317339D02*
Y327499D01*
X102029D01*
Y317339D01*
X91869D01*
X403461Y266264D02*
Y276424D01*
X413621D01*
Y266264D01*
X403461D01*
X324648Y365048D02*
Y375208D01*
X334808D01*
Y365048D01*
X324648D01*
X237898Y374498D02*
Y384658D01*
X248058D01*
Y374498D01*
X237898D01*
X363667Y98996D02*
Y109156D01*
X373827D01*
Y98996D01*
X363667D01*
X290889Y37690D02*
Y47850D01*
X301049D01*
Y37690D01*
X290889D01*
X349615Y22268D02*
Y32428D01*
X359775D01*
Y22268D01*
X349615D01*
X397776Y108078D02*
Y118238D01*
X407936D01*
Y108078D01*
X397776D01*
X125941Y100699D02*
Y110859D01*
X136101D01*
Y100699D01*
X125941D01*
X106814Y281223D02*
Y291383D01*
X116974D01*
Y281223D01*
X106814D01*
X125300Y252222D02*
Y262382D01*
X135460D01*
Y252222D01*
X125300D01*
X329072Y260686D02*
Y270846D01*
X339232D01*
Y260686D01*
X329072D01*
X347456Y195686D02*
Y205846D01*
X357616D01*
Y195686D01*
X347456D01*
X249851Y274906D02*
Y285066D01*
X260012D01*
Y274906D01*
X249851D01*
X299851Y163082D02*
Y173242D01*
X310011D01*
Y163082D01*
X299851D01*
X400935Y384620D02*
Y394780D01*
X411095D01*
Y384620D01*
X400935D01*
X344935Y409121D02*
Y419281D01*
X355095D01*
Y409121D01*
X344935D01*
X236728Y203200D02*
Y213360D01*
X246888D01*
Y203200D01*
X236728D01*
X245872Y123952D02*
Y134112D01*
X256032D01*
Y123952D01*
X245872D01*
X235966Y189230D02*
Y199390D01*
X246126D01*
Y189230D01*
X235966D01*
X265176Y270002D02*
Y280162D01*
X275336D01*
Y270002D01*
X265176D01*
X216408Y180340D02*
Y190500D01*
X226568D01*
Y180340D01*
X216408D01*
X326898Y221742D02*
Y231902D01*
X337058D01*
Y221742D01*
X326898D01*
X205994Y190833D02*
Y200993D01*
X216154D01*
Y190833D01*
X205994D01*
X294132Y293370D02*
Y303530D01*
X304292D01*
Y293370D01*
X294132D01*
X313321Y189115D02*
Y199275D01*
X323481D01*
Y189115D01*
X313321D01*
X496316Y196596D02*
Y206756D01*
X506476D01*
Y196596D01*
X496316D01*
X469392Y265284D02*
Y275444D01*
X479552D01*
Y265284D01*
X469392D01*
X361642Y205686D02*
Y215846D01*
X371801D01*
Y205686D01*
X361642D01*
X495300Y191008D02*
Y201168D01*
X505460D01*
Y191008D01*
X495300D01*
X319532Y181864D02*
Y192024D01*
X329692D01*
Y181864D01*
X319532D01*
X493776Y211582D02*
Y221742D01*
X503936D01*
Y211582D01*
X493776D01*
X320294Y193548D02*
Y203708D01*
X330454D01*
Y193548D01*
X320294D01*
X441052Y265284D02*
Y275444D01*
X451212D01*
Y265284D01*
X441052D01*
X235712Y230686D02*
Y240846D01*
X245872D01*
Y230686D01*
X235712D01*
X438150Y258826D02*
Y268986D01*
X448310D01*
Y258826D01*
X438150D01*
X268986Y225686D02*
Y235846D01*
X279146D01*
Y225686D01*
X268986D01*
X444500Y230632D02*
Y240792D01*
X454660D01*
Y230632D01*
X444500D01*
X355346Y274828D02*
Y284988D01*
X365506D01*
Y274828D01*
X355346D01*
X402082Y320548D02*
Y330708D01*
X412242D01*
Y320548D01*
X402082D01*
X469392Y225284D02*
Y235444D01*
X479552D01*
Y225284D01*
X469392D01*
X268732Y119380D02*
Y129540D01*
X278892D01*
Y119380D01*
X268732D01*
X294132Y81788D02*
Y91948D01*
X304292D01*
Y81788D01*
X294132D01*
X281940Y293370D02*
Y303530D01*
X292100D01*
Y293370D01*
X281940D01*
X130393Y309789D02*
Y319949D01*
X140553D01*
Y309789D01*
X130393D01*
X122682Y227076D02*
Y237236D01*
X132842D01*
Y227076D01*
X122682D01*
X211074Y260350D02*
Y270510D01*
X221234D01*
Y260350D01*
X211074D01*
X50546Y243789D02*
Y253949D01*
X60706D01*
Y243789D01*
X50546D01*
X206756Y250686D02*
Y260846D01*
X216916D01*
Y250686D01*
X206756D01*
X204978Y335788D02*
Y345948D01*
X215138D01*
Y335788D01*
X204978D01*
X269240Y334772D02*
Y344932D01*
X279400D01*
Y334772D01*
X269240D01*
X382270Y177038D02*
Y187198D01*
X392430D01*
Y177038D01*
X382270D01*
X498856Y161544D02*
Y171704D01*
X509016D01*
Y161544D01*
X498856D01*
X487680Y164846D02*
Y175006D01*
X497840D01*
Y164846D01*
X487680D01*
X324358Y240030D02*
Y250190D01*
X334518D01*
Y240030D01*
X324358D01*
X469900Y278892D02*
Y289052D01*
X480060D01*
Y278892D01*
X469900D01*
X279851Y274574D02*
Y284734D01*
X290012D01*
Y274574D01*
X279851D01*
X294851Y188754D02*
Y198914D01*
X305011D01*
Y188754D01*
X294851D01*
X254508Y157734D02*
Y167894D01*
X264668D01*
Y157734D01*
X254508D01*
X289851Y298196D02*
Y308356D01*
X300012D01*
Y298196D01*
X289851D01*
X169485Y327981D02*
Y338141D01*
X179645D01*
Y327981D01*
X169485D01*
X283464Y161290D02*
Y171450D01*
X293624D01*
Y161290D01*
X283464D01*
X269851Y193802D02*
Y203962D01*
X280012D01*
Y193802D01*
X269851D01*
X123952Y260096D02*
Y270256D01*
X134112D01*
Y260096D01*
X123952D01*
X99314Y235458D02*
Y245618D01*
X109474D01*
Y235458D01*
X99314D01*
X99060D02*
Y245618D01*
X109220D01*
Y235458D01*
X99060D01*
X275696Y323219D02*
Y333379D01*
X285856D01*
Y323219D01*
X275696D01*
X274851Y293289D02*
Y303449D01*
X285011D01*
Y293289D01*
X274851D01*
X50402Y180306D02*
Y190466D01*
X60562D01*
Y180306D01*
X50402D01*
X63652Y265789D02*
Y275949D01*
X73812D01*
Y265789D01*
X63652D01*
X99314Y238351D02*
Y248511D01*
X109474D01*
Y238351D01*
X99314D01*
X202127Y260796D02*
Y270956D01*
X212286D01*
Y260796D01*
X202127D01*
X163508Y261833D02*
Y271993D01*
X173668D01*
Y261833D01*
X163508D01*
X238148Y305790D02*
Y315950D01*
X248308D01*
Y305790D01*
X238148D01*
X414543Y348425D02*
Y358585D01*
X424703D01*
Y348425D01*
X414543D01*
Y359552D02*
Y369712D01*
X424703D01*
Y359552D01*
X414543D01*
X370715Y66130D02*
Y76290D01*
X380875D01*
Y66130D01*
X370715D01*
X279734Y70524D02*
Y80683D01*
X289894D01*
Y70524D01*
X279734D01*
X144938Y75124D02*
Y85284D01*
X155098D01*
Y75124D01*
X144938D01*
X381353Y268111D02*
Y278271D01*
X391513D01*
Y268111D01*
X381353D01*
X376551Y245316D02*
Y255476D01*
X386711D01*
Y245316D01*
X376551D01*
X505756Y187323D02*
Y197483D01*
X515915D01*
Y187323D01*
X505756D01*
X514164Y124424D02*
Y134584D01*
X524324D01*
Y124424D01*
X514164D01*
X433135Y114066D02*
Y124226D01*
X443295D01*
Y114066D01*
X433135D01*
X375545Y226784D02*
Y236944D01*
X385705D01*
Y226784D01*
X375545D01*
X419248Y24222D02*
Y34382D01*
X429408D01*
Y24222D01*
X419248D01*
X258675Y305790D02*
Y315950D01*
X268836D01*
Y305790D01*
X258675D01*
X286765Y144674D02*
Y154834D01*
X296925D01*
Y144674D01*
X286765D01*
X167245Y54920D02*
Y52380D01*
X172325D01*
Y54920D01*
X174865D01*
Y60000D01*
X172325D01*
Y62540D01*
X167245D01*
Y60000D01*
X164705D01*
Y54920D01*
X167245D01*
X332455Y108928D02*
Y119088D01*
X342615D01*
Y108928D01*
X332455D01*
X363654Y109066D02*
Y119226D01*
X373814D01*
Y109066D01*
X363654D01*
X360217Y22222D02*
Y32382D01*
X370377D01*
Y22222D01*
X360217D01*
X343965Y56363D02*
Y66522D01*
X354125D01*
Y56363D01*
X343965D01*
X116849Y266912D02*
Y277072D01*
X127009D01*
Y266912D01*
X116849D01*
X391866Y45409D02*
Y55569D01*
X402026D01*
Y45409D01*
X391866D01*
X423959Y73182D02*
Y83342D01*
X434119D01*
Y73182D01*
X423959D01*
X433880Y69779D02*
Y79939D01*
X444040D01*
Y69779D01*
X433880D01*
X99662Y202946D02*
Y213106D01*
X109822D01*
Y202946D01*
X99662D01*
D121*
X82426Y31827D02*
G03*
X82426Y31827I-5080J0D01*
G01*
X465761Y387677D02*
G03*
X465761Y387677I-5080J0D01*
G01*
M02*
