G04*
G04 #@! TF.GenerationSoftware,Altium Limited,Altium Designer,24.7.2 (38)*
G04*
G04 Layer_Color=16711935*
%FSLAX44Y44*%
%MOMM*%
G71*
G04*
G04 #@! TF.SameCoordinates,27BF797F-714E-4A77-BE02-AF934A81444A*
G04*
G04*
G04 #@! TF.FilePolarity,Positive*
G04*
G01*
G75*
%ADD12C,0.2000*%
%ADD13C,0.1270*%
%ADD120C,0.1000*%
G36*
X269091Y391404D02*
X269151Y391399D01*
X269221Y391395D01*
X269304Y391381D01*
X269396Y391367D01*
X269494Y391348D01*
X269595Y391321D01*
X269702Y391293D01*
X269808Y391251D01*
X269914Y391205D01*
X270021Y391150D01*
X270122Y391085D01*
X270219Y391011D01*
X270307Y390928D01*
X270312Y390923D01*
X270326Y390905D01*
X270349Y390877D01*
X270376Y390835D01*
X270409Y390784D01*
X270446Y390724D01*
X270487Y390650D01*
X270525Y390567D01*
X270566Y390470D01*
X270608Y390364D01*
X270640Y390244D01*
X270672Y390114D01*
X270700Y389975D01*
X270719Y389823D01*
X270732Y389661D01*
Y389490D01*
X269970Y389384D01*
Y389393D01*
Y389416D01*
X269965Y389453D01*
X269960Y389504D01*
X269956Y389564D01*
X269947Y389629D01*
X269937Y389703D01*
X269923Y389786D01*
X269891Y389952D01*
X269845Y390119D01*
X269813Y390193D01*
X269780Y390267D01*
X269739Y390331D01*
X269697Y390387D01*
X269692Y390392D01*
X269688Y390396D01*
X269669Y390410D01*
X269651Y390429D01*
X269628Y390447D01*
X269595Y390470D01*
X269563Y390498D01*
X269521Y390521D01*
X269475Y390544D01*
X269424Y390572D01*
X269369Y390595D01*
X269309Y390613D01*
X269239Y390632D01*
X269170Y390641D01*
X269096Y390650D01*
X269017Y390655D01*
X268985D01*
X268962Y390650D01*
X268934D01*
X268902Y390646D01*
X268828Y390636D01*
X268745Y390618D01*
X268652Y390595D01*
X268555Y390558D01*
X268467Y390512D01*
X268463D01*
X268458Y390502D01*
X268430Y390484D01*
X268389Y390452D01*
X268342Y390405D01*
X268287Y390350D01*
X268236Y390281D01*
X268185Y390202D01*
X268148Y390114D01*
Y390109D01*
X268144Y390100D01*
X268139Y390086D01*
X268134Y390068D01*
X268130Y390040D01*
X268121Y390008D01*
X268111Y389966D01*
X268102Y389920D01*
X268097Y389869D01*
X268088Y389809D01*
X268079Y389744D01*
X268074Y389670D01*
X268070Y389592D01*
X268065Y389509D01*
X268060Y389416D01*
Y389314D01*
Y384904D01*
X267215D01*
Y389263D01*
Y389273D01*
Y389300D01*
Y389342D01*
X267219Y389398D01*
Y389462D01*
X267224Y389541D01*
X267233Y389629D01*
X267238Y389721D01*
X267251Y389818D01*
X267261Y389920D01*
X267298Y390128D01*
X267321Y390230D01*
X267349Y390327D01*
X267376Y390419D01*
X267413Y390507D01*
Y390512D01*
X267423Y390526D01*
X267432Y390549D01*
X267450Y390581D01*
X267469Y390618D01*
X267496Y390660D01*
X267529Y390706D01*
X267561Y390757D01*
X267603Y390807D01*
X267649Y390863D01*
X267700Y390919D01*
X267755Y390974D01*
X267815Y391029D01*
X267880Y391080D01*
X267950Y391131D01*
X268028Y391177D01*
X268033Y391182D01*
X268047Y391187D01*
X268070Y391200D01*
X268102Y391214D01*
X268144Y391233D01*
X268190Y391251D01*
X268245Y391270D01*
X268310Y391293D01*
X268379Y391316D01*
X268454Y391334D01*
X268537Y391353D01*
X268620Y391371D01*
X268712Y391385D01*
X268809Y391399D01*
X268906Y391404D01*
X269013Y391409D01*
X269050D01*
X269091Y391404D01*
D02*
G37*
G36*
X266248Y391298D02*
Y391288D01*
Y391274D01*
Y391256D01*
Y391228D01*
X266244Y391200D01*
X266239Y391127D01*
X266230Y391048D01*
X266216Y390956D01*
X266193Y390858D01*
X266161Y390761D01*
Y390757D01*
X266151Y390743D01*
X266142Y390720D01*
X266128Y390687D01*
X266114Y390646D01*
X266091Y390600D01*
X266063Y390549D01*
X266036Y390493D01*
X266003Y390429D01*
X265962Y390364D01*
X265874Y390220D01*
X265768Y390068D01*
X265643Y389911D01*
X265638Y389906D01*
X265624Y389892D01*
X265606Y389869D01*
X265578Y389837D01*
X265541Y389795D01*
X265495Y389749D01*
X265444Y389693D01*
X265379Y389633D01*
X265310Y389564D01*
X265236Y389490D01*
X265153Y389412D01*
X265060Y389324D01*
X264959Y389236D01*
X264852Y389143D01*
X264737Y389046D01*
X264617Y388945D01*
X264612Y388940D01*
X264603Y388935D01*
X264589Y388921D01*
X264570Y388908D01*
X264547Y388885D01*
X264520Y388861D01*
X264450Y388801D01*
X264362Y388732D01*
X264270Y388644D01*
X264163Y388552D01*
X264053Y388450D01*
X263932Y388344D01*
X263817Y388233D01*
X263697Y388122D01*
X263586Y388006D01*
X263475Y387895D01*
X263378Y387789D01*
X263285Y387682D01*
X263211Y387585D01*
X263207Y387581D01*
X263197Y387562D01*
X263179Y387535D01*
X263151Y387502D01*
X263123Y387456D01*
X263096Y387405D01*
X263059Y387345D01*
X263026Y387280D01*
X262994Y387211D01*
X262957Y387137D01*
X262897Y386975D01*
X262874Y386892D01*
X262855Y386809D01*
X262846Y386726D01*
X262841Y386642D01*
Y386638D01*
Y386619D01*
Y386596D01*
X262846Y386564D01*
X262851Y386522D01*
X262860Y386476D01*
X262869Y386425D01*
X262883Y386370D01*
X262901Y386310D01*
X262925Y386245D01*
X262952Y386180D01*
X262985Y386115D01*
X263022Y386046D01*
X263068Y385981D01*
X263119Y385917D01*
X263179Y385857D01*
X263183Y385852D01*
X263193Y385843D01*
X263211Y385829D01*
X263239Y385806D01*
X263271Y385783D01*
X263313Y385755D01*
X263359Y385723D01*
X263410Y385695D01*
X263470Y385662D01*
X263535Y385635D01*
X263609Y385607D01*
X263683Y385584D01*
X263766Y385561D01*
X263854Y385547D01*
X263946Y385538D01*
X264043Y385533D01*
X264099D01*
X264136Y385538D01*
X264187Y385542D01*
X264242Y385551D01*
X264302Y385561D01*
X264371Y385574D01*
X264441Y385593D01*
X264515Y385616D01*
X264589Y385644D01*
X264667Y385676D01*
X264741Y385718D01*
X264815Y385764D01*
X264889Y385815D01*
X264954Y385875D01*
X264959Y385880D01*
X264968Y385889D01*
X264986Y385912D01*
X265005Y385935D01*
X265033Y385972D01*
X265060Y386014D01*
X265093Y386065D01*
X265120Y386120D01*
X265153Y386180D01*
X265185Y386254D01*
X265213Y386328D01*
X265241Y386411D01*
X265259Y386504D01*
X265278Y386601D01*
X265287Y386702D01*
X265292Y386814D01*
X266101Y386730D01*
Y386726D01*
Y386721D01*
X266096Y386707D01*
Y386689D01*
X266091Y386642D01*
X266077Y386582D01*
X266063Y386508D01*
X266045Y386421D01*
X266022Y386323D01*
X265994Y386222D01*
X265957Y386111D01*
X265916Y386000D01*
X265865Y385884D01*
X265805Y385769D01*
X265740Y385658D01*
X265661Y385551D01*
X265578Y385450D01*
X265481Y385357D01*
X265476Y385353D01*
X265458Y385339D01*
X265425Y385311D01*
X265384Y385283D01*
X265329Y385246D01*
X265264Y385205D01*
X265185Y385163D01*
X265097Y385117D01*
X264996Y385075D01*
X264889Y385034D01*
X264769Y384992D01*
X264640Y384955D01*
X264501Y384923D01*
X264353Y384900D01*
X264196Y384886D01*
X264029Y384881D01*
X263988D01*
X263942Y384886D01*
X263877Y384890D01*
X263798Y384895D01*
X263710Y384909D01*
X263609Y384923D01*
X263502Y384946D01*
X263387Y384974D01*
X263271Y385006D01*
X263146Y385047D01*
X263026Y385098D01*
X262906Y385159D01*
X262791Y385223D01*
X262680Y385302D01*
X262573Y385394D01*
X262569Y385399D01*
X262550Y385417D01*
X262522Y385445D01*
X262490Y385487D01*
X262448Y385533D01*
X262402Y385593D01*
X262351Y385662D01*
X262300Y385741D01*
X262254Y385829D01*
X262203Y385926D01*
X262157Y386032D01*
X262116Y386143D01*
X262083Y386263D01*
X262055Y386388D01*
X262037Y386522D01*
X262032Y386661D01*
Y386665D01*
Y386679D01*
Y386698D01*
Y386726D01*
X262037Y386763D01*
X262042Y386800D01*
X262046Y386846D01*
X262051Y386897D01*
X262069Y387012D01*
X262097Y387142D01*
X262139Y387276D01*
X262190Y387414D01*
Y387419D01*
X262199Y387433D01*
X262208Y387451D01*
X262222Y387479D01*
X262236Y387511D01*
X262259Y387553D01*
X262282Y387599D01*
X262314Y387650D01*
X262347Y387706D01*
X262384Y387766D01*
X262476Y387900D01*
X262527Y387969D01*
X262582Y388043D01*
X262647Y388117D01*
X262712Y388196D01*
X262717Y388200D01*
X262730Y388214D01*
X262749Y388237D01*
X262781Y388270D01*
X262823Y388311D01*
X262874Y388362D01*
X262929Y388422D01*
X262999Y388492D01*
X263077Y388565D01*
X263170Y388649D01*
X263267Y388741D01*
X263378Y388843D01*
X263498Y388949D01*
X263627Y389065D01*
X263771Y389190D01*
X263923Y389319D01*
X263932Y389324D01*
X263955Y389347D01*
X263988Y389375D01*
X264034Y389416D01*
X264094Y389462D01*
X264154Y389518D01*
X264224Y389578D01*
X264298Y389643D01*
X264455Y389777D01*
X264529Y389846D01*
X264603Y389911D01*
X264672Y389975D01*
X264732Y390031D01*
X264788Y390082D01*
X264829Y390128D01*
X264838Y390137D01*
X264862Y390165D01*
X264898Y390207D01*
X264945Y390257D01*
X264996Y390322D01*
X265051Y390392D01*
X265107Y390470D01*
X265157Y390549D01*
X262023D01*
Y391302D01*
X266248D01*
Y391298D01*
D02*
G37*
G36*
X372042Y382578D02*
X369125D01*
X369070Y382583D01*
X368996D01*
X368912Y382588D01*
X368825Y382592D01*
X368723Y382602D01*
X368621Y382611D01*
X368515Y382620D01*
X368298Y382652D01*
X368196Y382671D01*
X368094Y382694D01*
X367997Y382722D01*
X367909Y382754D01*
X367905D01*
X367891Y382763D01*
X367868Y382773D01*
X367835Y382786D01*
X367798Y382805D01*
X367757Y382833D01*
X367706Y382860D01*
X367655Y382893D01*
X367599Y382934D01*
X367539Y382976D01*
X367479Y383027D01*
X367419Y383082D01*
X367364Y383147D01*
X367304Y383212D01*
X367248Y383286D01*
X367197Y383364D01*
X367193Y383369D01*
X367183Y383383D01*
X367174Y383406D01*
X367156Y383438D01*
X367137Y383480D01*
X367114Y383531D01*
X367086Y383586D01*
X367063Y383646D01*
X367040Y383716D01*
X367012Y383790D01*
X366989Y383868D01*
X366971Y383951D01*
X366952Y384039D01*
X366939Y384132D01*
X366934Y384229D01*
X366929Y384326D01*
Y384335D01*
Y384354D01*
X366934Y384391D01*
Y384441D01*
X366943Y384497D01*
X366952Y384566D01*
X366966Y384640D01*
X366985Y384723D01*
X367008Y384811D01*
X367036Y384904D01*
X367072Y385001D01*
X367114Y385098D01*
X367165Y385195D01*
X367225Y385287D01*
X367294Y385384D01*
X367373Y385472D01*
X367378Y385477D01*
X367392Y385491D01*
X367419Y385514D01*
X367456Y385546D01*
X367503Y385583D01*
X367563Y385625D01*
X367627Y385671D01*
X367706Y385722D01*
X367798Y385773D01*
X367895Y385824D01*
X368011Y385870D01*
X368131Y385921D01*
X368265Y385962D01*
X368409Y386004D01*
X368566Y386036D01*
X368732Y386064D01*
X368727D01*
X368718Y386073D01*
X368700Y386078D01*
X368677Y386092D01*
X368649Y386106D01*
X368617Y386124D01*
X368543Y386166D01*
X368459Y386212D01*
X368376Y386267D01*
X368298Y386323D01*
X368224Y386383D01*
X368219Y386388D01*
X368205Y386397D01*
X368187Y386420D01*
X368159Y386443D01*
X368126Y386480D01*
X368090Y386517D01*
X368043Y386563D01*
X367997Y386619D01*
X367946Y386679D01*
X367891Y386744D01*
X367831Y386813D01*
X367771Y386887D01*
X367710Y386970D01*
X367646Y387053D01*
X367521Y387238D01*
X366416Y388976D01*
X367475D01*
X368321Y387645D01*
X368325Y387640D01*
X368339Y387622D01*
X368358Y387589D01*
X368381Y387553D01*
X368413Y387502D01*
X368450Y387446D01*
X368492Y387386D01*
X368533Y387321D01*
X368630Y387178D01*
X368732Y387030D01*
X368834Y386892D01*
X368885Y386827D01*
X368931Y386767D01*
X368936Y386762D01*
X368940Y386753D01*
X368954Y386739D01*
X368973Y386716D01*
X369019Y386660D01*
X369074Y386596D01*
X369144Y386526D01*
X369213Y386452D01*
X369287Y386388D01*
X369361Y386337D01*
X369370Y386332D01*
X369393Y386318D01*
X369430Y386295D01*
X369481Y386272D01*
X369537Y386244D01*
X369601Y386212D01*
X369671Y386189D01*
X369744Y386166D01*
X369749D01*
X369772Y386161D01*
X369809Y386157D01*
X369855Y386147D01*
X369920Y386143D01*
X370003Y386138D01*
X370101Y386133D01*
X371196D01*
Y388976D01*
X372042D01*
Y382578D01*
D02*
G37*
G36*
X355687Y389078D02*
X355751D01*
X355835Y389069D01*
X355932Y389060D01*
X356043Y389050D01*
X356163Y389032D01*
X356292Y389009D01*
X356426Y388986D01*
X356570Y388953D01*
X356717Y388912D01*
X356865Y388865D01*
X357013Y388815D01*
X357161Y388750D01*
X357309Y388680D01*
X357318Y388676D01*
X357342Y388662D01*
X357383Y388639D01*
X357434Y388607D01*
X357499Y388565D01*
X357573Y388514D01*
X357656Y388454D01*
X357744Y388385D01*
X357836Y388306D01*
X357933Y388218D01*
X358030Y388126D01*
X358127Y388019D01*
X358220Y387904D01*
X358312Y387784D01*
X358396Y387654D01*
X358474Y387516D01*
X358479Y387506D01*
X358493Y387479D01*
X358511Y387437D01*
X358534Y387382D01*
X358562Y387308D01*
X358599Y387224D01*
X358631Y387123D01*
X358668Y387016D01*
X358705Y386892D01*
X358738Y386762D01*
X358770Y386623D01*
X358802Y386471D01*
X358825Y386314D01*
X358844Y386152D01*
X358858Y385985D01*
X358862Y385810D01*
Y385805D01*
Y385801D01*
Y385787D01*
Y385768D01*
Y385745D01*
X358858Y385717D01*
Y385653D01*
X358849Y385569D01*
X358844Y385472D01*
X358830Y385361D01*
X358812Y385241D01*
X358793Y385112D01*
X358765Y384973D01*
X358738Y384830D01*
X358701Y384682D01*
X358654Y384529D01*
X358604Y384372D01*
X358544Y384220D01*
X358474Y384067D01*
Y384062D01*
X358470Y384058D01*
X358456Y384030D01*
X358433Y383988D01*
X358400Y383933D01*
X358363Y383868D01*
X358312Y383790D01*
X358252Y383702D01*
X358187Y383609D01*
X358114Y383512D01*
X358030Y383415D01*
X357938Y383313D01*
X357836Y383216D01*
X357725Y383119D01*
X357610Y383027D01*
X357485Y382939D01*
X357351Y382860D01*
X357342Y382856D01*
X357318Y382842D01*
X357277Y382823D01*
X357221Y382800D01*
X357152Y382768D01*
X357069Y382736D01*
X356972Y382699D01*
X356865Y382662D01*
X356745Y382629D01*
X356616Y382592D01*
X356477Y382560D01*
X356329Y382528D01*
X356172Y382505D01*
X356010Y382486D01*
X355839Y382472D01*
X355663Y382467D01*
X355594D01*
X355548Y382472D01*
X355483D01*
X355414Y382481D01*
X355335Y382486D01*
X355247Y382495D01*
X355150Y382509D01*
X355053Y382523D01*
X354841Y382565D01*
X354734Y382588D01*
X354623Y382620D01*
X354517Y382652D01*
X354411Y382694D01*
X354406Y382699D01*
X354388Y382703D01*
X354355Y382717D01*
X354318Y382736D01*
X354272Y382759D01*
X354216Y382786D01*
X354156Y382819D01*
X354087Y382856D01*
X354018Y382902D01*
X353948Y382948D01*
X353801Y383055D01*
X353657Y383179D01*
X353588Y383249D01*
X353528Y383323D01*
X353523Y383327D01*
X353514Y383341D01*
X353495Y383364D01*
X353477Y383397D01*
X353449Y383434D01*
X353417Y383484D01*
X353384Y383540D01*
X353348Y383605D01*
X353311Y383674D01*
X353269Y383757D01*
X353227Y383840D01*
X353190Y383933D01*
X353149Y384035D01*
X353112Y384141D01*
X353075Y384252D01*
X353042Y384372D01*
X353805Y384580D01*
Y384576D01*
X353810Y384557D01*
X353819Y384534D01*
X353833Y384497D01*
X353847Y384460D01*
X353861Y384409D01*
X353884Y384358D01*
X353902Y384298D01*
X353958Y384178D01*
X354018Y384049D01*
X354087Y383924D01*
X354124Y383868D01*
X354166Y383813D01*
X354170Y383808D01*
X354175Y383799D01*
X354189Y383785D01*
X354203Y383767D01*
X354226Y383743D01*
X354254Y383716D01*
X354286Y383683D01*
X354323Y383651D01*
X354365Y383614D01*
X354406Y383577D01*
X354512Y383503D01*
X354637Y383429D01*
X354776Y383364D01*
X354781D01*
X354794Y383355D01*
X354818Y383350D01*
X354845Y383337D01*
X354882Y383323D01*
X354928Y383309D01*
X354979Y383295D01*
X355035Y383276D01*
X355095Y383263D01*
X355164Y383249D01*
X355238Y383235D01*
X355312Y383221D01*
X355479Y383203D01*
X355654Y383193D01*
X355710D01*
X355751Y383198D01*
X355802D01*
X355862Y383203D01*
X355927Y383207D01*
X355996Y383216D01*
X356075Y383226D01*
X356158Y383235D01*
X356325Y383267D01*
X356496Y383313D01*
X356662Y383374D01*
X356667D01*
X356680Y383383D01*
X356704Y383392D01*
X356731Y383406D01*
X356768Y383424D01*
X356810Y383443D01*
X356856Y383471D01*
X356902Y383498D01*
X357013Y383563D01*
X357124Y383646D01*
X357240Y383739D01*
X357342Y383840D01*
X357346Y383845D01*
X357351Y383854D01*
X357365Y383868D01*
X357383Y383891D01*
X357406Y383919D01*
X357429Y383947D01*
X357457Y383984D01*
X357490Y384025D01*
X357554Y384118D01*
X357623Y384224D01*
X357688Y384344D01*
X357748Y384469D01*
X357753Y384474D01*
X357758Y384497D01*
X357771Y384529D01*
X357785Y384571D01*
X357804Y384626D01*
X357822Y384691D01*
X357845Y384770D01*
X357869Y384853D01*
X357892Y384945D01*
X357915Y385042D01*
X357933Y385149D01*
X357952Y385264D01*
X357966Y385380D01*
X357980Y385505D01*
X357984Y385630D01*
X357989Y385759D01*
Y385764D01*
Y385768D01*
Y385796D01*
Y385842D01*
X357984Y385902D01*
X357980Y385976D01*
X357975Y386059D01*
X357966Y386157D01*
X357952Y386258D01*
X357938Y386369D01*
X357919Y386485D01*
X357892Y386605D01*
X357864Y386725D01*
X357832Y386845D01*
X357795Y386965D01*
X357748Y387081D01*
X357697Y387192D01*
X357693Y387197D01*
X357684Y387215D01*
X357665Y387248D01*
X357642Y387284D01*
X357610Y387335D01*
X357573Y387386D01*
X357531Y387446D01*
X357480Y387511D01*
X357420Y387580D01*
X357355Y387650D01*
X357286Y387724D01*
X357207Y387793D01*
X357124Y387862D01*
X357036Y387927D01*
X356939Y387987D01*
X356838Y388043D01*
X356833Y388047D01*
X356810Y388056D01*
X356782Y388070D01*
X356741Y388084D01*
X356690Y388107D01*
X356625Y388130D01*
X356556Y388153D01*
X356477Y388181D01*
X356389Y388209D01*
X356297Y388232D01*
X356200Y388255D01*
X356098Y388278D01*
X355987Y388292D01*
X355876Y388306D01*
X355761Y388315D01*
X355645Y388320D01*
X355589D01*
X355552Y388315D01*
X355502D01*
X355442Y388311D01*
X355377Y388302D01*
X355303Y388292D01*
X355224Y388283D01*
X355141Y388269D01*
X354961Y388232D01*
X354767Y388181D01*
X354670Y388149D01*
X354572Y388112D01*
X354568Y388107D01*
X354549Y388103D01*
X354522Y388089D01*
X354485Y388075D01*
X354443Y388056D01*
X354392Y388033D01*
X354337Y388006D01*
X354277Y387973D01*
X354147Y387909D01*
X354013Y387830D01*
X353884Y387747D01*
X353828Y387705D01*
X353773Y387659D01*
Y386466D01*
X355654D01*
Y385713D01*
X352945D01*
Y388089D01*
X352954Y388093D01*
X352973Y388112D01*
X353005Y388135D01*
X353052Y388172D01*
X353112Y388209D01*
X353176Y388260D01*
X353255Y388311D01*
X353338Y388366D01*
X353435Y388426D01*
X353532Y388486D01*
X353639Y388551D01*
X353754Y388611D01*
X353990Y388731D01*
X354110Y388782D01*
X354235Y388833D01*
X354244Y388838D01*
X354263Y388842D01*
X354300Y388856D01*
X354351Y388870D01*
X354411Y388889D01*
X354480Y388912D01*
X354563Y388935D01*
X354651Y388958D01*
X354753Y388981D01*
X354859Y389004D01*
X354970Y389023D01*
X355086Y389046D01*
X355335Y389073D01*
X355465Y389078D01*
X355594Y389083D01*
X355659D01*
X355687Y389078D01*
D02*
G37*
G36*
X378015Y382578D02*
X375449D01*
X375384Y382583D01*
X375320D01*
X375246Y382588D01*
X375089Y382592D01*
X374927Y382606D01*
X374770Y382620D01*
X374696Y382634D01*
X374631Y382643D01*
X374626D01*
X374608Y382648D01*
X374585Y382652D01*
X374552Y382657D01*
X374511Y382666D01*
X374464Y382680D01*
X374414Y382694D01*
X374353Y382708D01*
X374229Y382749D01*
X374099Y382805D01*
X373965Y382865D01*
X373840Y382944D01*
X373836Y382948D01*
X373826Y382953D01*
X373808Y382967D01*
X373789Y382985D01*
X373762Y383004D01*
X373729Y383032D01*
X373692Y383064D01*
X373655Y383101D01*
X373618Y383142D01*
X373577Y383189D01*
X373489Y383295D01*
X373406Y383420D01*
X373327Y383559D01*
X373323Y383563D01*
X373318Y383577D01*
X373309Y383600D01*
X373295Y383628D01*
X373281Y383665D01*
X373267Y383711D01*
X373249Y383762D01*
X373230Y383817D01*
X373212Y383877D01*
X373193Y383947D01*
X373179Y384016D01*
X373165Y384095D01*
X373142Y384257D01*
X373133Y384432D01*
Y384441D01*
Y384469D01*
X373138Y384511D01*
X373142Y384566D01*
X373147Y384640D01*
X373161Y384719D01*
X373175Y384811D01*
X373198Y384908D01*
X373226Y385015D01*
X373262Y385126D01*
X373304Y385241D01*
X373355Y385357D01*
X373415Y385472D01*
X373484Y385588D01*
X373563Y385703D01*
X373655Y385810D01*
X373660Y385814D01*
X373679Y385833D01*
X373711Y385861D01*
X373757Y385898D01*
X373817Y385939D01*
X373891Y385990D01*
X373979Y386041D01*
X374085Y386092D01*
X374206Y386143D01*
X374340Y386194D01*
X374497Y386244D01*
X374663Y386286D01*
X374853Y386323D01*
X374954Y386337D01*
X375061Y386351D01*
X375172Y386360D01*
X375287Y386369D01*
X375407Y386374D01*
X377169D01*
Y388976D01*
X378015D01*
Y382578D01*
D02*
G37*
G36*
X362889Y389078D02*
X362954Y389073D01*
X363032Y389069D01*
X363125Y389060D01*
X363231Y389046D01*
X363342Y389027D01*
X363467Y389004D01*
X363596Y388976D01*
X363730Y388939D01*
X363864Y388898D01*
X364003Y388852D01*
X364146Y388792D01*
X364285Y388727D01*
X364419Y388648D01*
X364428Y388643D01*
X364451Y388630D01*
X364488Y388602D01*
X364535Y388570D01*
X364595Y388523D01*
X364664Y388473D01*
X364738Y388408D01*
X364821Y388338D01*
X364905Y388255D01*
X364997Y388167D01*
X365085Y388070D01*
X365173Y387964D01*
X365260Y387848D01*
X365344Y387728D01*
X365422Y387599D01*
X365496Y387460D01*
X365501Y387451D01*
X365510Y387428D01*
X365528Y387386D01*
X365552Y387326D01*
X365579Y387257D01*
X365612Y387174D01*
X365644Y387081D01*
X365676Y386975D01*
X365713Y386859D01*
X365746Y386734D01*
X365778Y386605D01*
X365806Y386466D01*
X365829Y386318D01*
X365848Y386170D01*
X365857Y386018D01*
X365861Y385861D01*
Y385856D01*
Y385842D01*
Y385819D01*
Y385791D01*
X365857Y385754D01*
Y385708D01*
X365852Y385657D01*
X365848Y385597D01*
X365843Y385532D01*
X365834Y385463D01*
X365824Y385389D01*
X365815Y385311D01*
X365787Y385140D01*
X365755Y384955D01*
X365709Y384756D01*
X365653Y384552D01*
X365584Y384344D01*
X365501Y384136D01*
X365404Y383933D01*
X365288Y383734D01*
X365223Y383637D01*
X365159Y383545D01*
X365085Y383457D01*
X365006Y383369D01*
X365001Y383364D01*
X364997Y383360D01*
X364983Y383346D01*
X364964Y383332D01*
X364946Y383309D01*
X364918Y383286D01*
X364849Y383226D01*
X364766Y383161D01*
X364664Y383082D01*
X364544Y383004D01*
X364410Y382916D01*
X364257Y382833D01*
X364091Y382754D01*
X363910Y382676D01*
X363716Y382606D01*
X363504Y382551D01*
X363282Y382505D01*
X363166Y382491D01*
X363046Y382477D01*
X362926Y382472D01*
X362801Y382467D01*
X362760D01*
X362713Y382472D01*
X362653D01*
X362575Y382481D01*
X362482Y382491D01*
X362380Y382505D01*
X362270Y382518D01*
X362149Y382541D01*
X362020Y382569D01*
X361886Y382606D01*
X361752Y382648D01*
X361613Y382694D01*
X361474Y382754D01*
X361336Y382819D01*
X361202Y382893D01*
X361192Y382897D01*
X361169Y382911D01*
X361132Y382934D01*
X361086Y382971D01*
X361026Y383013D01*
X360957Y383064D01*
X360883Y383129D01*
X360799Y383198D01*
X360712Y383276D01*
X360624Y383364D01*
X360531Y383461D01*
X360443Y383568D01*
X360356Y383683D01*
X360268Y383803D01*
X360189Y383933D01*
X360115Y384072D01*
X360111Y384081D01*
X360097Y384104D01*
X360078Y384146D01*
X360055Y384206D01*
X360027Y384275D01*
X359995Y384363D01*
X359963Y384460D01*
X359926Y384571D01*
X359893Y384691D01*
X359861Y384825D01*
X359829Y384964D01*
X359801Y385116D01*
X359773Y385274D01*
X359755Y385440D01*
X359745Y385611D01*
X359741Y385787D01*
Y385791D01*
Y385796D01*
Y385810D01*
Y385828D01*
Y385851D01*
X359745Y385884D01*
Y385953D01*
X359755Y386036D01*
X359759Y386133D01*
X359773Y386249D01*
X359792Y386369D01*
X359810Y386503D01*
X359838Y386642D01*
X359870Y386785D01*
X359907Y386933D01*
X359953Y387086D01*
X360004Y387234D01*
X360064Y387382D01*
X360134Y387529D01*
X360138Y387539D01*
X360152Y387562D01*
X360175Y387603D01*
X360208Y387654D01*
X360245Y387719D01*
X360295Y387793D01*
X360356Y387876D01*
X360420Y387964D01*
X360494Y388056D01*
X360578Y388149D01*
X360670Y388246D01*
X360767Y388343D01*
X360878Y388436D01*
X360994Y388528D01*
X361118Y388611D01*
X361248Y388690D01*
X361257Y388694D01*
X361280Y388708D01*
X361322Y388727D01*
X361373Y388750D01*
X361442Y388782D01*
X361521Y388815D01*
X361608Y388852D01*
X361710Y388884D01*
X361826Y388921D01*
X361946Y388958D01*
X362071Y388990D01*
X362209Y389023D01*
X362348Y389046D01*
X362496Y389064D01*
X362649Y389078D01*
X362801Y389083D01*
X362843D01*
X362889Y389078D01*
D02*
G37*
G36*
X287677Y242692D02*
X289207D01*
Y241906D01*
X287677D01*
Y239132D01*
X286956D01*
X282810Y242049D01*
Y242692D01*
X286956D01*
Y243556D01*
X287677D01*
Y242692D01*
D02*
G37*
G36*
X286665Y238291D02*
X286748D01*
X286841Y238286D01*
X286947Y238277D01*
X287058Y238268D01*
X287178Y238254D01*
X287303Y238240D01*
X287557Y238203D01*
X287687Y238175D01*
X287807Y238147D01*
X287927Y238110D01*
X288038Y238073D01*
X288043Y238069D01*
X288061Y238064D01*
X288093Y238050D01*
X288130Y238032D01*
X288181Y238004D01*
X288237Y237976D01*
X288297Y237939D01*
X288366Y237893D01*
X288440Y237842D01*
X288514Y237787D01*
X288588Y237722D01*
X288667Y237648D01*
X288745Y237570D01*
X288819Y237486D01*
X288893Y237389D01*
X288962Y237288D01*
X288967Y237283D01*
X288976Y237260D01*
X288995Y237227D01*
X289018Y237186D01*
X289046Y237126D01*
X289073Y237061D01*
X289106Y236978D01*
X289138Y236890D01*
X289170Y236784D01*
X289203Y236673D01*
X289231Y236553D01*
X289258Y236418D01*
X289281Y236275D01*
X289300Y236123D01*
X289309Y235965D01*
X289314Y235794D01*
Y235707D01*
X289309Y235646D01*
X289305Y235568D01*
X289295Y235480D01*
X289286Y235378D01*
X289277Y235272D01*
X289258Y235156D01*
X289240Y235036D01*
X289212Y234916D01*
X289184Y234791D01*
X289147Y234671D01*
X289106Y234546D01*
X289060Y234431D01*
X289004Y234320D01*
X288999Y234315D01*
X288990Y234297D01*
X288972Y234264D01*
X288949Y234227D01*
X288916Y234181D01*
X288875Y234126D01*
X288828Y234070D01*
X288778Y234005D01*
X288717Y233941D01*
X288648Y233871D01*
X288579Y233802D01*
X288496Y233737D01*
X288412Y233673D01*
X288315Y233612D01*
X288218Y233557D01*
X288112Y233506D01*
X288103Y233501D01*
X288084Y233497D01*
X288052Y233483D01*
X288006Y233469D01*
X287945Y233451D01*
X287871Y233432D01*
X287788Y233409D01*
X287691Y233386D01*
X287580Y233363D01*
X287460Y233340D01*
X287331Y233321D01*
X287187Y233303D01*
X287035Y233289D01*
X286868Y233275D01*
X286693Y233270D01*
X286508Y233266D01*
X282810D01*
Y234112D01*
X286503D01*
X286512D01*
X286540D01*
X286582D01*
X286637Y234116D01*
X286707D01*
X286785Y234121D01*
X286873Y234126D01*
X286970Y234130D01*
X287067Y234139D01*
X287169Y234149D01*
X287372Y234176D01*
X287469Y234195D01*
X287566Y234213D01*
X287654Y234237D01*
X287733Y234264D01*
X287737D01*
X287751Y234273D01*
X287770Y234283D01*
X287798Y234297D01*
X287830Y234310D01*
X287867Y234334D01*
X287955Y234389D01*
X288052Y234463D01*
X288103Y234505D01*
X288153Y234555D01*
X288204Y234606D01*
X288251Y234666D01*
X288297Y234727D01*
X288338Y234796D01*
Y234800D01*
X288348Y234814D01*
X288357Y234833D01*
X288371Y234865D01*
X288389Y234902D01*
X288408Y234944D01*
X288426Y234995D01*
X288445Y235055D01*
X288463Y235119D01*
X288482Y235189D01*
X288500Y235263D01*
X288519Y235346D01*
X288533Y235434D01*
X288542Y235526D01*
X288546Y235619D01*
X288551Y235720D01*
Y235762D01*
X288546Y235808D01*
Y235873D01*
X288537Y235952D01*
X288528Y236035D01*
X288514Y236132D01*
X288500Y236238D01*
X288477Y236345D01*
X288449Y236455D01*
X288412Y236566D01*
X288375Y236677D01*
X288325Y236784D01*
X288269Y236881D01*
X288204Y236973D01*
X288130Y237052D01*
X288126Y237056D01*
X288112Y237070D01*
X288084Y237089D01*
X288047Y237112D01*
X287996Y237144D01*
X287932Y237177D01*
X287858Y237214D01*
X287765Y237251D01*
X287663Y237288D01*
X287548Y237325D01*
X287414Y237357D01*
X287266Y237389D01*
X287099Y237412D01*
X286919Y237431D01*
X286720Y237445D01*
X286503Y237449D01*
X282810D01*
Y238295D01*
X286508D01*
X286512D01*
X286517D01*
X286531D01*
X286549D01*
X286572D01*
X286600D01*
X286665Y238291D01*
D02*
G37*
G36*
X392743Y238474D02*
X392812Y238470D01*
X392895Y238465D01*
X392988Y238451D01*
X393094Y238437D01*
X393214Y238419D01*
X393339Y238391D01*
X393468Y238359D01*
X393602Y238322D01*
X393737Y238271D01*
X393871Y238216D01*
X394009Y238151D01*
X394139Y238077D01*
X394263Y237989D01*
X394273Y237984D01*
X394291Y237966D01*
X394328Y237938D01*
X394370Y237896D01*
X394425Y237850D01*
X394485Y237786D01*
X394550Y237716D01*
X394624Y237633D01*
X394698Y237540D01*
X394777Y237439D01*
X394851Y237323D01*
X394925Y237203D01*
X394999Y237069D01*
X395063Y236926D01*
X395128Y236773D01*
X395179Y236611D01*
X394347Y236417D01*
X394342Y236427D01*
X394338Y236450D01*
X394324Y236482D01*
X394305Y236533D01*
X394282Y236588D01*
X394254Y236653D01*
X394217Y236727D01*
X394180Y236805D01*
X394139Y236889D01*
X394088Y236972D01*
X394037Y237055D01*
X393977Y237143D01*
X393912Y237222D01*
X393848Y237300D01*
X393773Y237369D01*
X393695Y237434D01*
X393690Y237439D01*
X393676Y237448D01*
X393653Y237462D01*
X393621Y237485D01*
X393579Y237508D01*
X393529Y237536D01*
X393468Y237564D01*
X393404Y237596D01*
X393330Y237624D01*
X393251Y237652D01*
X393163Y237679D01*
X393071Y237702D01*
X392969Y237726D01*
X392863Y237739D01*
X392752Y237749D01*
X392632Y237753D01*
X392562D01*
X392511Y237749D01*
X392447Y237744D01*
X392373Y237735D01*
X392290Y237726D01*
X392202Y237707D01*
X392105Y237689D01*
X392008Y237665D01*
X391906Y237638D01*
X391800Y237605D01*
X391698Y237564D01*
X391596Y237513D01*
X391494Y237462D01*
X391397Y237397D01*
X391393Y237393D01*
X391374Y237383D01*
X391351Y237360D01*
X391319Y237332D01*
X391277Y237295D01*
X391231Y237254D01*
X391180Y237203D01*
X391125Y237148D01*
X391069Y237083D01*
X391009Y237013D01*
X390954Y236935D01*
X390898Y236847D01*
X390843Y236759D01*
X390792Y236662D01*
X390746Y236560D01*
X390704Y236450D01*
Y236445D01*
X390695Y236422D01*
X390686Y236390D01*
X390672Y236348D01*
X390658Y236292D01*
X390639Y236228D01*
X390625Y236154D01*
X390607Y236070D01*
X390588Y235983D01*
X390570Y235886D01*
X390551Y235784D01*
X390538Y235678D01*
X390514Y235456D01*
X390510Y235340D01*
X390505Y235220D01*
Y235211D01*
Y235183D01*
Y235141D01*
X390510Y235081D01*
X390514Y235012D01*
X390519Y234929D01*
X390524Y234836D01*
X390533Y234739D01*
X390547Y234628D01*
X390561Y234513D01*
X390607Y234277D01*
X390630Y234152D01*
X390662Y234032D01*
X390699Y233912D01*
X390741Y233796D01*
X390746Y233792D01*
X390750Y233768D01*
X390764Y233741D01*
X390787Y233699D01*
X390810Y233648D01*
X390843Y233588D01*
X390880Y233523D01*
X390921Y233454D01*
X390972Y233385D01*
X391028Y233311D01*
X391088Y233232D01*
X391152Y233158D01*
X391226Y233084D01*
X391305Y233015D01*
X391388Y232950D01*
X391481Y232890D01*
X391485Y232885D01*
X391504Y232876D01*
X391531Y232862D01*
X391568Y232844D01*
X391615Y232821D01*
X391670Y232793D01*
X391735Y232770D01*
X391804Y232742D01*
X391883Y232710D01*
X391966Y232687D01*
X392058Y232659D01*
X392151Y232636D01*
X392253Y232617D01*
X392354Y232603D01*
X392461Y232594D01*
X392567Y232589D01*
X392599D01*
X392636Y232594D01*
X392687D01*
X392747Y232603D01*
X392817Y232613D01*
X392900Y232622D01*
X392983Y232640D01*
X393075Y232663D01*
X393173Y232691D01*
X393274Y232724D01*
X393376Y232761D01*
X393478Y232807D01*
X393579Y232862D01*
X393676Y232927D01*
X393773Y232996D01*
X393778Y233001D01*
X393797Y233015D01*
X393820Y233038D01*
X393852Y233075D01*
X393894Y233116D01*
X393940Y233167D01*
X393991Y233232D01*
X394042Y233301D01*
X394097Y233385D01*
X394153Y233472D01*
X394213Y233574D01*
X394263Y233685D01*
X394319Y233801D01*
X394365Y233930D01*
X394407Y234064D01*
X394444Y234212D01*
X395290Y234000D01*
Y233995D01*
X395285Y233986D01*
X395281Y233972D01*
X395276Y233953D01*
X395271Y233930D01*
X395262Y233898D01*
X395239Y233828D01*
X395207Y233741D01*
X395170Y233643D01*
X395123Y233533D01*
X395068Y233412D01*
X395008Y233283D01*
X394939Y233153D01*
X394860Y233024D01*
X394772Y232890D01*
X394675Y232761D01*
X394569Y232636D01*
X394453Y232520D01*
X394328Y232409D01*
X394319Y232405D01*
X394296Y232386D01*
X394259Y232358D01*
X394203Y232326D01*
X394139Y232284D01*
X394055Y232238D01*
X393963Y232187D01*
X393857Y232136D01*
X393741Y232086D01*
X393612Y232035D01*
X393473Y231989D01*
X393325Y231947D01*
X393163Y231915D01*
X392997Y231887D01*
X392821Y231868D01*
X392636Y231864D01*
X392567D01*
X392535Y231868D01*
X392465D01*
X392377Y231878D01*
X392276Y231887D01*
X392160Y231901D01*
X392040Y231915D01*
X391906Y231938D01*
X391772Y231965D01*
X391629Y232002D01*
X391490Y232039D01*
X391351Y232090D01*
X391213Y232146D01*
X391078Y232211D01*
X390954Y232284D01*
X390944Y232289D01*
X390926Y232303D01*
X390894Y232331D01*
X390847Y232363D01*
X390792Y232405D01*
X390732Y232460D01*
X390662Y232520D01*
X390588Y232594D01*
X390510Y232677D01*
X390431Y232765D01*
X390348Y232867D01*
X390265Y232973D01*
X390186Y233093D01*
X390108Y233218D01*
X390034Y233357D01*
X389969Y233500D01*
Y233505D01*
X389964Y233510D01*
X389955Y233537D01*
X389937Y233579D01*
X389918Y233639D01*
X389890Y233713D01*
X389863Y233801D01*
X389830Y233902D01*
X389803Y234013D01*
X389770Y234138D01*
X389738Y234272D01*
X389710Y234411D01*
X389682Y234564D01*
X389664Y234716D01*
X389645Y234878D01*
X389636Y235044D01*
X389632Y235215D01*
Y235220D01*
Y235229D01*
Y235243D01*
Y235261D01*
Y235285D01*
X389636Y235312D01*
Y235382D01*
X389645Y235469D01*
X389650Y235571D01*
X389664Y235687D01*
X389678Y235812D01*
X389701Y235941D01*
X389724Y236080D01*
X389756Y236228D01*
X389793Y236376D01*
X389835Y236523D01*
X389886Y236672D01*
X389946Y236815D01*
X390011Y236958D01*
X390015Y236967D01*
X390029Y236990D01*
X390052Y237027D01*
X390080Y237083D01*
X390121Y237143D01*
X390168Y237212D01*
X390228Y237295D01*
X390293Y237379D01*
X390362Y237467D01*
X390445Y237564D01*
X390533Y237656D01*
X390630Y237749D01*
X390736Y237841D01*
X390847Y237929D01*
X390967Y238012D01*
X391097Y238091D01*
X391106Y238095D01*
X391129Y238109D01*
X391166Y238128D01*
X391222Y238151D01*
X391287Y238183D01*
X391365Y238216D01*
X391457Y238248D01*
X391555Y238285D01*
X391665Y238322D01*
X391786Y238354D01*
X391915Y238391D01*
X392049Y238419D01*
X392192Y238442D01*
X392341Y238461D01*
X392493Y238474D01*
X392650Y238479D01*
X392715D01*
X392743Y238474D01*
D02*
G37*
G36*
X404924Y237536D02*
X402363D01*
X402021Y235812D01*
X402025Y235816D01*
X402048Y235830D01*
X402076Y235849D01*
X402122Y235876D01*
X402173Y235904D01*
X402233Y235941D01*
X402307Y235973D01*
X402386Y236015D01*
X402474Y236052D01*
X402566Y236089D01*
X402668Y236121D01*
X402770Y236149D01*
X402880Y236177D01*
X402991Y236195D01*
X403112Y236209D01*
X403227Y236214D01*
X403264D01*
X403310Y236209D01*
X403366Y236205D01*
X403440Y236195D01*
X403523Y236181D01*
X403620Y236163D01*
X403722Y236140D01*
X403828Y236112D01*
X403944Y236070D01*
X404059Y236024D01*
X404179Y235969D01*
X404300Y235900D01*
X404420Y235826D01*
X404535Y235733D01*
X404646Y235631D01*
X404651Y235627D01*
X404669Y235604D01*
X404702Y235571D01*
X404739Y235525D01*
X404780Y235469D01*
X404831Y235400D01*
X404882Y235317D01*
X404938Y235224D01*
X404988Y235123D01*
X405039Y235012D01*
X405090Y234887D01*
X405136Y234758D01*
X405169Y234614D01*
X405201Y234462D01*
X405220Y234305D01*
X405224Y234138D01*
Y234133D01*
Y234129D01*
Y234115D01*
Y234101D01*
X405220Y234055D01*
X405215Y233995D01*
X405210Y233916D01*
X405196Y233828D01*
X405183Y233731D01*
X405159Y233625D01*
X405132Y233510D01*
X405099Y233389D01*
X405058Y233265D01*
X405012Y233140D01*
X404952Y233010D01*
X404882Y232885D01*
X404804Y232761D01*
X404716Y232640D01*
X404706Y232631D01*
X404688Y232608D01*
X404651Y232571D01*
X404605Y232520D01*
X404540Y232460D01*
X404466Y232395D01*
X404378Y232326D01*
X404277Y232252D01*
X404161Y232178D01*
X404036Y232109D01*
X403898Y232044D01*
X403745Y231984D01*
X403583Y231938D01*
X403412Y231896D01*
X403227Y231873D01*
X403033Y231864D01*
X402996D01*
X402950Y231868D01*
X402890Y231873D01*
X402816Y231878D01*
X402728Y231891D01*
X402631Y231905D01*
X402529Y231924D01*
X402418Y231952D01*
X402303Y231984D01*
X402182Y232021D01*
X402062Y232067D01*
X401947Y232123D01*
X401827Y232187D01*
X401716Y232266D01*
X401609Y232349D01*
X401605Y232354D01*
X401586Y232372D01*
X401558Y232400D01*
X401521Y232437D01*
X401480Y232488D01*
X401429Y232548D01*
X401378Y232617D01*
X401323Y232696D01*
X401267Y232784D01*
X401216Y232881D01*
X401161Y232987D01*
X401110Y233103D01*
X401068Y233228D01*
X401031Y233361D01*
X400999Y233500D01*
X400980Y233648D01*
X401803Y233717D01*
Y233713D01*
X401808Y233690D01*
X401813Y233662D01*
X401822Y233620D01*
X401836Y233570D01*
X401850Y233510D01*
X401868Y233445D01*
X401891Y233375D01*
X401947Y233232D01*
X401979Y233153D01*
X402016Y233079D01*
X402062Y233006D01*
X402108Y232936D01*
X402164Y232871D01*
X402224Y232811D01*
X402229Y232807D01*
X402238Y232798D01*
X402256Y232784D01*
X402284Y232765D01*
X402317Y232742D01*
X402358Y232714D01*
X402400Y232691D01*
X402450Y232663D01*
X402506Y232631D01*
X402571Y232608D01*
X402635Y232580D01*
X402709Y232557D01*
X402783Y232539D01*
X402862Y232525D01*
X402945Y232516D01*
X403033Y232511D01*
X403061D01*
X403088Y232516D01*
X403130D01*
X403176Y232525D01*
X403236Y232534D01*
X403301Y232548D01*
X403371Y232566D01*
X403444Y232585D01*
X403523Y232613D01*
X403602Y232650D01*
X403685Y232691D01*
X403763Y232738D01*
X403847Y232798D01*
X403925Y232862D01*
X403999Y232936D01*
X404004Y232941D01*
X404018Y232955D01*
X404036Y232983D01*
X404059Y233015D01*
X404092Y233056D01*
X404124Y233107D01*
X404161Y233167D01*
X404198Y233237D01*
X404230Y233315D01*
X404267Y233398D01*
X404300Y233491D01*
X404332Y233593D01*
X404355Y233704D01*
X404374Y233819D01*
X404388Y233939D01*
X404392Y234069D01*
Y234078D01*
Y234097D01*
X404388Y234133D01*
Y234180D01*
X404383Y234235D01*
X404374Y234305D01*
X404360Y234374D01*
X404346Y234457D01*
X404323Y234540D01*
X404300Y234624D01*
X404267Y234711D01*
X404230Y234804D01*
X404189Y234892D01*
X404138Y234975D01*
X404078Y235058D01*
X404013Y235132D01*
X404008Y235137D01*
X403994Y235151D01*
X403976Y235169D01*
X403944Y235192D01*
X403907Y235224D01*
X403861Y235257D01*
X403810Y235289D01*
X403750Y235326D01*
X403680Y235363D01*
X403606Y235396D01*
X403528Y235432D01*
X403440Y235460D01*
X403343Y235483D01*
X403241Y235502D01*
X403135Y235516D01*
X403024Y235520D01*
X402987D01*
X402959Y235516D01*
X402927D01*
X402885Y235511D01*
X402844Y235506D01*
X402793Y235497D01*
X402686Y235479D01*
X402571Y235446D01*
X402450Y235405D01*
X402335Y235345D01*
X402330D01*
X402321Y235336D01*
X402307Y235326D01*
X402284Y235312D01*
X402229Y235275D01*
X402159Y235224D01*
X402085Y235160D01*
X402007Y235086D01*
X401928Y234998D01*
X401859Y234901D01*
X401119Y234998D01*
X401739Y238285D01*
X404924D01*
Y237536D01*
D02*
G37*
G36*
X398970Y231970D02*
X398184D01*
Y236972D01*
X398179Y236967D01*
X398170Y236958D01*
X398156Y236944D01*
X398133Y236926D01*
X398105Y236903D01*
X398068Y236870D01*
X398027Y236838D01*
X397985Y236801D01*
X397929Y236764D01*
X397874Y236718D01*
X397814Y236676D01*
X397749Y236625D01*
X397675Y236579D01*
X397601Y236528D01*
X397435Y236427D01*
X397430Y236422D01*
X397416Y236413D01*
X397389Y236399D01*
X397356Y236385D01*
X397319Y236362D01*
X397273Y236334D01*
X397217Y236306D01*
X397162Y236274D01*
X397033Y236209D01*
X396894Y236145D01*
X396751Y236080D01*
X396612Y236024D01*
Y236782D01*
X396621Y236787D01*
X396640Y236796D01*
X396677Y236815D01*
X396723Y236838D01*
X396778Y236866D01*
X396848Y236903D01*
X396922Y236944D01*
X397000Y236990D01*
X397088Y237046D01*
X397180Y237101D01*
X397375Y237231D01*
X397574Y237374D01*
X397763Y237531D01*
X397768Y237536D01*
X397786Y237550D01*
X397809Y237573D01*
X397842Y237605D01*
X397883Y237647D01*
X397929Y237693D01*
X397980Y237749D01*
X398036Y237804D01*
X398091Y237869D01*
X398151Y237938D01*
X398267Y238081D01*
X398373Y238234D01*
X398419Y238313D01*
X398461Y238391D01*
X398970D01*
Y231970D01*
D02*
G37*
G36*
X295294Y140499D02*
X295363D01*
X295451Y140490D01*
X295553Y140485D01*
X295668Y140471D01*
X295793Y140458D01*
X295923Y140434D01*
X296061Y140411D01*
X296209Y140379D01*
X296357Y140342D01*
X296505Y140300D01*
X296653Y140250D01*
X296796Y140189D01*
X296940Y140125D01*
X296949Y140120D01*
X296972Y140106D01*
X297009Y140083D01*
X297064Y140055D01*
X297125Y140014D01*
X297194Y139967D01*
X297277Y139907D01*
X297360Y139843D01*
X297448Y139773D01*
X297545Y139690D01*
X297638Y139602D01*
X297730Y139505D01*
X297822Y139399D01*
X297910Y139288D01*
X297994Y139168D01*
X298072Y139038D01*
X298077Y139029D01*
X298091Y139006D01*
X298109Y138969D01*
X298132Y138913D01*
X298165Y138849D01*
X298197Y138770D01*
X298229Y138678D01*
X298266Y138581D01*
X298303Y138470D01*
X298336Y138350D01*
X298373Y138220D01*
X298400Y138086D01*
X298424Y137943D01*
X298442Y137795D01*
X298456Y137642D01*
X298461Y137485D01*
Y137420D01*
X298456Y137393D01*
X298451Y137323D01*
X298447Y137240D01*
X298433Y137148D01*
X298419Y137041D01*
X298400Y136921D01*
X298373Y136796D01*
X298340Y136667D01*
X298303Y136533D01*
X298253Y136399D01*
X298197Y136265D01*
X298132Y136126D01*
X298058Y135997D01*
X297971Y135872D01*
X297966Y135863D01*
X297947Y135844D01*
X297920Y135807D01*
X297878Y135765D01*
X297832Y135710D01*
X297767Y135650D01*
X297698Y135585D01*
X297614Y135511D01*
X297522Y135437D01*
X297420Y135359D01*
X297305Y135285D01*
X297185Y135211D01*
X297050Y135137D01*
X296907Y135072D01*
X296755Y135007D01*
X296593Y134956D01*
X296399Y135788D01*
X296408Y135793D01*
X296431Y135798D01*
X296463Y135812D01*
X296514Y135830D01*
X296570Y135853D01*
X296635Y135881D01*
X296708Y135918D01*
X296787Y135955D01*
X296870Y135997D01*
X296954Y136047D01*
X297037Y136098D01*
X297125Y136158D01*
X297203Y136223D01*
X297282Y136288D01*
X297351Y136362D01*
X297416Y136440D01*
X297420Y136445D01*
X297430Y136459D01*
X297444Y136482D01*
X297467Y136514D01*
X297490Y136556D01*
X297517Y136607D01*
X297545Y136667D01*
X297577Y136732D01*
X297605Y136805D01*
X297633Y136884D01*
X297661Y136972D01*
X297684Y137064D01*
X297707Y137166D01*
X297721Y137272D01*
X297730Y137383D01*
X297735Y137504D01*
Y137573D01*
X297730Y137624D01*
X297726Y137689D01*
X297716Y137762D01*
X297707Y137846D01*
X297689Y137934D01*
X297670Y138031D01*
X297647Y138128D01*
X297619Y138229D01*
X297587Y138336D01*
X297545Y138437D01*
X297494Y138539D01*
X297444Y138641D01*
X297379Y138738D01*
X297374Y138743D01*
X297365Y138761D01*
X297342Y138784D01*
X297314Y138816D01*
X297277Y138858D01*
X297235Y138904D01*
X297185Y138955D01*
X297129Y139011D01*
X297064Y139066D01*
X296995Y139126D01*
X296917Y139182D01*
X296829Y139237D01*
X296741Y139293D01*
X296644Y139344D01*
X296542Y139390D01*
X296431Y139431D01*
X296427D01*
X296403Y139440D01*
X296371Y139450D01*
X296329Y139464D01*
X296274Y139478D01*
X296209Y139496D01*
X296135Y139510D01*
X296052Y139528D01*
X295964Y139547D01*
X295867Y139565D01*
X295765Y139584D01*
X295659Y139598D01*
X295437Y139621D01*
X295322Y139626D01*
X295201Y139630D01*
X295192D01*
X295164D01*
X295123D01*
X295063Y139626D01*
X294993Y139621D01*
X294910Y139616D01*
X294818Y139612D01*
X294721Y139602D01*
X294610Y139588D01*
X294494Y139575D01*
X294258Y139528D01*
X294133Y139505D01*
X294013Y139473D01*
X293893Y139436D01*
X293778Y139394D01*
X293773Y139390D01*
X293750Y139385D01*
X293722Y139371D01*
X293680Y139348D01*
X293630Y139325D01*
X293570Y139293D01*
X293505Y139256D01*
X293435Y139214D01*
X293366Y139163D01*
X293292Y139108D01*
X293214Y139048D01*
X293140Y138983D01*
X293066Y138909D01*
X292996Y138830D01*
X292932Y138747D01*
X292871Y138655D01*
X292867Y138650D01*
X292858Y138631D01*
X292844Y138604D01*
X292825Y138567D01*
X292802Y138521D01*
X292774Y138465D01*
X292751Y138400D01*
X292724Y138331D01*
X292691Y138252D01*
X292668Y138169D01*
X292640Y138077D01*
X292617Y137984D01*
X292599Y137883D01*
X292585Y137781D01*
X292576Y137675D01*
X292571Y137568D01*
Y137536D01*
X292576Y137499D01*
Y137448D01*
X292585Y137388D01*
X292594Y137319D01*
X292603Y137235D01*
X292622Y137152D01*
X292645Y137060D01*
X292673Y136963D01*
X292705Y136861D01*
X292742Y136759D01*
X292788Y136658D01*
X292844Y136556D01*
X292908Y136459D01*
X292978Y136362D01*
X292983Y136357D01*
X292996Y136339D01*
X293020Y136315D01*
X293056Y136283D01*
X293098Y136242D01*
X293149Y136195D01*
X293214Y136145D01*
X293283Y136094D01*
X293366Y136038D01*
X293454Y135983D01*
X293556Y135923D01*
X293667Y135872D01*
X293782Y135816D01*
X293912Y135770D01*
X294046Y135728D01*
X294194Y135691D01*
X293981Y134846D01*
X293976D01*
X293967Y134850D01*
X293953Y134855D01*
X293935Y134859D01*
X293912Y134864D01*
X293879Y134873D01*
X293810Y134896D01*
X293722Y134929D01*
X293625Y134966D01*
X293514Y135012D01*
X293394Y135067D01*
X293265Y135127D01*
X293135Y135197D01*
X293006Y135275D01*
X292871Y135363D01*
X292742Y135460D01*
X292617Y135567D01*
X292502Y135682D01*
X292391Y135807D01*
X292386Y135816D01*
X292368Y135839D01*
X292340Y135876D01*
X292307Y135932D01*
X292266Y135997D01*
X292220Y136080D01*
X292169Y136172D01*
X292118Y136278D01*
X292067Y136394D01*
X292016Y136524D01*
X291970Y136662D01*
X291929Y136810D01*
X291896Y136972D01*
X291868Y137138D01*
X291850Y137314D01*
X291845Y137499D01*
Y137568D01*
X291850Y137601D01*
Y137670D01*
X291859Y137758D01*
X291868Y137859D01*
X291882Y137975D01*
X291896Y138095D01*
X291919Y138229D01*
X291947Y138363D01*
X291984Y138507D01*
X292021Y138645D01*
X292072Y138784D01*
X292127Y138923D01*
X292192Y139057D01*
X292266Y139182D01*
X292271Y139191D01*
X292284Y139209D01*
X292312Y139242D01*
X292344Y139288D01*
X292386Y139344D01*
X292442Y139404D01*
X292502Y139473D01*
X292576Y139547D01*
X292659Y139626D01*
X292747Y139704D01*
X292848Y139787D01*
X292955Y139871D01*
X293075Y139949D01*
X293200Y140028D01*
X293338Y140102D01*
X293482Y140166D01*
X293486D01*
X293491Y140171D01*
X293519Y140180D01*
X293560Y140199D01*
X293620Y140217D01*
X293694Y140245D01*
X293782Y140273D01*
X293884Y140305D01*
X293995Y140333D01*
X294120Y140365D01*
X294254Y140398D01*
X294392Y140425D01*
X294545Y140453D01*
X294697Y140471D01*
X294859Y140490D01*
X295026Y140499D01*
X295197Y140504D01*
X295201D01*
X295211D01*
X295224D01*
X295243D01*
X295266D01*
X295294Y140499D01*
D02*
G37*
G36*
X295067Y134152D02*
X295118D01*
X295178Y134147D01*
X295248D01*
X295317Y134143D01*
X295400Y134134D01*
X295483Y134129D01*
X295576Y134120D01*
X295765Y134101D01*
X295973Y134069D01*
X296191Y134037D01*
X296417Y133990D01*
X296639Y133935D01*
X296861Y133870D01*
X297078Y133792D01*
X297282Y133699D01*
X297379Y133648D01*
X297467Y133593D01*
X297554Y133533D01*
X297638Y133472D01*
X297647Y133463D01*
X297670Y133445D01*
X297707Y133412D01*
X297753Y133362D01*
X297809Y133301D01*
X297869Y133232D01*
X297938Y133144D01*
X298008Y133047D01*
X298072Y132936D01*
X298141Y132816D01*
X298202Y132687D01*
X298257Y132543D01*
X298303Y132386D01*
X298340Y132224D01*
X298363Y132049D01*
X298373Y131864D01*
Y131831D01*
X298368Y131790D01*
Y131739D01*
X298359Y131674D01*
X298349Y131600D01*
X298336Y131517D01*
X298322Y131425D01*
X298299Y131332D01*
X298271Y131230D01*
X298234Y131129D01*
X298192Y131027D01*
X298146Y130921D01*
X298086Y130819D01*
X298021Y130722D01*
X297947Y130630D01*
X297943Y130625D01*
X297929Y130606D01*
X297901Y130583D01*
X297869Y130551D01*
X297827Y130514D01*
X297772Y130472D01*
X297712Y130426D01*
X297642Y130375D01*
X297564Y130324D01*
X297476Y130274D01*
X297379Y130223D01*
X297272Y130181D01*
X297162Y130135D01*
X297041Y130098D01*
X296912Y130070D01*
X296778Y130047D01*
X296718Y130828D01*
X296722D01*
X296736Y130833D01*
X296764Y130837D01*
X296792Y130847D01*
X296833Y130861D01*
X296875Y130870D01*
X296977Y130907D01*
X297083Y130948D01*
X297194Y130999D01*
X297300Y131059D01*
X297346Y131092D01*
X297388Y131129D01*
X297393Y131133D01*
X297402Y131143D01*
X297420Y131161D01*
X297439Y131184D01*
X297467Y131217D01*
X297494Y131254D01*
X297527Y131295D01*
X297559Y131346D01*
X297587Y131402D01*
X297619Y131462D01*
X297647Y131522D01*
X297675Y131591D01*
X297693Y131665D01*
X297712Y131744D01*
X297721Y131827D01*
X297726Y131910D01*
Y131947D01*
X297721Y131975D01*
Y132007D01*
X297716Y132044D01*
X297707Y132086D01*
X297698Y132136D01*
X297675Y132238D01*
X297638Y132349D01*
X297582Y132460D01*
X297550Y132516D01*
X297513Y132571D01*
X297508Y132576D01*
X297499Y132585D01*
X297485Y132608D01*
X297462Y132631D01*
X297434Y132663D01*
X297402Y132701D01*
X297360Y132738D01*
X297314Y132784D01*
X297263Y132830D01*
X297203Y132876D01*
X297138Y132927D01*
X297069Y132973D01*
X296990Y133024D01*
X296907Y133070D01*
X296819Y133117D01*
X296727Y133158D01*
X296722D01*
X296704Y133167D01*
X296672Y133177D01*
X296630Y133190D01*
X296579Y133209D01*
X296514Y133228D01*
X296436Y133246D01*
X296348Y133265D01*
X296251Y133283D01*
X296140Y133306D01*
X296015Y133325D01*
X295886Y133338D01*
X295742Y133352D01*
X295590Y133366D01*
X295423Y133371D01*
X295248Y133375D01*
X295252Y133371D01*
X295266Y133362D01*
X295289Y133348D01*
X295317Y133325D01*
X295354Y133297D01*
X295396Y133265D01*
X295442Y133228D01*
X295493Y133181D01*
X295543Y133135D01*
X295594Y133084D01*
X295701Y132964D01*
X295802Y132835D01*
X295849Y132761D01*
X295890Y132687D01*
X295895Y132682D01*
X295900Y132668D01*
X295909Y132645D01*
X295923Y132617D01*
X295941Y132576D01*
X295960Y132534D01*
X295978Y132483D01*
X295996Y132423D01*
X296015Y132363D01*
X296033Y132294D01*
X296070Y132150D01*
X296094Y131989D01*
X296103Y131905D01*
Y131785D01*
X296098Y131744D01*
X296094Y131693D01*
X296084Y131623D01*
X296070Y131545D01*
X296052Y131457D01*
X296029Y131360D01*
X296001Y131258D01*
X295960Y131152D01*
X295913Y131041D01*
X295858Y130925D01*
X295788Y130814D01*
X295714Y130703D01*
X295622Y130592D01*
X295520Y130486D01*
X295516Y130482D01*
X295493Y130463D01*
X295460Y130435D01*
X295414Y130398D01*
X295359Y130357D01*
X295289Y130310D01*
X295211Y130260D01*
X295118Y130209D01*
X295016Y130158D01*
X294901Y130107D01*
X294781Y130061D01*
X294647Y130019D01*
X294503Y129982D01*
X294355Y129955D01*
X294194Y129936D01*
X294027Y129931D01*
X294023D01*
X294000D01*
X293967D01*
X293925Y129936D01*
X293870Y129941D01*
X293810Y129945D01*
X293741Y129955D01*
X293662Y129964D01*
X293579Y129978D01*
X293491Y129996D01*
X293398Y130015D01*
X293301Y130042D01*
X293204Y130075D01*
X293107Y130107D01*
X293006Y130149D01*
X292908Y130195D01*
X292904Y130200D01*
X292885Y130209D01*
X292858Y130223D01*
X292825Y130241D01*
X292779Y130269D01*
X292728Y130301D01*
X292677Y130338D01*
X292617Y130380D01*
X292553Y130431D01*
X292488Y130482D01*
X292423Y130542D01*
X292358Y130606D01*
X292294Y130671D01*
X292229Y130745D01*
X292174Y130824D01*
X292118Y130907D01*
X292113Y130912D01*
X292104Y130925D01*
X292095Y130953D01*
X292076Y130985D01*
X292053Y131032D01*
X292030Y131082D01*
X292007Y131138D01*
X291984Y131207D01*
X291956Y131277D01*
X291933Y131355D01*
X291910Y131443D01*
X291887Y131531D01*
X291868Y131628D01*
X291859Y131725D01*
X291850Y131831D01*
X291845Y131938D01*
Y131979D01*
X291850Y132002D01*
Y132030D01*
X291854Y132100D01*
X291868Y132183D01*
X291882Y132280D01*
X291905Y132386D01*
X291938Y132506D01*
X291975Y132631D01*
X292021Y132761D01*
X292081Y132890D01*
X292150Y133024D01*
X292234Y133158D01*
X292331Y133292D01*
X292442Y133417D01*
X292566Y133537D01*
X292576Y133542D01*
X292599Y133565D01*
X292645Y133593D01*
X292705Y133634D01*
X292784Y133680D01*
X292830Y133708D01*
X292881Y133731D01*
X292936Y133759D01*
X292996Y133787D01*
X293066Y133819D01*
X293135Y133847D01*
X293209Y133875D01*
X293288Y133902D01*
X293375Y133935D01*
X293463Y133962D01*
X293560Y133986D01*
X293657Y134013D01*
X293764Y134037D01*
X293875Y134060D01*
X293990Y134083D01*
X294110Y134101D01*
X294235Y134115D01*
X294365Y134129D01*
X294503Y134143D01*
X294642Y134147D01*
X294790Y134157D01*
X294942D01*
X294947D01*
X294966D01*
X294989D01*
X295026D01*
X295067Y134152D01*
D02*
G37*
G36*
X38479Y133361D02*
X38475Y133296D01*
Y133231D01*
X38470Y133157D01*
X38465Y133000D01*
X38451Y132838D01*
X38438Y132681D01*
X38424Y132607D01*
X38414Y132542D01*
Y132538D01*
X38410Y132519D01*
X38405Y132496D01*
X38400Y132464D01*
X38391Y132422D01*
X38377Y132376D01*
X38364Y132325D01*
X38350Y132265D01*
X38308Y132140D01*
X38253Y132011D01*
X38193Y131877D01*
X38114Y131752D01*
X38109Y131747D01*
X38105Y131738D01*
X38091Y131720D01*
X38072Y131701D01*
X38054Y131673D01*
X38026Y131641D01*
X37994Y131604D01*
X37957Y131567D01*
X37915Y131530D01*
X37869Y131489D01*
X37763Y131401D01*
X37638Y131318D01*
X37499Y131239D01*
X37494Y131234D01*
X37481Y131230D01*
X37457Y131220D01*
X37430Y131207D01*
X37393Y131193D01*
X37346Y131179D01*
X37296Y131160D01*
X37240Y131142D01*
X37180Y131123D01*
X37111Y131105D01*
X37041Y131091D01*
X36963Y131077D01*
X36801Y131054D01*
X36625Y131045D01*
X36616D01*
X36588D01*
X36547Y131049D01*
X36491Y131054D01*
X36417Y131059D01*
X36339Y131073D01*
X36246Y131086D01*
X36149Y131109D01*
X36043Y131137D01*
X35932Y131174D01*
X35816Y131216D01*
X35701Y131267D01*
X35585Y131327D01*
X35470Y131396D01*
X35354Y131475D01*
X35248Y131567D01*
X35243Y131572D01*
X35225Y131590D01*
X35197Y131623D01*
X35160Y131669D01*
X35118Y131729D01*
X35068Y131803D01*
X35017Y131891D01*
X34966Y131997D01*
X34915Y132117D01*
X34864Y132251D01*
X34813Y132408D01*
X34772Y132575D01*
X34735Y132764D01*
X34721Y132866D01*
X34707Y132972D01*
X34698Y133083D01*
X34688Y133199D01*
X34684Y133319D01*
Y135080D01*
X32081D01*
Y135926D01*
X38479D01*
Y133361D01*
D02*
G37*
G36*
Y129681D02*
X34282Y128710D01*
X34272D01*
X34254Y128701D01*
X34217Y128696D01*
X34171Y128682D01*
X34111Y128669D01*
X34041Y128655D01*
X33958Y128636D01*
X33870Y128618D01*
X33778Y128595D01*
X33676Y128576D01*
X33565Y128553D01*
X33454Y128530D01*
X33218Y128484D01*
X32973Y128438D01*
X32978D01*
X32987Y128433D01*
X33001D01*
X33020Y128428D01*
X33043Y128419D01*
X33070Y128414D01*
X33135Y128400D01*
X33218Y128377D01*
X33306Y128359D01*
X33403Y128336D01*
X33505Y128308D01*
X33713Y128257D01*
X33815Y128234D01*
X33907Y128211D01*
X33990Y128188D01*
X34060Y128174D01*
X34120Y128155D01*
X34138Y128151D01*
X34157Y128146D01*
X38479Y126935D01*
Y125913D01*
X35238Y124998D01*
X35234D01*
X35225Y124993D01*
X35206Y124989D01*
X35183Y124984D01*
X35155Y124975D01*
X35118Y124966D01*
X35081Y124957D01*
X35035Y124943D01*
X34984Y124929D01*
X34929Y124915D01*
X34799Y124882D01*
X34661Y124846D01*
X34504Y124809D01*
X34332Y124767D01*
X34157Y124725D01*
X33967Y124684D01*
X33773Y124642D01*
X33375Y124564D01*
X32973Y124499D01*
X32983D01*
X33001Y124494D01*
X33033Y124485D01*
X33080Y124476D01*
X33140Y124462D01*
X33205Y124448D01*
X33288Y124430D01*
X33375Y124411D01*
X33473Y124388D01*
X33579Y124365D01*
X33695Y124342D01*
X33815Y124309D01*
X33944Y124282D01*
X34078Y124249D01*
X34221Y124217D01*
X34365Y124180D01*
X38479Y123177D01*
Y122322D01*
X32081Y124078D01*
Y124901D01*
X36954Y126237D01*
X36963D01*
X36981Y126246D01*
X37009Y126256D01*
X37051Y126265D01*
X37102Y126279D01*
X37152Y126292D01*
X37213Y126311D01*
X37277Y126329D01*
X37407Y126366D01*
X37467Y126380D01*
X37527Y126399D01*
X37582Y126413D01*
X37629Y126426D01*
X37670Y126436D01*
X37703Y126445D01*
X37698D01*
X37684Y126450D01*
X37661Y126454D01*
X37629Y126463D01*
X37592Y126473D01*
X37545Y126482D01*
X37499Y126496D01*
X37444Y126510D01*
X37328Y126538D01*
X37203Y126570D01*
X37074Y126602D01*
X36954Y126635D01*
X32081Y127980D01*
Y128858D01*
X38479Y130546D01*
Y129681D01*
D02*
G37*
G36*
Y120292D02*
X33949Y118776D01*
X33939Y118771D01*
X33921Y118767D01*
X33889Y118757D01*
X33847Y118743D01*
X33792Y118725D01*
X33732Y118707D01*
X33667Y118683D01*
X33593Y118660D01*
X33440Y118609D01*
X33283Y118559D01*
X33205Y118535D01*
X33131Y118512D01*
X33066Y118489D01*
X33001Y118471D01*
X33006D01*
X33020Y118466D01*
X33038Y118457D01*
X33066Y118448D01*
X33103Y118438D01*
X33149Y118425D01*
X33200Y118406D01*
X33260Y118387D01*
X33329Y118364D01*
X33403Y118337D01*
X33486Y118309D01*
X33579Y118281D01*
X33681Y118244D01*
X33787Y118212D01*
X33902Y118170D01*
X34027Y118129D01*
X38479Y116594D01*
Y115452D01*
X32081D01*
Y116270D01*
X37434D01*
X32081Y118133D01*
Y118901D01*
X37527Y120745D01*
X32081D01*
Y121563D01*
X38479D01*
Y120292D01*
D02*
G37*
G36*
X36898Y113802D02*
X36907Y113783D01*
X36926Y113746D01*
X36949Y113700D01*
X36977Y113645D01*
X37014Y113575D01*
X37055Y113501D01*
X37102Y113423D01*
X37157Y113335D01*
X37213Y113242D01*
X37342Y113048D01*
X37485Y112849D01*
X37642Y112660D01*
X37647Y112655D01*
X37661Y112637D01*
X37684Y112614D01*
X37716Y112581D01*
X37758Y112540D01*
X37804Y112493D01*
X37860Y112443D01*
X37915Y112387D01*
X37980Y112332D01*
X38049Y112271D01*
X38193Y112156D01*
X38345Y112050D01*
X38424Y112003D01*
X38502Y111962D01*
Y111453D01*
X32081D01*
Y112239D01*
X37083D01*
X37078Y112244D01*
X37069Y112253D01*
X37055Y112267D01*
X37037Y112290D01*
X37014Y112318D01*
X36981Y112355D01*
X36949Y112396D01*
X36912Y112438D01*
X36875Y112493D01*
X36829Y112549D01*
X36787Y112609D01*
X36736Y112674D01*
X36690Y112748D01*
X36639Y112822D01*
X36537Y112988D01*
X36533Y112993D01*
X36524Y113007D01*
X36510Y113034D01*
X36496Y113067D01*
X36473Y113104D01*
X36445Y113150D01*
X36417Y113205D01*
X36385Y113261D01*
X36320Y113390D01*
X36256Y113529D01*
X36191Y113672D01*
X36135Y113811D01*
X36893D01*
X36898Y113802D01*
D02*
G37*
G36*
X528418Y164180D02*
X523416D01*
X523421Y164175D01*
X523430Y164166D01*
X523444Y164152D01*
X523463Y164129D01*
X523486Y164102D01*
X523518Y164065D01*
X523550Y164023D01*
X523587Y163981D01*
X523624Y163926D01*
X523671Y163870D01*
X523712Y163810D01*
X523763Y163746D01*
X523809Y163672D01*
X523860Y163598D01*
X523962Y163431D01*
X523967Y163427D01*
X523976Y163413D01*
X523990Y163385D01*
X524003Y163353D01*
X524027Y163316D01*
X524054Y163270D01*
X524082Y163214D01*
X524114Y163158D01*
X524179Y163029D01*
X524244Y162890D01*
X524309Y162747D01*
X524364Y162608D01*
X523606D01*
X523601Y162618D01*
X523592Y162636D01*
X523574Y162673D01*
X523550Y162719D01*
X523523Y162775D01*
X523486Y162844D01*
X523444Y162918D01*
X523398Y162997D01*
X523343Y163085D01*
X523287Y163177D01*
X523158Y163371D01*
X523014Y163570D01*
X522857Y163759D01*
X522853Y163764D01*
X522839Y163783D01*
X522816Y163806D01*
X522783Y163838D01*
X522742Y163880D01*
X522695Y163926D01*
X522640Y163977D01*
X522584Y164032D01*
X522520Y164088D01*
X522450Y164148D01*
X522307Y164263D01*
X522154Y164370D01*
X522076Y164416D01*
X521997Y164457D01*
Y164966D01*
X528418D01*
Y164180D01*
D02*
G37*
G36*
X526643Y161157D02*
X526680D01*
X526726Y161152D01*
X526782Y161148D01*
X526837Y161138D01*
X526967Y161115D01*
X527110Y161078D01*
X527258Y161032D01*
X527406Y160967D01*
X527411D01*
X527424Y160958D01*
X527443Y160949D01*
X527471Y160935D01*
X527503Y160917D01*
X527540Y160893D01*
X527623Y160838D01*
X527720Y160769D01*
X527817Y160690D01*
X527914Y160602D01*
X527998Y160500D01*
Y160496D01*
X528007Y160487D01*
X528016Y160473D01*
X528030Y160450D01*
X528049Y160422D01*
X528067Y160389D01*
X528090Y160352D01*
X528113Y160311D01*
X528141Y160260D01*
X528164Y160209D01*
X528219Y160089D01*
X528266Y159955D01*
X528312Y159802D01*
Y159798D01*
X528317Y159784D01*
X528321Y159761D01*
X528330Y159728D01*
X528335Y159687D01*
X528344Y159636D01*
X528354Y159580D01*
X528363Y159516D01*
X528377Y159446D01*
X528386Y159368D01*
X528395Y159280D01*
X528400Y159192D01*
X528409Y159095D01*
X528414Y158993D01*
X528418Y158882D01*
Y156335D01*
X522020D01*
Y158799D01*
X522025Y158850D01*
Y158915D01*
X522030Y158984D01*
X522039Y159067D01*
X522043Y159151D01*
X522057Y159243D01*
X522067Y159340D01*
X522104Y159534D01*
X522154Y159728D01*
X522182Y159821D01*
X522219Y159904D01*
Y159909D01*
X522228Y159923D01*
X522238Y159946D01*
X522256Y159978D01*
X522275Y160015D01*
X522302Y160057D01*
X522330Y160107D01*
X522367Y160158D01*
X522404Y160214D01*
X522450Y160269D01*
X522496Y160325D01*
X522552Y160385D01*
X522612Y160440D01*
X522672Y160496D01*
X522742Y160547D01*
X522816Y160597D01*
X522820Y160602D01*
X522834Y160607D01*
X522857Y160621D01*
X522885Y160639D01*
X522922Y160658D01*
X522968Y160676D01*
X523014Y160699D01*
X523070Y160727D01*
X523134Y160750D01*
X523199Y160773D01*
X523343Y160810D01*
X523500Y160842D01*
X523578Y160847D01*
X523661Y160852D01*
X523666D01*
X523680D01*
X523703D01*
X523731Y160847D01*
X523768D01*
X523809Y160838D01*
X523860Y160833D01*
X523911Y160824D01*
X524031Y160796D01*
X524161Y160755D01*
X524230Y160732D01*
X524295Y160699D01*
X524364Y160667D01*
X524434Y160625D01*
X524438Y160621D01*
X524447Y160616D01*
X524466Y160602D01*
X524494Y160584D01*
X524526Y160560D01*
X524558Y160533D01*
X524600Y160496D01*
X524641Y160459D01*
X524688Y160413D01*
X524734Y160366D01*
X524780Y160311D01*
X524831Y160251D01*
X524882Y160181D01*
X524928Y160112D01*
X524974Y160038D01*
X525016Y159955D01*
Y159959D01*
X525025Y159983D01*
X525034Y160010D01*
X525048Y160052D01*
X525067Y160098D01*
X525090Y160154D01*
X525118Y160218D01*
X525155Y160283D01*
X525192Y160357D01*
X525233Y160431D01*
X525279Y160505D01*
X525335Y160579D01*
X525390Y160648D01*
X525455Y160722D01*
X525524Y160787D01*
X525598Y160847D01*
X525603Y160852D01*
X525617Y160861D01*
X525640Y160875D01*
X525672Y160898D01*
X525709Y160921D01*
X525756Y160949D01*
X525811Y160977D01*
X525871Y161004D01*
X525941Y161032D01*
X526015Y161064D01*
X526093Y161087D01*
X526181Y161111D01*
X526269Y161134D01*
X526366Y161148D01*
X526463Y161157D01*
X526565Y161161D01*
X526569D01*
X526583D01*
X526611D01*
X526643Y161157D01*
D02*
G37*
G36*
X527535Y155110D02*
X527554Y155092D01*
X527577Y155059D01*
X527614Y155013D01*
X527651Y154953D01*
X527702Y154888D01*
X527753Y154810D01*
X527808Y154726D01*
X527868Y154629D01*
X527928Y154532D01*
X527993Y154426D01*
X528053Y154311D01*
X528173Y154075D01*
X528224Y153954D01*
X528275Y153830D01*
X528280Y153820D01*
X528284Y153802D01*
X528298Y153765D01*
X528312Y153714D01*
X528330Y153654D01*
X528354Y153585D01*
X528377Y153502D01*
X528400Y153414D01*
X528423Y153312D01*
X528446Y153206D01*
X528465Y153095D01*
X528488Y152979D01*
X528515Y152730D01*
X528520Y152600D01*
X528525Y152471D01*
Y152406D01*
X528520Y152378D01*
Y152313D01*
X528511Y152230D01*
X528502Y152133D01*
X528492Y152022D01*
X528474Y151902D01*
X528451Y151773D01*
X528428Y151638D01*
X528395Y151495D01*
X528354Y151347D01*
X528307Y151199D01*
X528256Y151051D01*
X528192Y150904D01*
X528122Y150756D01*
X528118Y150746D01*
X528104Y150723D01*
X528081Y150682D01*
X528049Y150631D01*
X528007Y150566D01*
X527956Y150492D01*
X527896Y150409D01*
X527827Y150321D01*
X527748Y150229D01*
X527660Y150132D01*
X527568Y150034D01*
X527461Y149937D01*
X527346Y149845D01*
X527226Y149752D01*
X527096Y149669D01*
X526958Y149591D01*
X526948Y149586D01*
X526921Y149572D01*
X526879Y149554D01*
X526824Y149530D01*
X526749Y149503D01*
X526666Y149466D01*
X526565Y149433D01*
X526458Y149396D01*
X526333Y149360D01*
X526204Y149327D01*
X526065Y149295D01*
X525913Y149262D01*
X525756Y149239D01*
X525594Y149221D01*
X525427Y149207D01*
X525252Y149202D01*
X525247D01*
X525243D01*
X525229D01*
X525210D01*
X525187D01*
X525159Y149207D01*
X525094D01*
X525011Y149216D01*
X524914Y149221D01*
X524803Y149235D01*
X524683Y149253D01*
X524554Y149272D01*
X524415Y149299D01*
X524272Y149327D01*
X524124Y149364D01*
X523971Y149410D01*
X523814Y149461D01*
X523661Y149521D01*
X523509Y149591D01*
X523504D01*
X523500Y149595D01*
X523472Y149609D01*
X523430Y149632D01*
X523375Y149665D01*
X523310Y149702D01*
X523232Y149752D01*
X523144Y149812D01*
X523051Y149877D01*
X522954Y149951D01*
X522857Y150034D01*
X522755Y150127D01*
X522658Y150229D01*
X522561Y150339D01*
X522469Y150455D01*
X522381Y150580D01*
X522302Y150714D01*
X522298Y150723D01*
X522284Y150746D01*
X522265Y150788D01*
X522242Y150843D01*
X522210Y150913D01*
X522178Y150996D01*
X522141Y151093D01*
X522104Y151199D01*
X522071Y151320D01*
X522034Y151449D01*
X522002Y151588D01*
X521969Y151736D01*
X521946Y151893D01*
X521928Y152055D01*
X521914Y152226D01*
X521909Y152401D01*
Y152471D01*
X521914Y152517D01*
Y152582D01*
X521923Y152651D01*
X521928Y152730D01*
X521937Y152817D01*
X521951Y152914D01*
X521965Y153012D01*
X522006Y153224D01*
X522030Y153330D01*
X522062Y153441D01*
X522094Y153548D01*
X522136Y153654D01*
X522141Y153659D01*
X522145Y153677D01*
X522159Y153709D01*
X522178Y153747D01*
X522201Y153793D01*
X522228Y153848D01*
X522261Y153908D01*
X522298Y153978D01*
X522344Y154047D01*
X522390Y154116D01*
X522496Y154264D01*
X522621Y154408D01*
X522691Y154477D01*
X522765Y154537D01*
X522769Y154542D01*
X522783Y154551D01*
X522806Y154569D01*
X522839Y154588D01*
X522876Y154616D01*
X522926Y154648D01*
X522982Y154680D01*
X523047Y154717D01*
X523116Y154754D01*
X523199Y154796D01*
X523282Y154838D01*
X523375Y154874D01*
X523477Y154916D01*
X523583Y154953D01*
X523694Y154990D01*
X523814Y155022D01*
X524022Y154260D01*
X524017D01*
X523999Y154255D01*
X523976Y154246D01*
X523939Y154232D01*
X523902Y154218D01*
X523851Y154204D01*
X523800Y154181D01*
X523740Y154163D01*
X523620Y154107D01*
X523490Y154047D01*
X523366Y153978D01*
X523310Y153941D01*
X523255Y153899D01*
X523250Y153894D01*
X523241Y153890D01*
X523227Y153876D01*
X523208Y153862D01*
X523185Y153839D01*
X523158Y153811D01*
X523125Y153779D01*
X523093Y153742D01*
X523056Y153700D01*
X523019Y153659D01*
X522945Y153552D01*
X522871Y153427D01*
X522806Y153289D01*
Y153284D01*
X522797Y153270D01*
X522792Y153247D01*
X522779Y153219D01*
X522765Y153182D01*
X522751Y153136D01*
X522737Y153085D01*
X522718Y153030D01*
X522705Y152970D01*
X522691Y152900D01*
X522677Y152827D01*
X522663Y152753D01*
X522644Y152586D01*
X522635Y152410D01*
Y152355D01*
X522640Y152313D01*
Y152263D01*
X522644Y152203D01*
X522649Y152138D01*
X522658Y152068D01*
X522668Y151990D01*
X522677Y151907D01*
X522709Y151740D01*
X522755Y151569D01*
X522816Y151403D01*
Y151398D01*
X522825Y151384D01*
X522834Y151361D01*
X522848Y151333D01*
X522866Y151296D01*
X522885Y151255D01*
X522913Y151209D01*
X522940Y151162D01*
X523005Y151051D01*
X523088Y150941D01*
X523181Y150825D01*
X523282Y150723D01*
X523287Y150719D01*
X523296Y150714D01*
X523310Y150700D01*
X523333Y150682D01*
X523361Y150659D01*
X523389Y150635D01*
X523426Y150608D01*
X523467Y150575D01*
X523560Y150511D01*
X523666Y150441D01*
X523786Y150377D01*
X523911Y150316D01*
X523916Y150312D01*
X523939Y150307D01*
X523971Y150293D01*
X524013Y150279D01*
X524068Y150261D01*
X524133Y150242D01*
X524212Y150219D01*
X524295Y150196D01*
X524387Y150173D01*
X524484Y150150D01*
X524591Y150132D01*
X524706Y150113D01*
X524822Y150099D01*
X524947Y150085D01*
X525071Y150081D01*
X525201Y150076D01*
X525205D01*
X525210D01*
X525238D01*
X525284D01*
X525344Y150081D01*
X525418Y150085D01*
X525501Y150090D01*
X525598Y150099D01*
X525700Y150113D01*
X525811Y150127D01*
X525927Y150145D01*
X526047Y150173D01*
X526167Y150201D01*
X526287Y150233D01*
X526407Y150270D01*
X526523Y150316D01*
X526634Y150367D01*
X526638Y150372D01*
X526657Y150381D01*
X526689Y150400D01*
X526726Y150423D01*
X526777Y150455D01*
X526828Y150492D01*
X526888Y150534D01*
X526953Y150584D01*
X527022Y150645D01*
X527092Y150709D01*
X527165Y150779D01*
X527235Y150857D01*
X527304Y150941D01*
X527369Y151028D01*
X527429Y151125D01*
X527485Y151227D01*
X527489Y151232D01*
X527498Y151255D01*
X527512Y151283D01*
X527526Y151324D01*
X527549Y151375D01*
X527572Y151440D01*
X527595Y151509D01*
X527623Y151588D01*
X527651Y151676D01*
X527674Y151768D01*
X527697Y151865D01*
X527720Y151967D01*
X527734Y152078D01*
X527748Y152189D01*
X527757Y152304D01*
X527762Y152420D01*
Y152475D01*
X527757Y152512D01*
Y152563D01*
X527753Y152623D01*
X527743Y152688D01*
X527734Y152762D01*
X527725Y152840D01*
X527711Y152924D01*
X527674Y153104D01*
X527623Y153298D01*
X527591Y153395D01*
X527554Y153492D01*
X527549Y153497D01*
X527545Y153515D01*
X527531Y153543D01*
X527517Y153580D01*
X527498Y153622D01*
X527475Y153673D01*
X527448Y153728D01*
X527415Y153788D01*
X527351Y153918D01*
X527272Y154052D01*
X527189Y154181D01*
X527147Y154236D01*
X527101Y154292D01*
X525908D01*
Y152410D01*
X525155D01*
Y155119D01*
X527531D01*
X527535Y155110D01*
D02*
G37*
G36*
X528418Y147543D02*
X527087Y146697D01*
X527082Y146692D01*
X527064Y146678D01*
X527032Y146660D01*
X526995Y146637D01*
X526944Y146604D01*
X526888Y146567D01*
X526828Y146526D01*
X526763Y146484D01*
X526620Y146387D01*
X526472Y146285D01*
X526333Y146184D01*
X526269Y146133D01*
X526209Y146087D01*
X526204Y146082D01*
X526195Y146077D01*
X526181Y146063D01*
X526158Y146045D01*
X526102Y145999D01*
X526038Y145943D01*
X525968Y145874D01*
X525894Y145805D01*
X525830Y145731D01*
X525779Y145657D01*
X525774Y145647D01*
X525760Y145624D01*
X525737Y145587D01*
X525714Y145536D01*
X525686Y145481D01*
X525654Y145416D01*
X525631Y145347D01*
X525608Y145273D01*
Y145268D01*
X525603Y145245D01*
X525598Y145208D01*
X525589Y145162D01*
X525584Y145097D01*
X525580Y145014D01*
X525575Y144917D01*
Y143821D01*
X528418D01*
Y142975D01*
X522020D01*
Y145892D01*
X522025Y145948D01*
Y146022D01*
X522030Y146105D01*
X522034Y146193D01*
X522043Y146295D01*
X522053Y146396D01*
X522062Y146503D01*
X522094Y146720D01*
X522113Y146822D01*
X522136Y146923D01*
X522164Y147020D01*
X522196Y147108D01*
Y147113D01*
X522205Y147127D01*
X522215Y147150D01*
X522228Y147182D01*
X522247Y147219D01*
X522275Y147261D01*
X522302Y147312D01*
X522335Y147362D01*
X522376Y147418D01*
X522418Y147478D01*
X522469Y147538D01*
X522524Y147598D01*
X522589Y147654D01*
X522654Y147714D01*
X522728Y147769D01*
X522806Y147820D01*
X522811Y147825D01*
X522825Y147834D01*
X522848Y147843D01*
X522880Y147862D01*
X522922Y147880D01*
X522973Y147903D01*
X523028Y147931D01*
X523088Y147954D01*
X523158Y147977D01*
X523232Y148005D01*
X523310Y148028D01*
X523393Y148047D01*
X523481Y148065D01*
X523574Y148079D01*
X523671Y148084D01*
X523768Y148088D01*
X523777D01*
X523796D01*
X523833Y148084D01*
X523883D01*
X523939Y148074D01*
X524008Y148065D01*
X524082Y148051D01*
X524165Y148033D01*
X524253Y148010D01*
X524346Y147982D01*
X524443Y147945D01*
X524540Y147903D01*
X524637Y147852D01*
X524729Y147792D01*
X524826Y147723D01*
X524914Y147644D01*
X524919Y147640D01*
X524933Y147626D01*
X524956Y147598D01*
X524988Y147561D01*
X525025Y147515D01*
X525067Y147455D01*
X525113Y147390D01*
X525164Y147312D01*
X525215Y147219D01*
X525266Y147122D01*
X525312Y147007D01*
X525363Y146886D01*
X525404Y146752D01*
X525446Y146609D01*
X525478Y146452D01*
X525506Y146285D01*
Y146290D01*
X525515Y146299D01*
X525520Y146318D01*
X525534Y146341D01*
X525548Y146369D01*
X525566Y146401D01*
X525608Y146475D01*
X525654Y146558D01*
X525709Y146641D01*
X525765Y146720D01*
X525825Y146794D01*
X525830Y146798D01*
X525839Y146812D01*
X525862Y146831D01*
X525885Y146859D01*
X525922Y146891D01*
X525959Y146928D01*
X526005Y146974D01*
X526061Y147020D01*
X526121Y147071D01*
X526185Y147127D01*
X526255Y147187D01*
X526329Y147247D01*
X526412Y147307D01*
X526495Y147372D01*
X526680Y147497D01*
X528418Y148601D01*
Y147543D01*
D02*
G37*
G36*
X266146Y103753D02*
X264814Y102907D01*
X264810Y102903D01*
X264791Y102889D01*
X264759Y102871D01*
X264722Y102847D01*
X264671Y102815D01*
X264616Y102778D01*
X264556Y102736D01*
X264491Y102695D01*
X264348Y102598D01*
X264200Y102496D01*
X264061Y102394D01*
X263996Y102344D01*
X263936Y102297D01*
X263932Y102293D01*
X263922Y102288D01*
X263908Y102274D01*
X263885Y102256D01*
X263830Y102209D01*
X263765Y102154D01*
X263696Y102085D01*
X263622Y102015D01*
X263557Y101941D01*
X263506Y101867D01*
X263502Y101858D01*
X263488Y101835D01*
X263465Y101798D01*
X263442Y101747D01*
X263414Y101692D01*
X263381Y101627D01*
X263358Y101558D01*
X263335Y101484D01*
Y101479D01*
X263331Y101456D01*
X263326Y101419D01*
X263317Y101373D01*
X263312Y101308D01*
X263307Y101225D01*
X263303Y101128D01*
Y100032D01*
X266146D01*
Y99186D01*
X259748D01*
Y102103D01*
X259753Y102159D01*
Y102233D01*
X259757Y102316D01*
X259762Y102404D01*
X259771Y102505D01*
X259780Y102607D01*
X259790Y102713D01*
X259822Y102931D01*
X259840Y103032D01*
X259863Y103134D01*
X259891Y103231D01*
X259924Y103319D01*
Y103323D01*
X259933Y103337D01*
X259942Y103361D01*
X259956Y103393D01*
X259974Y103430D01*
X260002Y103471D01*
X260030Y103522D01*
X260062Y103573D01*
X260104Y103629D01*
X260145Y103689D01*
X260196Y103749D01*
X260252Y103809D01*
X260317Y103864D01*
X260381Y103925D01*
X260455Y103980D01*
X260534Y104031D01*
X260538Y104036D01*
X260552Y104045D01*
X260575Y104054D01*
X260608Y104072D01*
X260649Y104091D01*
X260700Y104114D01*
X260756Y104142D01*
X260816Y104165D01*
X260885Y104188D01*
X260959Y104216D01*
X261038Y104239D01*
X261121Y104257D01*
X261209Y104276D01*
X261301Y104290D01*
X261398Y104294D01*
X261495Y104299D01*
X261505D01*
X261523D01*
X261560Y104294D01*
X261611D01*
X261666Y104285D01*
X261736Y104276D01*
X261810Y104262D01*
X261893Y104243D01*
X261981Y104220D01*
X262073Y104193D01*
X262170Y104156D01*
X262267Y104114D01*
X262364Y104063D01*
X262457Y104003D01*
X262554Y103934D01*
X262642Y103855D01*
X262646Y103850D01*
X262660Y103837D01*
X262683Y103809D01*
X262716Y103772D01*
X262753Y103726D01*
X262794Y103666D01*
X262841Y103601D01*
X262891Y103522D01*
X262942Y103430D01*
X262993Y103333D01*
X263039Y103217D01*
X263090Y103097D01*
X263132Y102963D01*
X263173Y102820D01*
X263206Y102662D01*
X263234Y102496D01*
Y102501D01*
X263243Y102510D01*
X263247Y102528D01*
X263261Y102551D01*
X263275Y102579D01*
X263294Y102612D01*
X263335Y102686D01*
X263381Y102769D01*
X263437Y102852D01*
X263492Y102931D01*
X263552Y103005D01*
X263557Y103009D01*
X263566Y103023D01*
X263589Y103042D01*
X263613Y103069D01*
X263650Y103102D01*
X263687Y103139D01*
X263733Y103185D01*
X263788Y103231D01*
X263848Y103282D01*
X263913Y103337D01*
X263982Y103398D01*
X264056Y103458D01*
X264140Y103518D01*
X264223Y103582D01*
X264408Y103707D01*
X266146Y104812D01*
Y103753D01*
D02*
G37*
G36*
Y96630D02*
Y95807D01*
X261273Y94471D01*
X261264D01*
X261246Y94462D01*
X261218Y94452D01*
X261176Y94443D01*
X261126Y94429D01*
X261075Y94415D01*
X261015Y94397D01*
X260950Y94378D01*
X260820Y94341D01*
X260760Y94328D01*
X260700Y94309D01*
X260645Y94295D01*
X260599Y94281D01*
X260557Y94272D01*
X260525Y94263D01*
X260529D01*
X260543Y94258D01*
X260566Y94254D01*
X260599Y94244D01*
X260636Y94235D01*
X260682Y94226D01*
X260728Y94212D01*
X260783Y94198D01*
X260899Y94170D01*
X261024Y94138D01*
X261153Y94106D01*
X261273Y94073D01*
X266146Y92728D01*
Y91850D01*
X259748Y90162D01*
Y91027D01*
X263945Y91998D01*
X263955D01*
X263973Y92007D01*
X264010Y92012D01*
X264056Y92025D01*
X264116Y92039D01*
X264186Y92053D01*
X264269Y92072D01*
X264357Y92090D01*
X264449Y92113D01*
X264551Y92132D01*
X264662Y92155D01*
X264773Y92178D01*
X265009Y92224D01*
X265254Y92270D01*
X265249D01*
X265240Y92275D01*
X265226D01*
X265207Y92280D01*
X265184Y92289D01*
X265157Y92294D01*
X265092Y92307D01*
X265009Y92331D01*
X264921Y92349D01*
X264824Y92372D01*
X264722Y92400D01*
X264514Y92451D01*
X264412Y92474D01*
X264320Y92497D01*
X264237Y92520D01*
X264167Y92534D01*
X264107Y92552D01*
X264089Y92557D01*
X264070Y92562D01*
X259748Y93773D01*
Y94795D01*
X262988Y95710D01*
X262993D01*
X263002Y95714D01*
X263021Y95719D01*
X263044Y95724D01*
X263072Y95733D01*
X263109Y95742D01*
X263146Y95751D01*
X263192Y95765D01*
X263243Y95779D01*
X263298Y95793D01*
X263428Y95825D01*
X263566Y95862D01*
X263724Y95899D01*
X263895Y95941D01*
X264070Y95983D01*
X264260Y96024D01*
X264454Y96066D01*
X264851Y96144D01*
X265254Y96209D01*
X265244D01*
X265226Y96214D01*
X265194Y96223D01*
X265147Y96232D01*
X265087Y96246D01*
X265023Y96260D01*
X264939Y96278D01*
X264851Y96297D01*
X264754Y96320D01*
X264648Y96343D01*
X264533Y96366D01*
X264412Y96399D01*
X264283Y96426D01*
X264149Y96459D01*
X264006Y96491D01*
X263862Y96528D01*
X259748Y97531D01*
Y98386D01*
X266146Y96630D01*
D02*
G37*
G36*
X261680Y89658D02*
X261736Y89654D01*
X261810Y89649D01*
X261888Y89635D01*
X261981Y89622D01*
X262078Y89598D01*
X262184Y89571D01*
X262295Y89534D01*
X262411Y89492D01*
X262526Y89441D01*
X262642Y89381D01*
X262757Y89312D01*
X262873Y89233D01*
X262979Y89141D01*
X262984Y89136D01*
X263002Y89118D01*
X263030Y89085D01*
X263067Y89039D01*
X263109Y88979D01*
X263160Y88905D01*
X263210Y88817D01*
X263261Y88711D01*
X263312Y88591D01*
X263363Y88457D01*
X263414Y88299D01*
X263455Y88133D01*
X263492Y87943D01*
X263506Y87842D01*
X263520Y87736D01*
X263529Y87625D01*
X263539Y87509D01*
X263543Y87389D01*
Y85627D01*
X266146D01*
Y84782D01*
X259748D01*
Y87347D01*
X259753Y87412D01*
Y87477D01*
X259757Y87550D01*
X259762Y87708D01*
X259776Y87870D01*
X259790Y88027D01*
X259803Y88101D01*
X259813Y88165D01*
Y88170D01*
X259817Y88188D01*
X259822Y88212D01*
X259827Y88244D01*
X259836Y88286D01*
X259850Y88332D01*
X259863Y88383D01*
X259877Y88443D01*
X259919Y88568D01*
X259974Y88697D01*
X260035Y88831D01*
X260113Y88956D01*
X260118Y88961D01*
X260122Y88970D01*
X260136Y88988D01*
X260155Y89007D01*
X260173Y89035D01*
X260201Y89067D01*
X260233Y89104D01*
X260270Y89141D01*
X260312Y89178D01*
X260358Y89219D01*
X260464Y89307D01*
X260589Y89390D01*
X260728Y89469D01*
X260733Y89474D01*
X260746Y89478D01*
X260770Y89487D01*
X260797Y89501D01*
X260834Y89515D01*
X260881Y89529D01*
X260931Y89548D01*
X260987Y89566D01*
X261047Y89585D01*
X261116Y89603D01*
X261186Y89617D01*
X261264Y89631D01*
X261426Y89654D01*
X261602Y89663D01*
X261611D01*
X261639D01*
X261680Y89658D01*
D02*
G37*
G36*
X447016Y244518D02*
X440618D01*
Y245364D01*
X447016D01*
Y244518D01*
D02*
G37*
G36*
Y241782D02*
X442486Y240265D01*
X442477Y240261D01*
X442458Y240256D01*
X442426Y240247D01*
X442384Y240233D01*
X442329Y240214D01*
X442268Y240196D01*
X442204Y240173D01*
X442130Y240150D01*
X441977Y240099D01*
X441820Y240048D01*
X441741Y240025D01*
X441668Y240002D01*
X441603Y239979D01*
X441538Y239960D01*
X441543D01*
X441557Y239956D01*
X441575Y239946D01*
X441603Y239937D01*
X441640Y239928D01*
X441686Y239914D01*
X441737Y239895D01*
X441797Y239877D01*
X441866Y239854D01*
X441940Y239826D01*
X442024Y239798D01*
X442116Y239771D01*
X442218Y239734D01*
X442324Y239701D01*
X442440Y239660D01*
X442564Y239618D01*
X447016Y238083D01*
Y236941D01*
X440618D01*
Y237760D01*
X445971D01*
X440618Y239623D01*
Y240390D01*
X446064Y242234D01*
X440618D01*
Y243053D01*
X447016D01*
Y241782D01*
D02*
G37*
G36*
Y234722D02*
X443322D01*
X443313D01*
X443285D01*
X443244D01*
X443189Y234718D01*
X443119D01*
X443041Y234713D01*
X442953Y234709D01*
X442856Y234704D01*
X442759Y234695D01*
X442657Y234685D01*
X442453Y234658D01*
X442356Y234639D01*
X442259Y234621D01*
X442172Y234598D01*
X442093Y234570D01*
X442088D01*
X442074Y234561D01*
X442056Y234551D01*
X442028Y234538D01*
X441996Y234524D01*
X441959Y234501D01*
X441871Y234445D01*
X441774Y234371D01*
X441723Y234329D01*
X441672Y234279D01*
X441621Y234228D01*
X441575Y234168D01*
X441529Y234108D01*
X441487Y234038D01*
Y234034D01*
X441478Y234020D01*
X441469Y234001D01*
X441455Y233969D01*
X441436Y233932D01*
X441418Y233890D01*
X441399Y233839D01*
X441381Y233779D01*
X441362Y233715D01*
X441344Y233645D01*
X441325Y233571D01*
X441307Y233488D01*
X441293Y233400D01*
X441284Y233308D01*
X441279Y233215D01*
X441275Y233114D01*
Y233072D01*
X441279Y233026D01*
Y232961D01*
X441288Y232883D01*
X441298Y232799D01*
X441312Y232702D01*
X441325Y232596D01*
X441349Y232490D01*
X441376Y232379D01*
X441413Y232268D01*
X441450Y232157D01*
X441501Y232050D01*
X441557Y231953D01*
X441621Y231861D01*
X441695Y231782D01*
X441700Y231778D01*
X441714Y231764D01*
X441741Y231745D01*
X441778Y231722D01*
X441829Y231690D01*
X441894Y231658D01*
X441968Y231621D01*
X442061Y231584D01*
X442162Y231547D01*
X442278Y231510D01*
X442412Y231477D01*
X442560Y231445D01*
X442726Y231422D01*
X442906Y231403D01*
X443105Y231389D01*
X443322Y231385D01*
X447016D01*
Y230539D01*
X443318D01*
X443313D01*
X443309D01*
X443295D01*
X443276D01*
X443253D01*
X443226D01*
X443161Y230543D01*
X443078D01*
X442985Y230548D01*
X442879Y230557D01*
X442768Y230567D01*
X442648Y230580D01*
X442523Y230594D01*
X442268Y230631D01*
X442139Y230659D01*
X442019Y230687D01*
X441899Y230724D01*
X441788Y230761D01*
X441783Y230765D01*
X441765Y230770D01*
X441732Y230784D01*
X441695Y230802D01*
X441645Y230830D01*
X441589Y230858D01*
X441529Y230895D01*
X441460Y230941D01*
X441386Y230992D01*
X441312Y231047D01*
X441238Y231112D01*
X441159Y231186D01*
X441081Y231265D01*
X441007Y231348D01*
X440933Y231445D01*
X440863Y231547D01*
X440859Y231551D01*
X440849Y231574D01*
X440831Y231607D01*
X440808Y231648D01*
X440780Y231708D01*
X440752Y231773D01*
X440720Y231856D01*
X440687Y231944D01*
X440655Y232050D01*
X440623Y232161D01*
X440595Y232282D01*
X440567Y232416D01*
X440544Y232559D01*
X440526Y232712D01*
X440517Y232869D01*
X440512Y233040D01*
Y233128D01*
X440517Y233188D01*
X440521Y233266D01*
X440530Y233354D01*
X440540Y233456D01*
X440549Y233562D01*
X440567Y233678D01*
X440586Y233798D01*
X440614Y233918D01*
X440641Y234043D01*
X440678Y234163D01*
X440720Y234288D01*
X440766Y234403D01*
X440822Y234514D01*
X440826Y234519D01*
X440835Y234538D01*
X440854Y234570D01*
X440877Y234607D01*
X440909Y234653D01*
X440951Y234709D01*
X440997Y234764D01*
X441048Y234829D01*
X441108Y234893D01*
X441178Y234963D01*
X441247Y235032D01*
X441330Y235097D01*
X441413Y235162D01*
X441510Y235222D01*
X441608Y235277D01*
X441714Y235328D01*
X441723Y235333D01*
X441741Y235337D01*
X441774Y235351D01*
X441820Y235365D01*
X441880Y235383D01*
X441954Y235402D01*
X442037Y235425D01*
X442135Y235448D01*
X442245Y235471D01*
X442366Y235494D01*
X442495Y235513D01*
X442638Y235531D01*
X442791Y235545D01*
X442957Y235559D01*
X443133Y235564D01*
X443318Y235568D01*
X447016D01*
Y234722D01*
D02*
G37*
G36*
X440720Y229540D02*
X440794Y229536D01*
X440872Y229526D01*
X440965Y229513D01*
X441062Y229489D01*
X441159Y229457D01*
X441164D01*
X441178Y229448D01*
X441201Y229439D01*
X441233Y229425D01*
X441275Y229411D01*
X441321Y229388D01*
X441372Y229360D01*
X441427Y229332D01*
X441492Y229300D01*
X441557Y229258D01*
X441700Y229170D01*
X441852Y229064D01*
X442010Y228939D01*
X442014Y228935D01*
X442028Y228921D01*
X442051Y228902D01*
X442084Y228875D01*
X442125Y228838D01*
X442172Y228791D01*
X442227Y228741D01*
X442287Y228676D01*
X442356Y228606D01*
X442430Y228533D01*
X442509Y228449D01*
X442597Y228357D01*
X442685Y228255D01*
X442777Y228149D01*
X442874Y228033D01*
X442976Y227913D01*
X442980Y227908D01*
X442985Y227899D01*
X442999Y227885D01*
X443013Y227867D01*
X443036Y227844D01*
X443059Y227816D01*
X443119Y227747D01*
X443189Y227659D01*
X443276Y227566D01*
X443369Y227460D01*
X443470Y227349D01*
X443577Y227229D01*
X443688Y227113D01*
X443799Y226993D01*
X443914Y226882D01*
X444025Y226771D01*
X444132Y226674D01*
X444238Y226582D01*
X444335Y226508D01*
X444339Y226503D01*
X444358Y226494D01*
X444386Y226475D01*
X444418Y226448D01*
X444464Y226420D01*
X444515Y226392D01*
X444575Y226355D01*
X444640Y226323D01*
X444709Y226290D01*
X444783Y226254D01*
X444945Y226193D01*
X445028Y226170D01*
X445112Y226152D01*
X445195Y226143D01*
X445278Y226138D01*
X445283D01*
X445301D01*
X445324D01*
X445357Y226143D01*
X445398Y226147D01*
X445444Y226156D01*
X445495Y226166D01*
X445551Y226180D01*
X445611Y226198D01*
X445676Y226221D01*
X445740Y226249D01*
X445805Y226281D01*
X445874Y226318D01*
X445939Y226364D01*
X446004Y226415D01*
X446064Y226475D01*
X446068Y226480D01*
X446078Y226489D01*
X446092Y226508D01*
X446115Y226535D01*
X446138Y226568D01*
X446166Y226609D01*
X446198Y226656D01*
X446226Y226707D01*
X446258Y226767D01*
X446286Y226831D01*
X446314Y226905D01*
X446337Y226979D01*
X446360Y227062D01*
X446374Y227150D01*
X446383Y227243D01*
X446387Y227340D01*
Y227395D01*
X446383Y227432D01*
X446378Y227483D01*
X446369Y227539D01*
X446360Y227599D01*
X446346Y227668D01*
X446327Y227737D01*
X446304Y227811D01*
X446277Y227885D01*
X446244Y227964D01*
X446203Y228038D01*
X446156Y228112D01*
X446105Y228186D01*
X446045Y228251D01*
X446041Y228255D01*
X446031Y228264D01*
X446008Y228283D01*
X445985Y228301D01*
X445948Y228329D01*
X445907Y228357D01*
X445856Y228389D01*
X445800Y228417D01*
X445740Y228449D01*
X445666Y228482D01*
X445592Y228509D01*
X445509Y228537D01*
X445417Y228556D01*
X445320Y228574D01*
X445218Y228583D01*
X445107Y228588D01*
X445190Y229397D01*
X445195D01*
X445199D01*
X445213Y229392D01*
X445232D01*
X445278Y229388D01*
X445338Y229374D01*
X445412Y229360D01*
X445500Y229342D01*
X445597Y229318D01*
X445699Y229291D01*
X445810Y229254D01*
X445920Y229212D01*
X446036Y229161D01*
X446152Y229101D01*
X446263Y229036D01*
X446369Y228958D01*
X446471Y228875D01*
X446563Y228778D01*
X446568Y228773D01*
X446582Y228754D01*
X446609Y228722D01*
X446637Y228680D01*
X446674Y228625D01*
X446716Y228560D01*
X446757Y228482D01*
X446804Y228394D01*
X446845Y228292D01*
X446887Y228186D01*
X446928Y228066D01*
X446965Y227936D01*
X446998Y227798D01*
X447021Y227650D01*
X447035Y227492D01*
X447039Y227326D01*
Y227284D01*
X447035Y227238D01*
X447030Y227173D01*
X447025Y227095D01*
X447011Y227007D01*
X446998Y226905D01*
X446974Y226799D01*
X446947Y226683D01*
X446914Y226568D01*
X446873Y226443D01*
X446822Y226323D01*
X446762Y226203D01*
X446697Y226087D01*
X446619Y225976D01*
X446526Y225870D01*
X446521Y225865D01*
X446503Y225847D01*
X446475Y225819D01*
X446434Y225787D01*
X446387Y225745D01*
X446327Y225699D01*
X446258Y225648D01*
X446179Y225597D01*
X446092Y225551D01*
X445994Y225500D01*
X445888Y225454D01*
X445777Y225412D01*
X445657Y225380D01*
X445532Y225352D01*
X445398Y225333D01*
X445260Y225329D01*
X445255D01*
X445241D01*
X445223D01*
X445195D01*
X445158Y225333D01*
X445121Y225338D01*
X445075Y225343D01*
X445024Y225347D01*
X444908Y225366D01*
X444779Y225394D01*
X444645Y225435D01*
X444506Y225486D01*
X444501D01*
X444487Y225495D01*
X444469Y225505D01*
X444441Y225518D01*
X444409Y225532D01*
X444367Y225555D01*
X444321Y225578D01*
X444270Y225611D01*
X444215Y225643D01*
X444155Y225680D01*
X444021Y225773D01*
X443951Y225824D01*
X443877Y225879D01*
X443803Y225944D01*
X443725Y226008D01*
X443720Y226013D01*
X443706Y226027D01*
X443683Y226045D01*
X443651Y226078D01*
X443609Y226119D01*
X443558Y226170D01*
X443498Y226226D01*
X443429Y226295D01*
X443355Y226374D01*
X443272Y226466D01*
X443179Y226563D01*
X443078Y226674D01*
X442971Y226794D01*
X442856Y226924D01*
X442731Y227067D01*
X442601Y227220D01*
X442597Y227229D01*
X442574Y227252D01*
X442546Y227284D01*
X442504Y227331D01*
X442458Y227391D01*
X442403Y227451D01*
X442342Y227520D01*
X442278Y227594D01*
X442144Y227751D01*
X442074Y227825D01*
X442010Y227899D01*
X441945Y227969D01*
X441889Y228029D01*
X441839Y228084D01*
X441792Y228126D01*
X441783Y228135D01*
X441755Y228158D01*
X441714Y228195D01*
X441663Y228241D01*
X441598Y228292D01*
X441529Y228348D01*
X441450Y228403D01*
X441372Y228454D01*
Y225320D01*
X440618D01*
Y229545D01*
X440623D01*
X440632D01*
X440646D01*
X440664D01*
X440692D01*
X440720Y229540D01*
D02*
G37*
G36*
X210045Y39320D02*
X210114Y39316D01*
X210197Y39311D01*
X210290Y39297D01*
X210396Y39283D01*
X210516Y39265D01*
X210641Y39237D01*
X210770Y39205D01*
X210905Y39168D01*
X211039Y39117D01*
X211173Y39062D01*
X211311Y38997D01*
X211441Y38923D01*
X211566Y38835D01*
X211575Y38830D01*
X211593Y38812D01*
X211630Y38784D01*
X211672Y38743D01*
X211727Y38696D01*
X211787Y38632D01*
X211852Y38562D01*
X211926Y38479D01*
X212000Y38387D01*
X212079Y38285D01*
X212153Y38169D01*
X212227Y38049D01*
X212301Y37915D01*
X212365Y37772D01*
X212430Y37619D01*
X212481Y37457D01*
X211649Y37263D01*
X211644Y37273D01*
X211640Y37296D01*
X211626Y37328D01*
X211607Y37379D01*
X211584Y37434D01*
X211556Y37499D01*
X211519Y37573D01*
X211482Y37652D01*
X211441Y37735D01*
X211390Y37818D01*
X211339Y37901D01*
X211279Y37989D01*
X211214Y38068D01*
X211150Y38146D01*
X211076Y38216D01*
X210997Y38280D01*
X210992Y38285D01*
X210979Y38294D01*
X210955Y38308D01*
X210923Y38331D01*
X210881Y38354D01*
X210831Y38382D01*
X210770Y38410D01*
X210706Y38442D01*
X210632Y38470D01*
X210553Y38498D01*
X210465Y38525D01*
X210373Y38549D01*
X210271Y38572D01*
X210165Y38585D01*
X210054Y38595D01*
X209934Y38599D01*
X209864D01*
X209814Y38595D01*
X209749Y38590D01*
X209675Y38581D01*
X209592Y38572D01*
X209504Y38553D01*
X209407Y38535D01*
X209310Y38512D01*
X209208Y38484D01*
X209102Y38451D01*
X209000Y38410D01*
X208898Y38359D01*
X208797Y38308D01*
X208699Y38243D01*
X208695Y38239D01*
X208676Y38229D01*
X208653Y38206D01*
X208621Y38179D01*
X208579Y38142D01*
X208533Y38100D01*
X208482Y38049D01*
X208427Y37994D01*
X208371Y37929D01*
X208311Y37860D01*
X208256Y37781D01*
X208200Y37693D01*
X208145Y37605D01*
X208094Y37508D01*
X208048Y37407D01*
X208006Y37296D01*
Y37291D01*
X207997Y37268D01*
X207988Y37236D01*
X207974Y37194D01*
X207960Y37139D01*
X207941Y37074D01*
X207927Y37000D01*
X207909Y36917D01*
X207890Y36829D01*
X207872Y36732D01*
X207854Y36630D01*
X207840Y36524D01*
X207817Y36302D01*
X207812Y36186D01*
X207807Y36066D01*
Y36057D01*
Y36029D01*
Y35987D01*
X207812Y35927D01*
X207817Y35858D01*
X207821Y35775D01*
X207826Y35682D01*
X207835Y35585D01*
X207849Y35474D01*
X207863Y35359D01*
X207909Y35123D01*
X207932Y34998D01*
X207964Y34878D01*
X208001Y34758D01*
X208043Y34642D01*
X208048Y34638D01*
X208052Y34615D01*
X208066Y34587D01*
X208089Y34545D01*
X208112Y34494D01*
X208145Y34434D01*
X208182Y34369D01*
X208223Y34300D01*
X208274Y34231D01*
X208330Y34157D01*
X208390Y34078D01*
X208454Y34004D01*
X208528Y33930D01*
X208607Y33861D01*
X208690Y33796D01*
X208783Y33736D01*
X208787Y33732D01*
X208806Y33722D01*
X208834Y33708D01*
X208871Y33690D01*
X208917Y33667D01*
X208972Y33639D01*
X209037Y33616D01*
X209106Y33588D01*
X209185Y33556D01*
X209268Y33533D01*
X209361Y33505D01*
X209453Y33482D01*
X209555Y33463D01*
X209656Y33449D01*
X209763Y33440D01*
X209869Y33436D01*
X209901D01*
X209938Y33440D01*
X209989D01*
X210049Y33449D01*
X210119Y33459D01*
X210202Y33468D01*
X210285Y33486D01*
X210378Y33510D01*
X210475Y33537D01*
X210576Y33570D01*
X210678Y33607D01*
X210780Y33653D01*
X210881Y33708D01*
X210979Y33773D01*
X211076Y33842D01*
X211080Y33847D01*
X211099Y33861D01*
X211122Y33884D01*
X211154Y33921D01*
X211196Y33963D01*
X211242Y34014D01*
X211293Y34078D01*
X211344Y34148D01*
X211399Y34231D01*
X211455Y34319D01*
X211515Y34420D01*
X211566Y34531D01*
X211621Y34647D01*
X211667Y34776D01*
X211709Y34910D01*
X211746Y35058D01*
X212592Y34846D01*
Y34841D01*
X212587Y34832D01*
X212583Y34818D01*
X212578Y34799D01*
X212573Y34776D01*
X212564Y34744D01*
X212541Y34675D01*
X212509Y34587D01*
X212472Y34490D01*
X212425Y34379D01*
X212370Y34258D01*
X212310Y34129D01*
X212241Y34000D01*
X212162Y33870D01*
X212074Y33736D01*
X211977Y33607D01*
X211871Y33482D01*
X211755Y33366D01*
X211630Y33255D01*
X211621Y33251D01*
X211598Y33232D01*
X211561Y33205D01*
X211506Y33172D01*
X211441Y33131D01*
X211358Y33084D01*
X211265Y33033D01*
X211159Y32983D01*
X211043Y32932D01*
X210914Y32881D01*
X210775Y32835D01*
X210627Y32793D01*
X210465Y32761D01*
X210299Y32733D01*
X210123Y32715D01*
X209938Y32710D01*
X209869D01*
X209837Y32715D01*
X209767D01*
X209680Y32724D01*
X209578Y32733D01*
X209462Y32747D01*
X209342Y32761D01*
X209208Y32784D01*
X209074Y32812D01*
X208931Y32848D01*
X208792Y32885D01*
X208653Y32936D01*
X208515Y32992D01*
X208381Y33057D01*
X208256Y33131D01*
X208246Y33135D01*
X208228Y33149D01*
X208196Y33177D01*
X208149Y33209D01*
X208094Y33251D01*
X208034Y33306D01*
X207964Y33366D01*
X207890Y33440D01*
X207812Y33523D01*
X207733Y33611D01*
X207650Y33713D01*
X207567Y33819D01*
X207488Y33939D01*
X207410Y34064D01*
X207336Y34203D01*
X207271Y34346D01*
Y34351D01*
X207266Y34356D01*
X207257Y34383D01*
X207239Y34425D01*
X207220Y34485D01*
X207192Y34559D01*
X207165Y34647D01*
X207132Y34748D01*
X207105Y34859D01*
X207072Y34984D01*
X207040Y35118D01*
X207012Y35257D01*
X206984Y35410D01*
X206966Y35562D01*
X206947Y35724D01*
X206938Y35890D01*
X206934Y36061D01*
Y36066D01*
Y36075D01*
Y36089D01*
Y36108D01*
Y36131D01*
X206938Y36158D01*
Y36228D01*
X206947Y36316D01*
X206952Y36417D01*
X206966Y36533D01*
X206980Y36658D01*
X207003Y36787D01*
X207026Y36926D01*
X207058Y37074D01*
X207095Y37222D01*
X207137Y37370D01*
X207188Y37518D01*
X207248Y37661D01*
X207313Y37804D01*
X207317Y37813D01*
X207331Y37837D01*
X207354Y37873D01*
X207382Y37929D01*
X207424Y37989D01*
X207470Y38058D01*
X207530Y38142D01*
X207595Y38225D01*
X207664Y38313D01*
X207747Y38410D01*
X207835Y38502D01*
X207932Y38595D01*
X208038Y38687D01*
X208149Y38775D01*
X208270Y38858D01*
X208399Y38937D01*
X208408Y38941D01*
X208431Y38955D01*
X208468Y38974D01*
X208524Y38997D01*
X208589Y39029D01*
X208667Y39062D01*
X208760Y39094D01*
X208857Y39131D01*
X208968Y39168D01*
X209088Y39200D01*
X209217Y39237D01*
X209351Y39265D01*
X209495Y39288D01*
X209643Y39307D01*
X209795Y39320D01*
X209952Y39325D01*
X210017D01*
X210045Y39320D01*
D02*
G37*
G36*
X205755Y32816D02*
X204881D01*
X201530Y37837D01*
Y32816D01*
X200716D01*
Y39214D01*
X201585D01*
X204941Y34189D01*
Y39214D01*
X205755D01*
Y32816D01*
D02*
G37*
G36*
X215523Y39233D02*
X215588Y39228D01*
X215666Y39223D01*
X215754Y39209D01*
X215856Y39196D01*
X215962Y39172D01*
X216077Y39145D01*
X216193Y39112D01*
X216318Y39071D01*
X216438Y39020D01*
X216558Y38960D01*
X216674Y38895D01*
X216785Y38817D01*
X216891Y38724D01*
X216896Y38719D01*
X216914Y38701D01*
X216942Y38673D01*
X216974Y38632D01*
X217016Y38585D01*
X217062Y38525D01*
X217113Y38456D01*
X217164Y38377D01*
X217210Y38290D01*
X217261Y38193D01*
X217307Y38086D01*
X217349Y37975D01*
X217381Y37855D01*
X217409Y37730D01*
X217427Y37596D01*
X217432Y37457D01*
Y37453D01*
Y37439D01*
Y37420D01*
Y37393D01*
X217427Y37356D01*
X217423Y37319D01*
X217418Y37273D01*
X217414Y37222D01*
X217395Y37106D01*
X217367Y36977D01*
X217326Y36843D01*
X217275Y36704D01*
Y36699D01*
X217265Y36686D01*
X217256Y36667D01*
X217242Y36639D01*
X217229Y36607D01*
X217205Y36565D01*
X217182Y36519D01*
X217150Y36468D01*
X217118Y36413D01*
X217081Y36353D01*
X216988Y36219D01*
X216937Y36149D01*
X216882Y36075D01*
X216817Y36001D01*
X216752Y35923D01*
X216748Y35918D01*
X216734Y35904D01*
X216715Y35881D01*
X216683Y35849D01*
X216642Y35807D01*
X216591Y35756D01*
X216535Y35696D01*
X216466Y35627D01*
X216387Y35553D01*
X216295Y35470D01*
X216198Y35377D01*
X216087Y35275D01*
X215966Y35169D01*
X215837Y35054D01*
X215694Y34929D01*
X215541Y34799D01*
X215532Y34795D01*
X215509Y34772D01*
X215476Y34744D01*
X215430Y34702D01*
X215370Y34656D01*
X215310Y34601D01*
X215241Y34541D01*
X215167Y34476D01*
X215010Y34342D01*
X214936Y34272D01*
X214862Y34208D01*
X214792Y34143D01*
X214732Y34088D01*
X214677Y34037D01*
X214635Y33990D01*
X214626Y33981D01*
X214603Y33953D01*
X214566Y33912D01*
X214520Y33861D01*
X214469Y33796D01*
X214413Y33727D01*
X214358Y33648D01*
X214307Y33570D01*
X217441D01*
Y32816D01*
X213216D01*
Y32821D01*
Y32830D01*
Y32844D01*
Y32862D01*
Y32890D01*
X213221Y32918D01*
X213225Y32992D01*
X213234Y33070D01*
X213248Y33163D01*
X213271Y33260D01*
X213304Y33357D01*
Y33362D01*
X213313Y33375D01*
X213322Y33399D01*
X213336Y33431D01*
X213350Y33473D01*
X213373Y33519D01*
X213401Y33570D01*
X213429Y33625D01*
X213461Y33690D01*
X213503Y33755D01*
X213590Y33898D01*
X213697Y34051D01*
X213822Y34208D01*
X213826Y34212D01*
X213840Y34226D01*
X213859Y34249D01*
X213886Y34282D01*
X213923Y34323D01*
X213969Y34369D01*
X214020Y34425D01*
X214085Y34485D01*
X214154Y34554D01*
X214228Y34628D01*
X214312Y34707D01*
X214404Y34795D01*
X214506Y34883D01*
X214612Y34975D01*
X214728Y35072D01*
X214848Y35174D01*
X214852Y35178D01*
X214862Y35183D01*
X214876Y35197D01*
X214894Y35211D01*
X214917Y35234D01*
X214945Y35257D01*
X215014Y35317D01*
X215102Y35387D01*
X215194Y35474D01*
X215301Y35567D01*
X215412Y35668D01*
X215532Y35775D01*
X215648Y35886D01*
X215768Y35997D01*
X215879Y36112D01*
X215990Y36223D01*
X216087Y36330D01*
X216179Y36436D01*
X216253Y36533D01*
X216258Y36537D01*
X216267Y36556D01*
X216285Y36584D01*
X216313Y36616D01*
X216341Y36662D01*
X216369Y36713D01*
X216406Y36773D01*
X216438Y36838D01*
X216470Y36907D01*
X216507Y36981D01*
X216567Y37143D01*
X216591Y37226D01*
X216609Y37310D01*
X216618Y37393D01*
X216623Y37476D01*
Y37481D01*
Y37499D01*
Y37522D01*
X216618Y37555D01*
X216614Y37596D01*
X216604Y37642D01*
X216595Y37693D01*
X216581Y37749D01*
X216563Y37809D01*
X216540Y37873D01*
X216512Y37938D01*
X216480Y38003D01*
X216443Y38072D01*
X216396Y38137D01*
X216346Y38202D01*
X216285Y38262D01*
X216281Y38266D01*
X216272Y38276D01*
X216253Y38290D01*
X216225Y38313D01*
X216193Y38336D01*
X216151Y38364D01*
X216105Y38396D01*
X216054Y38424D01*
X215994Y38456D01*
X215930Y38484D01*
X215856Y38512D01*
X215782Y38535D01*
X215698Y38558D01*
X215611Y38572D01*
X215518Y38581D01*
X215421Y38585D01*
X215366D01*
X215329Y38581D01*
X215278Y38576D01*
X215222Y38567D01*
X215162Y38558D01*
X215093Y38544D01*
X215023Y38525D01*
X214949Y38502D01*
X214876Y38475D01*
X214797Y38442D01*
X214723Y38400D01*
X214649Y38354D01*
X214575Y38303D01*
X214510Y38243D01*
X214506Y38239D01*
X214496Y38229D01*
X214478Y38206D01*
X214459Y38183D01*
X214432Y38146D01*
X214404Y38105D01*
X214372Y38054D01*
X214344Y37998D01*
X214312Y37938D01*
X214279Y37864D01*
X214251Y37790D01*
X214224Y37707D01*
X214205Y37615D01*
X214187Y37518D01*
X214177Y37416D01*
X214173Y37305D01*
X213364Y37388D01*
Y37393D01*
Y37397D01*
X213368Y37411D01*
Y37430D01*
X213373Y37476D01*
X213387Y37536D01*
X213401Y37610D01*
X213419Y37698D01*
X213442Y37795D01*
X213470Y37897D01*
X213507Y38008D01*
X213549Y38119D01*
X213600Y38234D01*
X213660Y38350D01*
X213724Y38461D01*
X213803Y38567D01*
X213886Y38669D01*
X213983Y38761D01*
X213988Y38766D01*
X214007Y38780D01*
X214039Y38807D01*
X214080Y38835D01*
X214136Y38872D01*
X214201Y38914D01*
X214279Y38955D01*
X214367Y39002D01*
X214469Y39043D01*
X214575Y39085D01*
X214695Y39126D01*
X214825Y39163D01*
X214963Y39196D01*
X215111Y39219D01*
X215268Y39233D01*
X215435Y39237D01*
X215476D01*
X215523Y39233D01*
D02*
G37*
G36*
X199408Y38461D02*
X195631D01*
Y36501D01*
X199167D01*
Y35747D01*
X195631D01*
Y33570D01*
X199556D01*
Y32816D01*
X194785D01*
Y39214D01*
X199408D01*
Y38461D01*
D02*
G37*
G36*
X392014Y257015D02*
X392083Y257011D01*
X392167Y257006D01*
X392259Y256992D01*
X392365Y256978D01*
X392486Y256960D01*
X392610Y256932D01*
X392740Y256900D01*
X392874Y256863D01*
X393008Y256812D01*
X393142Y256757D01*
X393281Y256692D01*
X393410Y256618D01*
X393535Y256530D01*
X393544Y256525D01*
X393563Y256507D01*
X393600Y256479D01*
X393641Y256438D01*
X393697Y256391D01*
X393757Y256327D01*
X393822Y256257D01*
X393896Y256174D01*
X393969Y256082D01*
X394048Y255980D01*
X394122Y255864D01*
X394196Y255744D01*
X394270Y255610D01*
X394335Y255467D01*
X394399Y255314D01*
X394450Y255152D01*
X393618Y254958D01*
X393614Y254968D01*
X393609Y254991D01*
X393595Y255023D01*
X393577Y255074D01*
X393554Y255129D01*
X393526Y255194D01*
X393489Y255268D01*
X393452Y255347D01*
X393410Y255430D01*
X393359Y255513D01*
X393308Y255596D01*
X393248Y255684D01*
X393184Y255763D01*
X393119Y255841D01*
X393045Y255911D01*
X392966Y255975D01*
X392962Y255980D01*
X392948Y255989D01*
X392925Y256003D01*
X392892Y256026D01*
X392851Y256049D01*
X392800Y256077D01*
X392740Y256105D01*
X392675Y256137D01*
X392601Y256165D01*
X392523Y256193D01*
X392435Y256220D01*
X392342Y256243D01*
X392241Y256267D01*
X392134Y256280D01*
X392023Y256290D01*
X391903Y256294D01*
X391834D01*
X391783Y256290D01*
X391718Y256285D01*
X391644Y256276D01*
X391561Y256267D01*
X391473Y256248D01*
X391376Y256230D01*
X391279Y256206D01*
X391177Y256179D01*
X391071Y256146D01*
X390969Y256105D01*
X390868Y256054D01*
X390766Y256003D01*
X390669Y255938D01*
X390664Y255934D01*
X390646Y255924D01*
X390623Y255901D01*
X390590Y255874D01*
X390549Y255837D01*
X390502Y255795D01*
X390452Y255744D01*
X390396Y255689D01*
X390341Y255624D01*
X390280Y255555D01*
X390225Y255476D01*
X390170Y255388D01*
X390114Y255300D01*
X390063Y255203D01*
X390017Y255102D01*
X389975Y254991D01*
Y254986D01*
X389966Y254963D01*
X389957Y254931D01*
X389943Y254889D01*
X389929Y254834D01*
X389911Y254769D01*
X389897Y254695D01*
X389878Y254612D01*
X389860Y254524D01*
X389841Y254427D01*
X389823Y254325D01*
X389809Y254219D01*
X389786Y253997D01*
X389781Y253881D01*
X389777Y253761D01*
Y253752D01*
Y253724D01*
Y253682D01*
X389781Y253622D01*
X389786Y253553D01*
X389790Y253470D01*
X389795Y253377D01*
X389804Y253280D01*
X389818Y253169D01*
X389832Y253054D01*
X389878Y252818D01*
X389902Y252693D01*
X389934Y252573D01*
X389971Y252453D01*
X390012Y252337D01*
X390017Y252333D01*
X390022Y252309D01*
X390036Y252282D01*
X390059Y252240D01*
X390082Y252189D01*
X390114Y252129D01*
X390151Y252064D01*
X390193Y251995D01*
X390243Y251926D01*
X390299Y251852D01*
X390359Y251773D01*
X390424Y251699D01*
X390498Y251625D01*
X390576Y251556D01*
X390660Y251491D01*
X390752Y251431D01*
X390757Y251427D01*
X390775Y251417D01*
X390803Y251403D01*
X390840Y251385D01*
X390886Y251362D01*
X390942Y251334D01*
X391006Y251311D01*
X391076Y251283D01*
X391154Y251251D01*
X391237Y251228D01*
X391330Y251200D01*
X391422Y251177D01*
X391524Y251158D01*
X391626Y251145D01*
X391732Y251135D01*
X391838Y251131D01*
X391871D01*
X391908Y251135D01*
X391959D01*
X392019Y251145D01*
X392088Y251154D01*
X392171Y251163D01*
X392254Y251182D01*
X392347Y251205D01*
X392444Y251232D01*
X392546Y251265D01*
X392647Y251302D01*
X392749Y251348D01*
X392851Y251403D01*
X392948Y251468D01*
X393045Y251537D01*
X393050Y251542D01*
X393068Y251556D01*
X393091Y251579D01*
X393124Y251616D01*
X393165Y251658D01*
X393211Y251709D01*
X393262Y251773D01*
X393313Y251842D01*
X393369Y251926D01*
X393424Y252014D01*
X393484Y252115D01*
X393535Y252226D01*
X393590Y252342D01*
X393637Y252471D01*
X393678Y252605D01*
X393715Y252753D01*
X394561Y252541D01*
Y252536D01*
X394557Y252527D01*
X394552Y252513D01*
X394547Y252494D01*
X394543Y252471D01*
X394534Y252439D01*
X394510Y252369D01*
X394478Y252282D01*
X394441Y252185D01*
X394395Y252074D01*
X394339Y251954D01*
X394279Y251824D01*
X394210Y251695D01*
X394131Y251565D01*
X394044Y251431D01*
X393946Y251302D01*
X393840Y251177D01*
X393725Y251061D01*
X393600Y250950D01*
X393590Y250946D01*
X393567Y250927D01*
X393530Y250900D01*
X393475Y250867D01*
X393410Y250826D01*
X393327Y250779D01*
X393234Y250728D01*
X393128Y250678D01*
X393013Y250627D01*
X392883Y250576D01*
X392744Y250530D01*
X392597Y250488D01*
X392435Y250456D01*
X392268Y250428D01*
X392093Y250410D01*
X391908Y250405D01*
X391838D01*
X391806Y250410D01*
X391737D01*
X391649Y250419D01*
X391547Y250428D01*
X391432Y250442D01*
X391311Y250456D01*
X391177Y250479D01*
X391043Y250507D01*
X390900Y250543D01*
X390761Y250581D01*
X390623Y250631D01*
X390484Y250687D01*
X390350Y250752D01*
X390225Y250826D01*
X390216Y250830D01*
X390197Y250844D01*
X390165Y250872D01*
X390119Y250904D01*
X390063Y250946D01*
X390003Y251001D01*
X389934Y251061D01*
X389860Y251135D01*
X389781Y251218D01*
X389703Y251306D01*
X389619Y251408D01*
X389536Y251514D01*
X389458Y251635D01*
X389379Y251759D01*
X389305Y251898D01*
X389240Y252041D01*
Y252046D01*
X389236Y252051D01*
X389226Y252078D01*
X389208Y252120D01*
X389189Y252180D01*
X389162Y252254D01*
X389134Y252342D01*
X389102Y252444D01*
X389074Y252554D01*
X389042Y252679D01*
X389009Y252813D01*
X388982Y252952D01*
X388954Y253105D01*
X388935Y253257D01*
X388917Y253419D01*
X388908Y253585D01*
X388903Y253756D01*
Y253761D01*
Y253770D01*
Y253784D01*
Y253803D01*
Y253826D01*
X388908Y253853D01*
Y253923D01*
X388917Y254011D01*
X388921Y254112D01*
X388935Y254228D01*
X388949Y254353D01*
X388972Y254482D01*
X388995Y254621D01*
X389028Y254769D01*
X389065Y254917D01*
X389106Y255065D01*
X389157Y255213D01*
X389217Y255356D01*
X389282Y255499D01*
X389287Y255508D01*
X389300Y255532D01*
X389324Y255569D01*
X389351Y255624D01*
X389393Y255684D01*
X389439Y255753D01*
X389499Y255837D01*
X389564Y255920D01*
X389633Y256008D01*
X389716Y256105D01*
X389804Y256197D01*
X389902Y256290D01*
X390008Y256382D01*
X390119Y256470D01*
X390239Y256553D01*
X390368Y256632D01*
X390378Y256636D01*
X390401Y256650D01*
X390438Y256669D01*
X390493Y256692D01*
X390558Y256724D01*
X390636Y256757D01*
X390729Y256789D01*
X390826Y256826D01*
X390937Y256863D01*
X391057Y256895D01*
X391187Y256932D01*
X391321Y256960D01*
X391464Y256983D01*
X391612Y257002D01*
X391764Y257015D01*
X391922Y257020D01*
X391986D01*
X392014Y257015D01*
D02*
G37*
G36*
X402346Y256928D02*
X402392D01*
X402448Y256918D01*
X402508Y256914D01*
X402573Y256905D01*
X402646Y256891D01*
X402720Y256877D01*
X402882Y256835D01*
X402970Y256812D01*
X403053Y256780D01*
X403136Y256747D01*
X403220Y256706D01*
X403224Y256701D01*
X403238Y256696D01*
X403261Y256683D01*
X403294Y256664D01*
X403331Y256641D01*
X403372Y256613D01*
X403419Y256581D01*
X403469Y256544D01*
X403580Y256456D01*
X403691Y256350D01*
X403798Y256230D01*
X403848Y256160D01*
X403895Y256091D01*
X403899Y256086D01*
X403904Y256072D01*
X403918Y256054D01*
X403932Y256022D01*
X403950Y255989D01*
X403969Y255943D01*
X403992Y255897D01*
X404015Y255841D01*
X404033Y255781D01*
X404057Y255721D01*
X404094Y255582D01*
X404121Y255430D01*
X404126Y255351D01*
X404130Y255268D01*
Y255263D01*
Y255250D01*
Y255226D01*
X404126Y255199D01*
Y255162D01*
X404117Y255120D01*
X404112Y255069D01*
X404103Y255018D01*
X404075Y254898D01*
X404033Y254773D01*
X404010Y254709D01*
X403978Y254639D01*
X403946Y254575D01*
X403904Y254510D01*
X403899Y254505D01*
X403895Y254496D01*
X403881Y254478D01*
X403862Y254454D01*
X403839Y254427D01*
X403811Y254394D01*
X403779Y254357D01*
X403737Y254316D01*
X403696Y254274D01*
X403645Y254233D01*
X403594Y254186D01*
X403534Y254140D01*
X403469Y254098D01*
X403400Y254052D01*
X403326Y254011D01*
X403247Y253974D01*
X403252D01*
X403271Y253969D01*
X403303Y253960D01*
X403340Y253946D01*
X403391Y253932D01*
X403446Y253909D01*
X403506Y253886D01*
X403571Y253853D01*
X403640Y253821D01*
X403714Y253780D01*
X403788Y253738D01*
X403862Y253687D01*
X403932Y253632D01*
X404001Y253571D01*
X404070Y253502D01*
X404130Y253428D01*
X404135Y253424D01*
X404144Y253410D01*
X404158Y253387D01*
X404181Y253354D01*
X404204Y253313D01*
X404232Y253266D01*
X404260Y253211D01*
X404288Y253146D01*
X404315Y253072D01*
X404348Y252994D01*
X404371Y252910D01*
X404394Y252818D01*
X404417Y252721D01*
X404431Y252619D01*
X404440Y252513D01*
X404445Y252397D01*
Y252388D01*
Y252360D01*
X404440Y252314D01*
X404436Y252259D01*
X404426Y252185D01*
X404412Y252101D01*
X404394Y252009D01*
X404366Y251907D01*
X404334Y251796D01*
X404297Y251685D01*
X404246Y251565D01*
X404186Y251445D01*
X404117Y251325D01*
X404033Y251205D01*
X403936Y251089D01*
X403830Y250978D01*
X403821Y250973D01*
X403802Y250955D01*
X403770Y250923D01*
X403719Y250886D01*
X403659Y250844D01*
X403590Y250793D01*
X403502Y250742D01*
X403409Y250687D01*
X403303Y250631D01*
X403183Y250581D01*
X403058Y250530D01*
X402919Y250488D01*
X402776Y250451D01*
X402619Y250419D01*
X402457Y250400D01*
X402286Y250396D01*
X402249D01*
X402203Y250400D01*
X402147Y250405D01*
X402073Y250410D01*
X401990Y250423D01*
X401898Y250437D01*
X401796Y250460D01*
X401690Y250483D01*
X401574Y250516D01*
X401459Y250557D01*
X401338Y250608D01*
X401223Y250664D01*
X401107Y250728D01*
X400992Y250807D01*
X400885Y250895D01*
X400881Y250900D01*
X400862Y250918D01*
X400834Y250946D01*
X400797Y250987D01*
X400756Y251038D01*
X400705Y251098D01*
X400654Y251168D01*
X400599Y251246D01*
X400543Y251334D01*
X400488Y251436D01*
X400437Y251542D01*
X400386Y251658D01*
X400344Y251782D01*
X400303Y251912D01*
X400275Y252051D01*
X400257Y252199D01*
X401042Y252305D01*
Y252296D01*
X401047Y252277D01*
X401056Y252240D01*
X401070Y252194D01*
X401084Y252138D01*
X401102Y252078D01*
X401126Y252009D01*
X401149Y251935D01*
X401213Y251773D01*
X401292Y251616D01*
X401338Y251537D01*
X401389Y251464D01*
X401440Y251399D01*
X401500Y251339D01*
X401505Y251334D01*
X401514Y251325D01*
X401532Y251311D01*
X401560Y251292D01*
X401588Y251269D01*
X401629Y251246D01*
X401671Y251218D01*
X401722Y251195D01*
X401777Y251168D01*
X401838Y251140D01*
X401902Y251117D01*
X401972Y251094D01*
X402046Y251075D01*
X402124Y251061D01*
X402203Y251052D01*
X402291Y251047D01*
X402314D01*
X402346Y251052D01*
X402383D01*
X402434Y251061D01*
X402489Y251066D01*
X402549Y251080D01*
X402619Y251094D01*
X402688Y251117D01*
X402767Y251140D01*
X402845Y251172D01*
X402924Y251209D01*
X403003Y251255D01*
X403081Y251306D01*
X403155Y251362D01*
X403229Y251431D01*
X403234Y251436D01*
X403247Y251450D01*
X403266Y251468D01*
X403289Y251500D01*
X403317Y251537D01*
X403349Y251584D01*
X403386Y251635D01*
X403423Y251695D01*
X403456Y251759D01*
X403493Y251833D01*
X403525Y251907D01*
X403553Y251995D01*
X403576Y252083D01*
X403594Y252175D01*
X403608Y252277D01*
X403613Y252379D01*
Y252383D01*
Y252402D01*
Y252430D01*
X403608Y252471D01*
X403603Y252513D01*
X403594Y252568D01*
X403585Y252628D01*
X403567Y252693D01*
X403548Y252763D01*
X403525Y252836D01*
X403497Y252910D01*
X403465Y252984D01*
X403423Y253058D01*
X403372Y253132D01*
X403321Y253202D01*
X403257Y253271D01*
X403252Y253276D01*
X403243Y253285D01*
X403220Y253303D01*
X403192Y253326D01*
X403160Y253354D01*
X403118Y253382D01*
X403067Y253414D01*
X403012Y253447D01*
X402952Y253479D01*
X402882Y253511D01*
X402808Y253539D01*
X402730Y253567D01*
X402646Y253590D01*
X402554Y253608D01*
X402462Y253618D01*
X402360Y253622D01*
X402318D01*
X402272Y253618D01*
X402207Y253613D01*
X402124Y253604D01*
X402032Y253585D01*
X401925Y253567D01*
X401805Y253539D01*
X401893Y254228D01*
X401907D01*
X401921Y254223D01*
X401939D01*
X401981Y254219D01*
X402069D01*
X402101Y254223D01*
X402147Y254228D01*
X402198Y254233D01*
X402254Y254242D01*
X402318Y254251D01*
X402388Y254265D01*
X402457Y254283D01*
X402609Y254330D01*
X402688Y254357D01*
X402767Y254394D01*
X402845Y254431D01*
X402919Y254478D01*
X402924Y254482D01*
X402938Y254491D01*
X402956Y254505D01*
X402984Y254528D01*
X403012Y254556D01*
X403049Y254589D01*
X403081Y254630D01*
X403123Y254676D01*
X403160Y254732D01*
X403197Y254792D01*
X403229Y254857D01*
X403257Y254931D01*
X403284Y255009D01*
X403303Y255097D01*
X403317Y255189D01*
X403321Y255287D01*
Y255291D01*
Y255305D01*
Y255328D01*
X403317Y255361D01*
X403312Y255393D01*
X403308Y255439D01*
X403298Y255485D01*
X403284Y255536D01*
X403247Y255647D01*
X403224Y255707D01*
X403197Y255767D01*
X403164Y255827D01*
X403123Y255888D01*
X403076Y255943D01*
X403026Y255998D01*
X403021Y256003D01*
X403012Y256012D01*
X402998Y256026D01*
X402975Y256045D01*
X402942Y256063D01*
X402910Y256091D01*
X402868Y256114D01*
X402822Y256142D01*
X402771Y256169D01*
X402716Y256193D01*
X402651Y256220D01*
X402586Y256239D01*
X402513Y256257D01*
X402439Y256271D01*
X402355Y256280D01*
X402272Y256285D01*
X402226D01*
X402198Y256280D01*
X402156Y256276D01*
X402110Y256271D01*
X402059Y256262D01*
X402004Y256248D01*
X401884Y256216D01*
X401824Y256193D01*
X401759Y256160D01*
X401694Y256128D01*
X401629Y256091D01*
X401569Y256045D01*
X401509Y255994D01*
X401505Y255989D01*
X401495Y255980D01*
X401482Y255961D01*
X401459Y255938D01*
X401435Y255911D01*
X401408Y255874D01*
X401380Y255827D01*
X401348Y255781D01*
X401315Y255721D01*
X401283Y255656D01*
X401246Y255587D01*
X401218Y255508D01*
X401186Y255425D01*
X401163Y255337D01*
X401139Y255240D01*
X401121Y255134D01*
X400335Y255273D01*
Y255277D01*
Y255282D01*
X400344Y255310D01*
X400354Y255347D01*
X400368Y255402D01*
X400386Y255471D01*
X400409Y255545D01*
X400437Y255629D01*
X400469Y255721D01*
X400511Y255818D01*
X400557Y255920D01*
X400612Y256022D01*
X400673Y256123D01*
X400737Y256225D01*
X400811Y256322D01*
X400895Y256415D01*
X400987Y256498D01*
X400992Y256502D01*
X401010Y256516D01*
X401038Y256539D01*
X401079Y256567D01*
X401130Y256599D01*
X401190Y256636D01*
X401260Y256673D01*
X401338Y256715D01*
X401426Y256757D01*
X401523Y256794D01*
X401625Y256831D01*
X401736Y256863D01*
X401856Y256891D01*
X401986Y256914D01*
X402119Y256928D01*
X402258Y256932D01*
X402309D01*
X402346Y256928D01*
D02*
G37*
G36*
X398241Y250511D02*
X397455D01*
Y255513D01*
X397450Y255508D01*
X397441Y255499D01*
X397427Y255485D01*
X397404Y255467D01*
X397377Y255444D01*
X397340Y255411D01*
X397298Y255379D01*
X397256Y255342D01*
X397201Y255305D01*
X397145Y255259D01*
X397085Y255217D01*
X397021Y255166D01*
X396947Y255120D01*
X396873Y255069D01*
X396706Y254968D01*
X396702Y254963D01*
X396688Y254954D01*
X396660Y254940D01*
X396628Y254926D01*
X396591Y254903D01*
X396544Y254875D01*
X396489Y254847D01*
X396433Y254815D01*
X396304Y254750D01*
X396165Y254686D01*
X396022Y254621D01*
X395883Y254565D01*
Y255324D01*
X395893Y255328D01*
X395911Y255337D01*
X395948Y255356D01*
X395994Y255379D01*
X396050Y255407D01*
X396119Y255444D01*
X396193Y255485D01*
X396272Y255532D01*
X396359Y255587D01*
X396452Y255643D01*
X396646Y255772D01*
X396845Y255915D01*
X397034Y256072D01*
X397039Y256077D01*
X397057Y256091D01*
X397081Y256114D01*
X397113Y256146D01*
X397155Y256188D01*
X397201Y256234D01*
X397252Y256290D01*
X397307Y256345D01*
X397363Y256410D01*
X397423Y256479D01*
X397538Y256623D01*
X397645Y256775D01*
X397691Y256854D01*
X397733Y256932D01*
X398241D01*
Y250511D01*
D02*
G37*
G36*
X133507Y267106D02*
X133498D01*
X133475D01*
X133438Y267101D01*
X133387Y267097D01*
X133327Y267092D01*
X133262Y267083D01*
X133188Y267074D01*
X133105Y267060D01*
X132938Y267027D01*
X132772Y266981D01*
X132698Y266949D01*
X132624Y266916D01*
X132559Y266875D01*
X132504Y266833D01*
X132499Y266828D01*
X132495Y266824D01*
X132481Y266805D01*
X132462Y266787D01*
X132444Y266764D01*
X132421Y266731D01*
X132393Y266699D01*
X132370Y266658D01*
X132347Y266611D01*
X132319Y266560D01*
X132296Y266505D01*
X132277Y266445D01*
X132259Y266376D01*
X132250Y266306D01*
X132240Y266232D01*
X132236Y266154D01*
Y266121D01*
X132240Y266098D01*
Y266070D01*
X132245Y266038D01*
X132254Y265964D01*
X132273Y265881D01*
X132296Y265788D01*
X132333Y265691D01*
X132379Y265604D01*
Y265599D01*
X132388Y265594D01*
X132407Y265567D01*
X132439Y265525D01*
X132486Y265479D01*
X132541Y265423D01*
X132610Y265372D01*
X132689Y265322D01*
X132777Y265285D01*
X132781D01*
X132791Y265280D01*
X132804Y265275D01*
X132823Y265271D01*
X132851Y265266D01*
X132883Y265257D01*
X132925Y265248D01*
X132971Y265238D01*
X133022Y265234D01*
X133082Y265224D01*
X133146Y265215D01*
X133221Y265211D01*
X133299Y265206D01*
X133382Y265201D01*
X133475Y265197D01*
X133576D01*
X137987D01*
Y264351D01*
X133627D01*
X133618D01*
X133590D01*
X133549D01*
X133493Y264355D01*
X133428D01*
X133350Y264360D01*
X133262Y264369D01*
X133170Y264374D01*
X133073Y264388D01*
X132971Y264397D01*
X132763Y264434D01*
X132661Y264457D01*
X132564Y264485D01*
X132472Y264513D01*
X132384Y264550D01*
X132379D01*
X132365Y264559D01*
X132342Y264568D01*
X132310Y264587D01*
X132273Y264605D01*
X132231Y264633D01*
X132185Y264665D01*
X132134Y264697D01*
X132083Y264739D01*
X132028Y264785D01*
X131972Y264836D01*
X131917Y264892D01*
X131861Y264952D01*
X131811Y265016D01*
X131760Y265086D01*
X131713Y265164D01*
X131709Y265169D01*
X131704Y265183D01*
X131690Y265206D01*
X131677Y265238D01*
X131658Y265280D01*
X131639Y265326D01*
X131621Y265382D01*
X131598Y265446D01*
X131575Y265516D01*
X131556Y265590D01*
X131538Y265673D01*
X131519Y265756D01*
X131505Y265849D01*
X131492Y265946D01*
X131487Y266043D01*
X131482Y266149D01*
Y266186D01*
X131487Y266228D01*
X131492Y266288D01*
X131496Y266357D01*
X131510Y266440D01*
X131524Y266533D01*
X131542Y266630D01*
X131570Y266731D01*
X131598Y266838D01*
X131639Y266944D01*
X131686Y267050D01*
X131741Y267157D01*
X131806Y267258D01*
X131880Y267355D01*
X131963Y267443D01*
X131968Y267448D01*
X131986Y267462D01*
X132014Y267485D01*
X132056Y267513D01*
X132106Y267545D01*
X132167Y267582D01*
X132240Y267624D01*
X132324Y267661D01*
X132421Y267702D01*
X132527Y267744D01*
X132647Y267776D01*
X132777Y267809D01*
X132915Y267836D01*
X133068Y267855D01*
X133230Y267869D01*
X133401D01*
X133507Y267106D01*
D02*
G37*
G36*
X136406Y262677D02*
X136415Y262659D01*
X136433Y262622D01*
X136456Y262576D01*
X136484Y262520D01*
X136521Y262451D01*
X136563Y262377D01*
X136609Y262298D01*
X136664Y262210D01*
X136720Y262118D01*
X136849Y261924D01*
X136993Y261725D01*
X137150Y261535D01*
X137155Y261531D01*
X137168Y261512D01*
X137191Y261489D01*
X137224Y261457D01*
X137266Y261415D01*
X137312Y261369D01*
X137367Y261318D01*
X137423Y261263D01*
X137487Y261207D01*
X137557Y261147D01*
X137700Y261032D01*
X137853Y260925D01*
X137931Y260879D01*
X138010Y260837D01*
Y260329D01*
X131589D01*
Y261115D01*
X136590D01*
X136586Y261119D01*
X136577Y261129D01*
X136563Y261143D01*
X136544Y261166D01*
X136521Y261193D01*
X136489Y261230D01*
X136456Y261272D01*
X136419Y261313D01*
X136383Y261369D01*
X136336Y261425D01*
X136295Y261485D01*
X136244Y261549D01*
X136198Y261623D01*
X136147Y261697D01*
X136045Y261864D01*
X136040Y261868D01*
X136031Y261882D01*
X136017Y261910D01*
X136003Y261942D01*
X135980Y261979D01*
X135953Y262026D01*
X135925Y262081D01*
X135892Y262136D01*
X135828Y262266D01*
X135763Y262404D01*
X135698Y262548D01*
X135643Y262687D01*
X136401D01*
X136406Y262677D01*
D02*
G37*
G36*
X188854Y99703D02*
X187985D01*
X184629Y104728D01*
Y99703D01*
X183815D01*
Y106101D01*
X184689D01*
X188040Y101080D01*
Y106101D01*
X188854D01*
Y99703D01*
D02*
G37*
G36*
X179733Y106202D02*
X179802D01*
X179890Y106193D01*
X179992Y106184D01*
X180107Y106170D01*
X180228Y106156D01*
X180362Y106133D01*
X180496Y106105D01*
X180639Y106068D01*
X180778Y106031D01*
X180917Y105980D01*
X181055Y105925D01*
X181189Y105860D01*
X181314Y105786D01*
X181323Y105782D01*
X181342Y105768D01*
X181374Y105740D01*
X181420Y105708D01*
X181476Y105666D01*
X181536Y105611D01*
X181605Y105550D01*
X181679Y105477D01*
X181758Y105393D01*
X181836Y105305D01*
X181920Y105204D01*
X182003Y105097D01*
X182082Y104977D01*
X182160Y104852D01*
X182234Y104714D01*
X182299Y104570D01*
Y104566D01*
X182303Y104561D01*
X182313Y104533D01*
X182331Y104492D01*
X182350Y104432D01*
X182377Y104358D01*
X182405Y104270D01*
X182437Y104168D01*
X182465Y104057D01*
X182498Y103933D01*
X182530Y103798D01*
X182558Y103660D01*
X182585Y103507D01*
X182604Y103355D01*
X182622Y103193D01*
X182632Y103026D01*
X182636Y102855D01*
Y102851D01*
Y102842D01*
Y102828D01*
Y102809D01*
Y102786D01*
X182632Y102758D01*
Y102689D01*
X182622Y102601D01*
X182618Y102499D01*
X182604Y102384D01*
X182590Y102259D01*
X182567Y102130D01*
X182544Y101991D01*
X182511Y101843D01*
X182474Y101695D01*
X182433Y101547D01*
X182382Y101399D01*
X182322Y101256D01*
X182257Y101112D01*
X182253Y101103D01*
X182239Y101080D01*
X182215Y101043D01*
X182188Y100988D01*
X182146Y100928D01*
X182100Y100858D01*
X182040Y100775D01*
X181975Y100692D01*
X181906Y100604D01*
X181823Y100507D01*
X181735Y100414D01*
X181638Y100322D01*
X181531Y100230D01*
X181420Y100142D01*
X181300Y100059D01*
X181171Y99980D01*
X181161Y99975D01*
X181138Y99962D01*
X181101Y99943D01*
X181046Y99920D01*
X180981Y99888D01*
X180903Y99855D01*
X180810Y99823D01*
X180713Y99786D01*
X180602Y99749D01*
X180482Y99717D01*
X180352Y99679D01*
X180219Y99652D01*
X180075Y99629D01*
X179927Y99610D01*
X179775Y99596D01*
X179618Y99592D01*
X179553D01*
X179525Y99596D01*
X179456Y99601D01*
X179373Y99606D01*
X179280Y99619D01*
X179174Y99633D01*
X179053Y99652D01*
X178929Y99679D01*
X178799Y99712D01*
X178665Y99749D01*
X178531Y99800D01*
X178397Y99855D01*
X178258Y99920D01*
X178129Y99994D01*
X178004Y100082D01*
X177995Y100086D01*
X177976Y100105D01*
X177939Y100133D01*
X177898Y100174D01*
X177842Y100220D01*
X177782Y100285D01*
X177718Y100354D01*
X177644Y100438D01*
X177570Y100530D01*
X177491Y100632D01*
X177417Y100747D01*
X177343Y100868D01*
X177269Y101002D01*
X177204Y101145D01*
X177140Y101298D01*
X177089Y101459D01*
X177921Y101653D01*
X177926Y101644D01*
X177930Y101621D01*
X177944Y101589D01*
X177963Y101538D01*
X177986Y101482D01*
X178013Y101418D01*
X178050Y101344D01*
X178087Y101265D01*
X178129Y101182D01*
X178180Y101099D01*
X178231Y101016D01*
X178291Y100928D01*
X178356Y100849D01*
X178420Y100771D01*
X178494Y100701D01*
X178573Y100636D01*
X178577Y100632D01*
X178591Y100623D01*
X178614Y100609D01*
X178647Y100585D01*
X178688Y100562D01*
X178739Y100535D01*
X178799Y100507D01*
X178864Y100475D01*
X178938Y100447D01*
X179017Y100419D01*
X179104Y100391D01*
X179197Y100368D01*
X179298Y100345D01*
X179405Y100331D01*
X179516Y100322D01*
X179636Y100317D01*
X179705D01*
X179756Y100322D01*
X179821Y100327D01*
X179895Y100336D01*
X179978Y100345D01*
X180066Y100364D01*
X180163Y100382D01*
X180260Y100405D01*
X180362Y100433D01*
X180468Y100465D01*
X180570Y100507D01*
X180672Y100558D01*
X180773Y100609D01*
X180870Y100673D01*
X180875Y100678D01*
X180893Y100687D01*
X180917Y100710D01*
X180949Y100738D01*
X180991Y100775D01*
X181037Y100817D01*
X181088Y100868D01*
X181143Y100923D01*
X181199Y100988D01*
X181259Y101057D01*
X181314Y101136D01*
X181370Y101223D01*
X181425Y101311D01*
X181476Y101408D01*
X181522Y101510D01*
X181564Y101621D01*
Y101626D01*
X181573Y101649D01*
X181582Y101681D01*
X181596Y101723D01*
X181610Y101778D01*
X181628Y101843D01*
X181642Y101917D01*
X181661Y102000D01*
X181679Y102088D01*
X181698Y102185D01*
X181716Y102287D01*
X181730Y102393D01*
X181753Y102615D01*
X181758Y102731D01*
X181763Y102851D01*
Y102860D01*
Y102888D01*
Y102929D01*
X181758Y102989D01*
X181753Y103059D01*
X181749Y103142D01*
X181744Y103234D01*
X181735Y103331D01*
X181721Y103442D01*
X181707Y103558D01*
X181661Y103794D01*
X181638Y103919D01*
X181605Y104039D01*
X181568Y104159D01*
X181527Y104275D01*
X181522Y104279D01*
X181518Y104302D01*
X181504Y104330D01*
X181481Y104372D01*
X181457Y104423D01*
X181425Y104483D01*
X181388Y104547D01*
X181346Y104617D01*
X181296Y104686D01*
X181240Y104760D01*
X181180Y104838D01*
X181115Y104913D01*
X181041Y104986D01*
X180963Y105056D01*
X180879Y105120D01*
X180787Y105181D01*
X180783Y105185D01*
X180764Y105195D01*
X180736Y105208D01*
X180699Y105227D01*
X180653Y105250D01*
X180598Y105278D01*
X180533Y105301D01*
X180464Y105329D01*
X180385Y105361D01*
X180302Y105384D01*
X180209Y105412D01*
X180117Y105435D01*
X180015Y105453D01*
X179913Y105467D01*
X179807Y105477D01*
X179701Y105481D01*
X179668D01*
X179631Y105477D01*
X179580D01*
X179520Y105467D01*
X179451Y105458D01*
X179368Y105449D01*
X179285Y105430D01*
X179192Y105407D01*
X179095Y105379D01*
X178993Y105347D01*
X178892Y105310D01*
X178790Y105264D01*
X178688Y105208D01*
X178591Y105144D01*
X178494Y105074D01*
X178490Y105070D01*
X178471Y105056D01*
X178448Y105033D01*
X178416Y104996D01*
X178374Y104954D01*
X178328Y104903D01*
X178277Y104838D01*
X178226Y104769D01*
X178171Y104686D01*
X178115Y104598D01*
X178055Y104496D01*
X178004Y104385D01*
X177949Y104270D01*
X177903Y104141D01*
X177861Y104006D01*
X177824Y103858D01*
X176978Y104071D01*
Y104076D01*
X176982Y104085D01*
X176987Y104099D01*
X176992Y104117D01*
X176996Y104141D01*
X177006Y104173D01*
X177029Y104242D01*
X177061Y104330D01*
X177098Y104427D01*
X177144Y104538D01*
X177200Y104658D01*
X177260Y104788D01*
X177329Y104917D01*
X177408Y105047D01*
X177496Y105181D01*
X177593Y105310D01*
X177699Y105435D01*
X177815Y105550D01*
X177939Y105661D01*
X177949Y105666D01*
X177972Y105684D01*
X178009Y105712D01*
X178064Y105745D01*
X178129Y105786D01*
X178212Y105832D01*
X178305Y105883D01*
X178411Y105934D01*
X178526Y105985D01*
X178656Y106036D01*
X178795Y106082D01*
X178943Y106124D01*
X179104Y106156D01*
X179271Y106184D01*
X179447Y106202D01*
X179631Y106207D01*
X179701D01*
X179733Y106202D01*
D02*
G37*
G36*
X194785Y99703D02*
X190162D01*
Y100456D01*
X193939D01*
Y102416D01*
X190403D01*
Y103170D01*
X193939D01*
Y105347D01*
X190014D01*
Y106101D01*
X194785D01*
Y99703D01*
D02*
G37*
G36*
X174084Y101099D02*
X174089Y101103D01*
X174098Y101112D01*
X174112Y101126D01*
X174135Y101145D01*
X174163Y101168D01*
X174200Y101200D01*
X174241Y101233D01*
X174283Y101270D01*
X174338Y101307D01*
X174394Y101353D01*
X174454Y101395D01*
X174519Y101445D01*
X174592Y101492D01*
X174667Y101543D01*
X174833Y101644D01*
X174837Y101649D01*
X174851Y101658D01*
X174879Y101672D01*
X174911Y101686D01*
X174949Y101709D01*
X174995Y101737D01*
X175050Y101764D01*
X175106Y101797D01*
X175235Y101861D01*
X175374Y101926D01*
X175517Y101991D01*
X175656Y102046D01*
Y101288D01*
X175646Y101284D01*
X175628Y101274D01*
X175591Y101256D01*
X175545Y101233D01*
X175489Y101205D01*
X175420Y101168D01*
X175346Y101126D01*
X175268Y101080D01*
X175180Y101025D01*
X175087Y100969D01*
X174893Y100840D01*
X174694Y100696D01*
X174505Y100539D01*
X174500Y100535D01*
X174482Y100521D01*
X174459Y100498D01*
X174426Y100465D01*
X174384Y100424D01*
X174338Y100378D01*
X174287Y100322D01*
X174232Y100267D01*
X174177Y100202D01*
X174116Y100133D01*
X174001Y99989D01*
X173895Y99837D01*
X173848Y99758D01*
X173807Y99679D01*
X173298D01*
Y106101D01*
X174084D01*
Y101099D01*
D02*
G37*
G36*
X351913Y43303D02*
X351982Y43298D01*
X352066Y43294D01*
X352158Y43280D01*
X352264Y43266D01*
X352385Y43247D01*
X352509Y43220D01*
X352639Y43187D01*
X352773Y43150D01*
X352907Y43099D01*
X353041Y43044D01*
X353180Y42979D01*
X353309Y42905D01*
X353434Y42818D01*
X353443Y42813D01*
X353462Y42794D01*
X353499Y42767D01*
X353540Y42725D01*
X353596Y42679D01*
X353656Y42614D01*
X353721Y42545D01*
X353795Y42462D01*
X353868Y42369D01*
X353947Y42267D01*
X354021Y42152D01*
X354095Y42032D01*
X354169Y41898D01*
X354234Y41754D01*
X354298Y41602D01*
X354349Y41440D01*
X353517Y41246D01*
X353513Y41255D01*
X353508Y41278D01*
X353494Y41311D01*
X353476Y41361D01*
X353452Y41417D01*
X353425Y41482D01*
X353388Y41556D01*
X353351Y41634D01*
X353309Y41717D01*
X353258Y41800D01*
X353207Y41884D01*
X353147Y41972D01*
X353083Y42050D01*
X353018Y42129D01*
X352944Y42198D01*
X352865Y42263D01*
X352861Y42267D01*
X352847Y42277D01*
X352824Y42291D01*
X352791Y42314D01*
X352750Y42337D01*
X352699Y42365D01*
X352639Y42392D01*
X352574Y42425D01*
X352500Y42452D01*
X352422Y42480D01*
X352334Y42508D01*
X352241Y42531D01*
X352140Y42554D01*
X352033Y42568D01*
X351922Y42577D01*
X351802Y42582D01*
X351733D01*
X351682Y42577D01*
X351617Y42572D01*
X351543Y42563D01*
X351460Y42554D01*
X351372Y42536D01*
X351275Y42517D01*
X351178Y42494D01*
X351076Y42466D01*
X350970Y42434D01*
X350868Y42392D01*
X350767Y42341D01*
X350665Y42291D01*
X350568Y42226D01*
X350563Y42221D01*
X350545Y42212D01*
X350522Y42189D01*
X350489Y42161D01*
X350448Y42124D01*
X350401Y42083D01*
X350351Y42032D01*
X350295Y41976D01*
X350240Y41912D01*
X350179Y41842D01*
X350124Y41764D01*
X350069Y41676D01*
X350013Y41588D01*
X349962Y41491D01*
X349916Y41389D01*
X349874Y41278D01*
Y41273D01*
X349865Y41250D01*
X349856Y41218D01*
X349842Y41176D01*
X349828Y41121D01*
X349810Y41056D01*
X349796Y40982D01*
X349777Y40899D01*
X349759Y40811D01*
X349740Y40714D01*
X349722Y40613D01*
X349708Y40506D01*
X349685Y40284D01*
X349680Y40169D01*
X349676Y40048D01*
Y40039D01*
Y40012D01*
Y39970D01*
X349680Y39910D01*
X349685Y39841D01*
X349689Y39757D01*
X349694Y39665D01*
X349703Y39568D01*
X349717Y39457D01*
X349731Y39341D01*
X349777Y39105D01*
X349800Y38981D01*
X349833Y38860D01*
X349870Y38740D01*
X349911Y38625D01*
X349916Y38620D01*
X349921Y38597D01*
X349935Y38569D01*
X349958Y38528D01*
X349981Y38477D01*
X350013Y38417D01*
X350050Y38352D01*
X350092Y38283D01*
X350143Y38213D01*
X350198Y38139D01*
X350258Y38061D01*
X350323Y37987D01*
X350397Y37913D01*
X350475Y37843D01*
X350559Y37779D01*
X350651Y37719D01*
X350656Y37714D01*
X350674Y37705D01*
X350702Y37691D01*
X350739Y37672D01*
X350785Y37649D01*
X350841Y37622D01*
X350905Y37598D01*
X350975Y37571D01*
X351053Y37538D01*
X351136Y37515D01*
X351229Y37487D01*
X351321Y37464D01*
X351423Y37446D01*
X351525Y37432D01*
X351631Y37423D01*
X351737Y37418D01*
X351770D01*
X351807Y37423D01*
X351858D01*
X351918Y37432D01*
X351987Y37441D01*
X352070Y37450D01*
X352153Y37469D01*
X352246Y37492D01*
X352343Y37520D01*
X352445Y37552D01*
X352546Y37589D01*
X352648Y37635D01*
X352750Y37691D01*
X352847Y37756D01*
X352944Y37825D01*
X352949Y37829D01*
X352967Y37843D01*
X352990Y37866D01*
X353022Y37903D01*
X353064Y37945D01*
X353110Y37996D01*
X353161Y38061D01*
X353212Y38130D01*
X353268Y38213D01*
X353323Y38301D01*
X353383Y38403D01*
X353434Y38514D01*
X353489Y38629D01*
X353536Y38759D01*
X353577Y38893D01*
X353614Y39041D01*
X354460Y38828D01*
Y38823D01*
X354456Y38814D01*
X354451Y38800D01*
X354446Y38782D01*
X354442Y38759D01*
X354432Y38726D01*
X354409Y38657D01*
X354377Y38569D01*
X354340Y38472D01*
X354294Y38361D01*
X354238Y38241D01*
X354178Y38112D01*
X354109Y37982D01*
X354030Y37853D01*
X353942Y37719D01*
X353845Y37589D01*
X353739Y37464D01*
X353624Y37349D01*
X353499Y37238D01*
X353489Y37233D01*
X353466Y37215D01*
X353429Y37187D01*
X353374Y37155D01*
X353309Y37113D01*
X353226Y37067D01*
X353134Y37016D01*
X353027Y36965D01*
X352912Y36914D01*
X352782Y36863D01*
X352644Y36817D01*
X352495Y36776D01*
X352334Y36743D01*
X352167Y36715D01*
X351992Y36697D01*
X351807Y36692D01*
X351737D01*
X351705Y36697D01*
X351636D01*
X351548Y36706D01*
X351446Y36715D01*
X351331Y36729D01*
X351210Y36743D01*
X351076Y36766D01*
X350942Y36794D01*
X350799Y36831D01*
X350660Y36868D01*
X350522Y36919D01*
X350383Y36974D01*
X350249Y37039D01*
X350124Y37113D01*
X350115Y37118D01*
X350096Y37132D01*
X350064Y37159D01*
X350018Y37192D01*
X349962Y37233D01*
X349902Y37289D01*
X349833Y37349D01*
X349759Y37423D01*
X349680Y37506D01*
X349602Y37594D01*
X349519Y37696D01*
X349435Y37802D01*
X349357Y37922D01*
X349278Y38047D01*
X349204Y38186D01*
X349139Y38329D01*
Y38333D01*
X349135Y38338D01*
X349126Y38366D01*
X349107Y38407D01*
X349089Y38468D01*
X349061Y38542D01*
X349033Y38629D01*
X349001Y38731D01*
X348973Y38842D01*
X348941Y38967D01*
X348908Y39101D01*
X348881Y39239D01*
X348853Y39392D01*
X348834Y39545D01*
X348816Y39706D01*
X348806Y39873D01*
X348802Y40044D01*
Y40048D01*
Y40058D01*
Y40072D01*
Y40090D01*
Y40113D01*
X348806Y40141D01*
Y40210D01*
X348816Y40298D01*
X348820Y40400D01*
X348834Y40515D01*
X348848Y40640D01*
X348871Y40770D01*
X348894Y40908D01*
X348927Y41056D01*
X348964Y41204D01*
X349005Y41352D01*
X349056Y41500D01*
X349116Y41643D01*
X349181Y41787D01*
X349186Y41796D01*
X349199Y41819D01*
X349223Y41856D01*
X349250Y41912D01*
X349292Y41972D01*
X349338Y42041D01*
X349398Y42124D01*
X349463Y42207D01*
X349532Y42295D01*
X349616Y42392D01*
X349703Y42485D01*
X349800Y42577D01*
X349907Y42670D01*
X350018Y42757D01*
X350138Y42841D01*
X350267Y42919D01*
X350277Y42924D01*
X350300Y42938D01*
X350337Y42956D01*
X350392Y42979D01*
X350457Y43012D01*
X350536Y43044D01*
X350628Y43076D01*
X350725Y43113D01*
X350836Y43150D01*
X350956Y43183D01*
X351086Y43220D01*
X351220Y43247D01*
X351363Y43271D01*
X351511Y43289D01*
X351663Y43303D01*
X351821Y43308D01*
X351885D01*
X351913Y43303D01*
D02*
G37*
G36*
X357391Y43215D02*
X357456Y43211D01*
X357534Y43206D01*
X357622Y43192D01*
X357724Y43178D01*
X357830Y43155D01*
X357946Y43127D01*
X358061Y43095D01*
X358186Y43053D01*
X358306Y43003D01*
X358427Y42942D01*
X358542Y42878D01*
X358653Y42799D01*
X358759Y42707D01*
X358764Y42702D01*
X358783Y42684D01*
X358810Y42656D01*
X358843Y42614D01*
X358884Y42568D01*
X358931Y42508D01*
X358981Y42439D01*
X359032Y42360D01*
X359078Y42272D01*
X359129Y42175D01*
X359175Y42069D01*
X359217Y41958D01*
X359249Y41838D01*
X359277Y41713D01*
X359296Y41579D01*
X359300Y41440D01*
Y41435D01*
Y41421D01*
Y41403D01*
Y41375D01*
X359296Y41338D01*
X359291Y41301D01*
X359286Y41255D01*
X359282Y41204D01*
X359263Y41089D01*
X359236Y40959D01*
X359194Y40825D01*
X359143Y40686D01*
Y40682D01*
X359134Y40668D01*
X359125Y40649D01*
X359111Y40622D01*
X359097Y40589D01*
X359074Y40548D01*
X359051Y40501D01*
X359018Y40451D01*
X358986Y40395D01*
X358949Y40335D01*
X358857Y40201D01*
X358806Y40132D01*
X358750Y40058D01*
X358685Y39984D01*
X358621Y39905D01*
X358616Y39901D01*
X358602Y39887D01*
X358584Y39864D01*
X358551Y39831D01*
X358510Y39790D01*
X358459Y39739D01*
X358404Y39679D01*
X358334Y39609D01*
X358256Y39535D01*
X358163Y39452D01*
X358066Y39360D01*
X357955Y39258D01*
X357835Y39152D01*
X357705Y39036D01*
X357562Y38911D01*
X357410Y38782D01*
X357400Y38777D01*
X357377Y38754D01*
X357345Y38726D01*
X357299Y38685D01*
X357239Y38639D01*
X357178Y38583D01*
X357109Y38523D01*
X357035Y38458D01*
X356878Y38324D01*
X356804Y38255D01*
X356730Y38190D01*
X356661Y38125D01*
X356601Y38070D01*
X356545Y38019D01*
X356503Y37973D01*
X356494Y37964D01*
X356471Y37936D01*
X356434Y37894D01*
X356388Y37843D01*
X356337Y37779D01*
X356282Y37709D01*
X356226Y37631D01*
X356175Y37552D01*
X359310D01*
Y36799D01*
X355084D01*
Y36803D01*
Y36813D01*
Y36826D01*
Y36845D01*
Y36873D01*
X355089Y36900D01*
X355093Y36974D01*
X355103Y37053D01*
X355117Y37145D01*
X355140Y37242D01*
X355172Y37339D01*
Y37344D01*
X355181Y37358D01*
X355191Y37381D01*
X355205Y37413D01*
X355218Y37455D01*
X355242Y37501D01*
X355269Y37552D01*
X355297Y37608D01*
X355329Y37672D01*
X355371Y37737D01*
X355459Y37880D01*
X355565Y38033D01*
X355690Y38190D01*
X355695Y38195D01*
X355708Y38209D01*
X355727Y38232D01*
X355755Y38264D01*
X355792Y38306D01*
X355838Y38352D01*
X355889Y38407D01*
X355953Y38468D01*
X356023Y38537D01*
X356097Y38611D01*
X356180Y38689D01*
X356272Y38777D01*
X356374Y38865D01*
X356480Y38958D01*
X356596Y39055D01*
X356716Y39156D01*
X356721Y39161D01*
X356730Y39165D01*
X356744Y39179D01*
X356762Y39193D01*
X356786Y39216D01*
X356813Y39239D01*
X356883Y39300D01*
X356970Y39369D01*
X357063Y39457D01*
X357169Y39549D01*
X357280Y39651D01*
X357400Y39757D01*
X357516Y39868D01*
X357636Y39979D01*
X357747Y40095D01*
X357858Y40206D01*
X357955Y40312D01*
X358047Y40418D01*
X358121Y40515D01*
X358126Y40520D01*
X358135Y40539D01*
X358154Y40566D01*
X358182Y40599D01*
X358209Y40645D01*
X358237Y40696D01*
X358274Y40756D01*
X358306Y40820D01*
X358339Y40890D01*
X358376Y40964D01*
X358436Y41126D01*
X358459Y41209D01*
X358477Y41292D01*
X358487Y41375D01*
X358491Y41458D01*
Y41463D01*
Y41482D01*
Y41505D01*
X358487Y41537D01*
X358482Y41579D01*
X358473Y41625D01*
X358464Y41676D01*
X358450Y41731D01*
X358431Y41791D01*
X358408Y41856D01*
X358380Y41921D01*
X358348Y41985D01*
X358311Y42055D01*
X358265Y42119D01*
X358214Y42184D01*
X358154Y42244D01*
X358149Y42249D01*
X358140Y42258D01*
X358121Y42272D01*
X358094Y42295D01*
X358061Y42318D01*
X358020Y42346D01*
X357974Y42378D01*
X357923Y42406D01*
X357863Y42439D01*
X357798Y42466D01*
X357724Y42494D01*
X357650Y42517D01*
X357567Y42540D01*
X357479Y42554D01*
X357387Y42563D01*
X357289Y42568D01*
X357234D01*
X357197Y42563D01*
X357146Y42559D01*
X357091Y42549D01*
X357030Y42540D01*
X356961Y42526D01*
X356892Y42508D01*
X356818Y42485D01*
X356744Y42457D01*
X356665Y42425D01*
X356591Y42383D01*
X356517Y42337D01*
X356443Y42286D01*
X356379Y42226D01*
X356374Y42221D01*
X356365Y42212D01*
X356346Y42189D01*
X356328Y42166D01*
X356300Y42129D01*
X356272Y42087D01*
X356240Y42036D01*
X356212Y41981D01*
X356180Y41921D01*
X356147Y41847D01*
X356120Y41773D01*
X356092Y41690D01*
X356074Y41597D01*
X356055Y41500D01*
X356046Y41398D01*
X356041Y41287D01*
X355232Y41371D01*
Y41375D01*
Y41380D01*
X355237Y41394D01*
Y41412D01*
X355242Y41458D01*
X355255Y41519D01*
X355269Y41592D01*
X355288Y41680D01*
X355311Y41777D01*
X355339Y41879D01*
X355376Y41990D01*
X355417Y42101D01*
X355468Y42217D01*
X355528Y42332D01*
X355593Y42443D01*
X355671Y42549D01*
X355755Y42651D01*
X355852Y42744D01*
X355856Y42748D01*
X355875Y42762D01*
X355907Y42790D01*
X355949Y42818D01*
X356004Y42854D01*
X356069Y42896D01*
X356147Y42938D01*
X356235Y42984D01*
X356337Y43026D01*
X356443Y43067D01*
X356564Y43109D01*
X356693Y43146D01*
X356832Y43178D01*
X356980Y43201D01*
X357137Y43215D01*
X357303Y43220D01*
X357345D01*
X357391Y43215D01*
D02*
G37*
G36*
X344891Y37552D02*
X348039D01*
Y36799D01*
X344045D01*
Y43197D01*
X344891D01*
Y37552D01*
D02*
G37*
G36*
X336757Y109509D02*
X336826D01*
X336914Y109500D01*
X337015Y109490D01*
X337131Y109477D01*
X337251Y109463D01*
X337385Y109440D01*
X337519Y109412D01*
X337663Y109375D01*
X337801Y109338D01*
X337940Y109287D01*
X338079Y109232D01*
X338213Y109167D01*
X338338Y109093D01*
X338347Y109088D01*
X338365Y109074D01*
X338398Y109047D01*
X338444Y109014D01*
X338499Y108973D01*
X338559Y108917D01*
X338629Y108857D01*
X338703Y108783D01*
X338781Y108700D01*
X338860Y108612D01*
X338943Y108511D01*
X339026Y108404D01*
X339105Y108284D01*
X339184Y108159D01*
X339258Y108020D01*
X339322Y107877D01*
Y107872D01*
X339327Y107868D01*
X339336Y107840D01*
X339355Y107799D01*
X339373Y107739D01*
X339401Y107664D01*
X339428Y107577D01*
X339461Y107475D01*
X339489Y107364D01*
X339521Y107239D01*
X339553Y107105D01*
X339581Y106966D01*
X339609Y106814D01*
X339627Y106661D01*
X339646Y106500D01*
X339655Y106333D01*
X339660Y106162D01*
Y106158D01*
Y106148D01*
Y106134D01*
Y106116D01*
Y106093D01*
X339655Y106065D01*
Y105996D01*
X339646Y105908D01*
X339641Y105806D01*
X339627Y105691D01*
X339613Y105566D01*
X339590Y105436D01*
X339567Y105298D01*
X339535Y105150D01*
X339498Y105002D01*
X339456Y104854D01*
X339405Y104706D01*
X339345Y104563D01*
X339281Y104419D01*
X339276Y104410D01*
X339262Y104387D01*
X339239Y104350D01*
X339211Y104295D01*
X339170Y104234D01*
X339123Y104165D01*
X339063Y104082D01*
X338999Y103999D01*
X338929Y103911D01*
X338846Y103814D01*
X338758Y103721D01*
X338661Y103629D01*
X338555Y103536D01*
X338444Y103448D01*
X338324Y103365D01*
X338194Y103287D01*
X338185Y103282D01*
X338162Y103268D01*
X338125Y103250D01*
X338069Y103227D01*
X338005Y103194D01*
X337926Y103162D01*
X337834Y103130D01*
X337737Y103093D01*
X337626Y103056D01*
X337505Y103023D01*
X337376Y102986D01*
X337242Y102958D01*
X337099Y102935D01*
X336951Y102917D01*
X336798Y102903D01*
X336641Y102898D01*
X336576D01*
X336549Y102903D01*
X336479Y102908D01*
X336396Y102912D01*
X336303Y102926D01*
X336197Y102940D01*
X336077Y102958D01*
X335952Y102986D01*
X335823Y103019D01*
X335689Y103056D01*
X335555Y103106D01*
X335421Y103162D01*
X335282Y103227D01*
X335152Y103301D01*
X335028Y103388D01*
X335018Y103393D01*
X335000Y103412D01*
X334963Y103439D01*
X334921Y103481D01*
X334866Y103527D01*
X334806Y103592D01*
X334741Y103661D01*
X334667Y103744D01*
X334593Y103837D01*
X334515Y103939D01*
X334440Y104054D01*
X334367Y104174D01*
X334293Y104308D01*
X334228Y104452D01*
X334163Y104604D01*
X334112Y104766D01*
X334944Y104960D01*
X334949Y104951D01*
X334954Y104928D01*
X334967Y104895D01*
X334986Y104845D01*
X335009Y104789D01*
X335037Y104724D01*
X335074Y104650D01*
X335111Y104572D01*
X335152Y104489D01*
X335203Y104405D01*
X335254Y104322D01*
X335314Y104234D01*
X335379Y104156D01*
X335444Y104077D01*
X335518Y104008D01*
X335596Y103943D01*
X335601Y103939D01*
X335615Y103929D01*
X335638Y103915D01*
X335670Y103892D01*
X335712Y103869D01*
X335763Y103841D01*
X335823Y103814D01*
X335887Y103781D01*
X335961Y103754D01*
X336040Y103726D01*
X336128Y103698D01*
X336220Y103675D01*
X336322Y103652D01*
X336428Y103638D01*
X336539Y103629D01*
X336660Y103624D01*
X336729D01*
X336780Y103629D01*
X336844Y103633D01*
X336918Y103643D01*
X337002Y103652D01*
X337089Y103670D01*
X337187Y103689D01*
X337284Y103712D01*
X337385Y103740D01*
X337492Y103772D01*
X337593Y103814D01*
X337695Y103865D01*
X337797Y103915D01*
X337894Y103980D01*
X337898Y103985D01*
X337917Y103994D01*
X337940Y104017D01*
X337972Y104045D01*
X338014Y104082D01*
X338060Y104123D01*
X338111Y104174D01*
X338167Y104230D01*
X338222Y104295D01*
X338282Y104364D01*
X338338Y104442D01*
X338393Y104530D01*
X338448Y104618D01*
X338499Y104715D01*
X338546Y104817D01*
X338587Y104928D01*
Y104932D01*
X338596Y104956D01*
X338606Y104988D01*
X338619Y105029D01*
X338633Y105085D01*
X338652Y105150D01*
X338666Y105224D01*
X338684Y105307D01*
X338703Y105395D01*
X338721Y105492D01*
X338740Y105594D01*
X338754Y105700D01*
X338777Y105922D01*
X338781Y106037D01*
X338786Y106158D01*
Y106167D01*
Y106194D01*
Y106236D01*
X338781Y106296D01*
X338777Y106365D01*
X338772Y106449D01*
X338768Y106541D01*
X338758Y106638D01*
X338744Y106749D01*
X338731Y106865D01*
X338684Y107100D01*
X338661Y107225D01*
X338629Y107346D01*
X338592Y107466D01*
X338550Y107581D01*
X338546Y107586D01*
X338541Y107609D01*
X338527Y107637D01*
X338504Y107678D01*
X338481Y107729D01*
X338448Y107789D01*
X338411Y107854D01*
X338370Y107923D01*
X338319Y107993D01*
X338264Y108067D01*
X338204Y108145D01*
X338139Y108219D01*
X338065Y108293D01*
X337986Y108363D01*
X337903Y108427D01*
X337811Y108487D01*
X337806Y108492D01*
X337787Y108501D01*
X337760Y108515D01*
X337723Y108534D01*
X337677Y108557D01*
X337621Y108584D01*
X337556Y108608D01*
X337487Y108635D01*
X337408Y108668D01*
X337325Y108691D01*
X337233Y108719D01*
X337140Y108742D01*
X337038Y108760D01*
X336937Y108774D01*
X336830Y108783D01*
X336724Y108788D01*
X336692D01*
X336655Y108783D01*
X336604D01*
X336544Y108774D01*
X336475Y108765D01*
X336391Y108756D01*
X336308Y108737D01*
X336216Y108714D01*
X336119Y108686D01*
X336017Y108654D01*
X335915Y108617D01*
X335813Y108571D01*
X335712Y108515D01*
X335615Y108450D01*
X335518Y108381D01*
X335513Y108376D01*
X335494Y108363D01*
X335471Y108339D01*
X335439Y108302D01*
X335397Y108261D01*
X335351Y108210D01*
X335300Y108145D01*
X335249Y108076D01*
X335194Y107993D01*
X335139Y107905D01*
X335079Y107803D01*
X335028Y107692D01*
X334972Y107577D01*
X334926Y107447D01*
X334884Y107313D01*
X334847Y107165D01*
X334001Y107378D01*
Y107382D01*
X334006Y107392D01*
X334011Y107406D01*
X334015Y107424D01*
X334020Y107447D01*
X334029Y107480D01*
X334052Y107549D01*
X334085Y107637D01*
X334122Y107734D01*
X334168Y107845D01*
X334223Y107965D01*
X334283Y108094D01*
X334353Y108224D01*
X334431Y108353D01*
X334519Y108487D01*
X334616Y108617D01*
X334723Y108742D01*
X334838Y108857D01*
X334963Y108968D01*
X334972Y108973D01*
X334995Y108991D01*
X335032Y109019D01*
X335088Y109051D01*
X335152Y109093D01*
X335236Y109139D01*
X335328Y109190D01*
X335434Y109241D01*
X335550Y109292D01*
X335679Y109343D01*
X335818Y109389D01*
X335966Y109430D01*
X336128Y109463D01*
X336294Y109490D01*
X336470Y109509D01*
X336655Y109514D01*
X336724D01*
X336757Y109509D01*
D02*
G37*
G36*
X344417Y103009D02*
X343571D01*
Y108654D01*
X340422D01*
Y109407D01*
X344417D01*
Y103009D01*
D02*
G37*
G36*
X331107Y104405D02*
X331112Y104410D01*
X331121Y104419D01*
X331135Y104433D01*
X331158Y104452D01*
X331186Y104475D01*
X331223Y104507D01*
X331265Y104539D01*
X331306Y104577D01*
X331362Y104614D01*
X331417Y104660D01*
X331477Y104701D01*
X331542Y104752D01*
X331616Y104798D01*
X331690Y104849D01*
X331856Y104951D01*
X331861Y104956D01*
X331875Y104965D01*
X331903Y104979D01*
X331935Y104993D01*
X331972Y105016D01*
X332018Y105043D01*
X332074Y105071D01*
X332129Y105104D01*
X332259Y105168D01*
X332397Y105233D01*
X332541Y105298D01*
X332679Y105353D01*
Y104595D01*
X332670Y104590D01*
X332651Y104581D01*
X332615Y104563D01*
X332568Y104539D01*
X332513Y104512D01*
X332444Y104475D01*
X332369Y104433D01*
X332291Y104387D01*
X332203Y104332D01*
X332111Y104276D01*
X331917Y104147D01*
X331718Y104003D01*
X331528Y103846D01*
X331524Y103841D01*
X331505Y103828D01*
X331482Y103805D01*
X331450Y103772D01*
X331408Y103730D01*
X331362Y103684D01*
X331311Y103629D01*
X331255Y103573D01*
X331200Y103509D01*
X331140Y103439D01*
X331024Y103296D01*
X330918Y103143D01*
X330872Y103065D01*
X330830Y102986D01*
X330322D01*
Y109407D01*
X331107D01*
Y104405D01*
D02*
G37*
%LPC*%
G36*
X371196Y385398D02*
X369282D01*
X369236Y385394D01*
X369176D01*
X369116Y385389D01*
X369047Y385384D01*
X368903Y385371D01*
X368751Y385348D01*
X368603Y385320D01*
X368538Y385301D01*
X368473Y385283D01*
X368469D01*
X368459Y385278D01*
X368441Y385269D01*
X368418Y385260D01*
X368390Y385246D01*
X368362Y385232D01*
X368288Y385190D01*
X368205Y385135D01*
X368122Y385070D01*
X368043Y384991D01*
X367974Y384899D01*
Y384894D01*
X367965Y384885D01*
X367960Y384871D01*
X367946Y384853D01*
X367932Y384830D01*
X367919Y384797D01*
X367886Y384728D01*
X367858Y384645D01*
X367831Y384548D01*
X367812Y384441D01*
X367803Y384326D01*
Y384321D01*
Y384307D01*
Y384284D01*
X367808Y384252D01*
X367812Y384210D01*
X367821Y384169D01*
X367831Y384118D01*
X367845Y384062D01*
X367863Y384007D01*
X367886Y383947D01*
X367909Y383882D01*
X367942Y383822D01*
X367983Y383757D01*
X368025Y383697D01*
X368076Y383637D01*
X368136Y383582D01*
X368140Y383577D01*
X368150Y383568D01*
X368173Y383554D01*
X368196Y383535D01*
X368233Y383512D01*
X368279Y383489D01*
X368330Y383461D01*
X368390Y383434D01*
X368455Y383406D01*
X368533Y383378D01*
X368621Y383355D01*
X368714Y383332D01*
X368815Y383313D01*
X368926Y383300D01*
X369047Y383290D01*
X369176Y383286D01*
X371196D01*
Y385398D01*
D02*
G37*
G36*
X377169Y385620D02*
X375440D01*
X375384Y385616D01*
X375320Y385611D01*
X375241Y385602D01*
X375158Y385592D01*
X375065Y385583D01*
X374876Y385546D01*
X374779Y385523D01*
X374682Y385491D01*
X374589Y385458D01*
X374501Y385417D01*
X374423Y385371D01*
X374353Y385315D01*
X374349Y385311D01*
X374340Y385301D01*
X374321Y385283D01*
X374298Y385260D01*
X374275Y385227D01*
X374243Y385190D01*
X374210Y385144D01*
X374178Y385093D01*
X374145Y385033D01*
X374118Y384973D01*
X374085Y384899D01*
X374062Y384825D01*
X374039Y384742D01*
X374021Y384649D01*
X374011Y384557D01*
X374007Y384455D01*
Y384451D01*
Y384437D01*
Y384418D01*
X374011Y384386D01*
Y384354D01*
X374016Y384312D01*
X374025Y384266D01*
X374030Y384220D01*
X374058Y384113D01*
X374095Y383998D01*
X374141Y383882D01*
X374173Y383827D01*
X374210Y383771D01*
Y383767D01*
X374219Y383757D01*
X374233Y383743D01*
X374247Y383725D01*
X374293Y383674D01*
X374353Y383614D01*
X374432Y383554D01*
X374520Y383489D01*
X374626Y383434D01*
X374746Y383392D01*
X374751D01*
X374756Y383387D01*
X374770D01*
X374788Y383383D01*
X374811Y383378D01*
X374843Y383374D01*
X374880Y383369D01*
X374927Y383360D01*
X374977Y383355D01*
X375033Y383350D01*
X375098Y383346D01*
X375172Y383341D01*
X375250Y383337D01*
X375338D01*
X375431Y383332D01*
X377169D01*
Y385620D01*
D02*
G37*
G36*
X362806Y388357D02*
X362764D01*
X362741Y388352D01*
X362713D01*
X362649Y388348D01*
X362565Y388338D01*
X362473Y388320D01*
X362366Y388302D01*
X362251Y388274D01*
X362131Y388237D01*
X362001Y388195D01*
X361872Y388140D01*
X361743Y388075D01*
X361608Y387996D01*
X361479Y387909D01*
X361354Y387802D01*
X361234Y387687D01*
X361225Y387677D01*
X361206Y387654D01*
X361179Y387617D01*
X361137Y387562D01*
X361091Y387492D01*
X361040Y387409D01*
X360980Y387312D01*
X360924Y387197D01*
X360864Y387067D01*
X360809Y386928D01*
X360758Y386771D01*
X360712Y386600D01*
X360670Y386415D01*
X360642Y386217D01*
X360619Y386008D01*
X360615Y385782D01*
Y385773D01*
Y385750D01*
Y385708D01*
X360619Y385653D01*
X360624Y385583D01*
X360628Y385505D01*
X360638Y385417D01*
X360647Y385320D01*
X360661Y385218D01*
X360679Y385107D01*
X360702Y384996D01*
X360725Y384881D01*
X360758Y384765D01*
X360795Y384649D01*
X360836Y384534D01*
X360883Y384423D01*
X360887Y384418D01*
X360896Y384395D01*
X360910Y384367D01*
X360933Y384326D01*
X360961Y384280D01*
X360994Y384220D01*
X361031Y384159D01*
X361077Y384090D01*
X361128Y384021D01*
X361188Y383947D01*
X361248Y383873D01*
X361317Y383799D01*
X361396Y383725D01*
X361474Y383651D01*
X361562Y383586D01*
X361655Y383521D01*
X361659Y383517D01*
X361678Y383508D01*
X361706Y383494D01*
X361743Y383471D01*
X361793Y383447D01*
X361849Y383420D01*
X361913Y383387D01*
X361987Y383360D01*
X362071Y383327D01*
X362159Y383300D01*
X362251Y383272D01*
X362353Y383249D01*
X362454Y383226D01*
X362565Y383212D01*
X362681Y383203D01*
X362797Y383198D01*
X362838D01*
X362884Y383203D01*
X362944Y383207D01*
X363023Y383216D01*
X363115Y383230D01*
X363217Y383249D01*
X363324Y383276D01*
X363444Y383309D01*
X363568Y383350D01*
X363693Y383401D01*
X363827Y383457D01*
X363957Y383531D01*
X364086Y383614D01*
X364216Y383706D01*
X364341Y383817D01*
X364350Y383827D01*
X364368Y383845D01*
X364401Y383882D01*
X364442Y383937D01*
X364488Y384002D01*
X364544Y384090D01*
X364604Y384187D01*
X364664Y384303D01*
X364724Y384437D01*
X364784Y384589D01*
X364835Y384760D01*
X364886Y384945D01*
X364928Y385149D01*
X364946Y385260D01*
X364960Y385371D01*
X364974Y385491D01*
X364978Y385616D01*
X364988Y385740D01*
Y385874D01*
Y385879D01*
Y385888D01*
Y385902D01*
Y385925D01*
X364983Y385953D01*
Y385985D01*
Y386022D01*
X364978Y386064D01*
X364969Y386161D01*
X364955Y386277D01*
X364937Y386401D01*
X364909Y386535D01*
X364877Y386679D01*
X364835Y386827D01*
X364784Y386979D01*
X364724Y387132D01*
X364655Y387280D01*
X364572Y387428D01*
X364479Y387566D01*
X364368Y387696D01*
X364359Y387705D01*
X364341Y387724D01*
X364304Y387756D01*
X364257Y387798D01*
X364193Y387848D01*
X364123Y387904D01*
X364035Y387964D01*
X363938Y388024D01*
X363832Y388089D01*
X363712Y388149D01*
X363582Y388204D01*
X363444Y388255D01*
X363300Y388297D01*
X363143Y388329D01*
X362977Y388348D01*
X362806Y388357D01*
D02*
G37*
G36*
X286956Y241906D02*
X284072D01*
X286956Y239899D01*
Y241906D01*
D02*
G37*
G36*
X294027Y133255D02*
X294023D01*
X294009D01*
X293986D01*
X293958Y133251D01*
X293921D01*
X293879Y133246D01*
X293828Y133241D01*
X293778Y133232D01*
X293657Y133214D01*
X293528Y133181D01*
X293389Y133140D01*
X293246Y133084D01*
X293241D01*
X293232Y133075D01*
X293209Y133066D01*
X293186Y133052D01*
X293153Y133033D01*
X293121Y133015D01*
X293038Y132959D01*
X292945Y132895D01*
X292853Y132811D01*
X292761Y132714D01*
X292682Y132608D01*
Y132603D01*
X292673Y132594D01*
X292663Y132576D01*
X292654Y132553D01*
X292640Y132525D01*
X292622Y132493D01*
X292603Y132456D01*
X292589Y132409D01*
X292553Y132312D01*
X292520Y132201D01*
X292502Y132081D01*
X292493Y131956D01*
Y131933D01*
X292497Y131905D01*
Y131873D01*
X292506Y131831D01*
X292516Y131781D01*
X292525Y131725D01*
X292543Y131660D01*
X292562Y131596D01*
X292589Y131526D01*
X292622Y131457D01*
X292659Y131383D01*
X292705Y131314D01*
X292761Y131240D01*
X292821Y131170D01*
X292890Y131101D01*
X292895Y131096D01*
X292908Y131087D01*
X292932Y131069D01*
X292964Y131046D01*
X293006Y131018D01*
X293052Y130985D01*
X293112Y130953D01*
X293177Y130921D01*
X293251Y130888D01*
X293334Y130856D01*
X293422Y130824D01*
X293519Y130796D01*
X293625Y130773D01*
X293736Y130754D01*
X293856Y130745D01*
X293981Y130740D01*
X293990D01*
X294009D01*
X294046D01*
X294092Y130745D01*
X294147Y130750D01*
X294212Y130759D01*
X294282Y130768D01*
X294360Y130787D01*
X294443Y130805D01*
X294527Y130828D01*
X294614Y130856D01*
X294702Y130888D01*
X294785Y130930D01*
X294869Y130981D01*
X294952Y131032D01*
X295026Y131096D01*
X295030Y131101D01*
X295044Y131110D01*
X295063Y131133D01*
X295086Y131161D01*
X295114Y131194D01*
X295146Y131235D01*
X295183Y131286D01*
X295220Y131337D01*
X295252Y131402D01*
X295289Y131466D01*
X295322Y131540D01*
X295349Y131619D01*
X295373Y131702D01*
X295391Y131790D01*
X295405Y131887D01*
X295409Y131984D01*
Y132007D01*
X295405Y132035D01*
Y132072D01*
X295396Y132118D01*
X295391Y132174D01*
X295377Y132229D01*
X295363Y132294D01*
X295340Y132363D01*
X295317Y132437D01*
X295285Y132511D01*
X295248Y132590D01*
X295206Y132663D01*
X295151Y132742D01*
X295095Y132816D01*
X295026Y132885D01*
X295021Y132890D01*
X295007Y132899D01*
X294984Y132918D01*
X294956Y132941D01*
X294919Y132973D01*
X294873Y133001D01*
X294818Y133038D01*
X294758Y133070D01*
X294688Y133103D01*
X294614Y133140D01*
X294531Y133167D01*
X294443Y133195D01*
X294346Y133223D01*
X294244Y133241D01*
X294138Y133251D01*
X294027Y133255D01*
D02*
G37*
G36*
X37726Y135080D02*
X35437D01*
Y133351D01*
X35442Y133296D01*
X35447Y133231D01*
X35456Y133153D01*
X35465Y133069D01*
X35474Y132977D01*
X35511Y132788D01*
X35534Y132690D01*
X35567Y132593D01*
X35599Y132501D01*
X35641Y132413D01*
X35687Y132334D01*
X35742Y132265D01*
X35747Y132261D01*
X35756Y132251D01*
X35775Y132233D01*
X35798Y132210D01*
X35830Y132187D01*
X35867Y132154D01*
X35914Y132122D01*
X35964Y132090D01*
X36024Y132057D01*
X36084Y132029D01*
X36158Y131997D01*
X36232Y131974D01*
X36316Y131951D01*
X36408Y131932D01*
X36501Y131923D01*
X36602Y131918D01*
X36607D01*
X36621D01*
X36639D01*
X36672Y131923D01*
X36704D01*
X36746Y131928D01*
X36792Y131937D01*
X36838Y131941D01*
X36944Y131969D01*
X37060Y132006D01*
X37176Y132052D01*
X37231Y132085D01*
X37286Y132122D01*
X37291D01*
X37300Y132131D01*
X37314Y132145D01*
X37333Y132159D01*
X37383Y132205D01*
X37444Y132265D01*
X37504Y132344D01*
X37568Y132432D01*
X37624Y132538D01*
X37666Y132658D01*
Y132663D01*
X37670Y132667D01*
Y132681D01*
X37675Y132700D01*
X37679Y132723D01*
X37684Y132755D01*
X37689Y132792D01*
X37698Y132838D01*
X37703Y132889D01*
X37707Y132945D01*
X37712Y133009D01*
X37716Y133083D01*
X37721Y133162D01*
Y133250D01*
X37726Y133342D01*
Y135080D01*
D02*
G37*
G36*
X526565Y160288D02*
X526560D01*
X526551D01*
X526528D01*
X526505Y160283D01*
X526472D01*
X526440Y160278D01*
X526352Y160265D01*
X526255Y160242D01*
X526153Y160209D01*
X526047Y160163D01*
X525945Y160103D01*
X525941D01*
X525931Y160094D01*
X525922Y160084D01*
X525904Y160070D01*
X525857Y160029D01*
X525802Y159969D01*
X525737Y159895D01*
X525677Y159807D01*
X525621Y159705D01*
X525575Y159590D01*
Y159585D01*
X525571Y159576D01*
X525566Y159557D01*
X525557Y159530D01*
X525548Y159497D01*
X525538Y159456D01*
X525529Y159409D01*
X525520Y159354D01*
X525511Y159289D01*
X525501Y159220D01*
X525492Y159141D01*
X525483Y159058D01*
X525474Y158970D01*
X525469Y158873D01*
X525464Y158767D01*
Y157181D01*
X527665D01*
Y158910D01*
X527660Y158998D01*
Y159095D01*
X527651Y159187D01*
X527646Y159275D01*
X527642Y159317D01*
X527637Y159349D01*
Y159354D01*
X527632Y159363D01*
Y159377D01*
X527628Y159400D01*
X527614Y159451D01*
X527595Y159520D01*
X527572Y159594D01*
X527545Y159678D01*
X527508Y159756D01*
X527466Y159835D01*
Y159839D01*
X527461Y159844D01*
X527443Y159867D01*
X527415Y159904D01*
X527374Y159950D01*
X527323Y160001D01*
X527263Y160057D01*
X527193Y160107D01*
X527110Y160158D01*
X527105D01*
X527101Y160163D01*
X527087Y160172D01*
X527068Y160177D01*
X527018Y160200D01*
X526953Y160223D01*
X526874Y160246D01*
X526782Y160269D01*
X526675Y160283D01*
X526565Y160288D01*
D02*
G37*
G36*
X523759Y160020D02*
X523754D01*
X523745D01*
X523726D01*
X523703D01*
X523675Y160015D01*
X523643Y160010D01*
X523569Y160001D01*
X523481Y159983D01*
X523389Y159955D01*
X523292Y159913D01*
X523199Y159862D01*
X523195D01*
X523190Y159853D01*
X523158Y159835D01*
X523116Y159798D01*
X523065Y159752D01*
X523010Y159691D01*
X522954Y159613D01*
X522908Y159530D01*
X522866Y159428D01*
Y159423D01*
X522862Y159414D01*
X522857Y159396D01*
X522853Y159373D01*
X522843Y159340D01*
X522839Y159303D01*
X522829Y159257D01*
X522820Y159201D01*
X522811Y159137D01*
X522802Y159067D01*
X522797Y158989D01*
X522788Y158901D01*
X522783Y158804D01*
X522779Y158698D01*
X522774Y158582D01*
Y157181D01*
X524711D01*
Y158651D01*
X524706Y158698D01*
Y158808D01*
X524702Y158873D01*
X524692Y159003D01*
X524678Y159137D01*
X524669Y159201D01*
X524660Y159262D01*
X524651Y159317D01*
X524637Y159368D01*
Y159373D01*
X524632Y159382D01*
X524628Y159400D01*
X524618Y159423D01*
X524609Y159446D01*
X524595Y159479D01*
X524563Y159548D01*
X524521Y159627D01*
X524466Y159710D01*
X524401Y159784D01*
X524323Y159853D01*
X524318D01*
X524313Y159862D01*
X524299Y159867D01*
X524281Y159881D01*
X524258Y159890D01*
X524235Y159904D01*
X524165Y159936D01*
X524087Y159969D01*
X523990Y159992D01*
X523879Y160010D01*
X523759Y160020D01*
D02*
G37*
G36*
X523768Y147214D02*
X523763D01*
X523749D01*
X523726D01*
X523694Y147210D01*
X523652Y147205D01*
X523611Y147196D01*
X523560Y147187D01*
X523504Y147173D01*
X523449Y147154D01*
X523389Y147131D01*
X523324Y147108D01*
X523264Y147076D01*
X523199Y147034D01*
X523139Y146993D01*
X523079Y146942D01*
X523023Y146882D01*
X523019Y146877D01*
X523010Y146868D01*
X522996Y146845D01*
X522977Y146822D01*
X522954Y146785D01*
X522931Y146738D01*
X522903Y146687D01*
X522876Y146627D01*
X522848Y146563D01*
X522820Y146484D01*
X522797Y146396D01*
X522774Y146304D01*
X522755Y146202D01*
X522742Y146091D01*
X522732Y145971D01*
X522728Y145842D01*
Y143821D01*
X524840D01*
Y145735D01*
X524836Y145781D01*
Y145842D01*
X524831Y145902D01*
X524826Y145971D01*
X524813Y146114D01*
X524789Y146267D01*
X524762Y146415D01*
X524743Y146480D01*
X524725Y146544D01*
Y146549D01*
X524720Y146558D01*
X524711Y146576D01*
X524702Y146600D01*
X524688Y146627D01*
X524674Y146655D01*
X524632Y146729D01*
X524577Y146812D01*
X524512Y146896D01*
X524434Y146974D01*
X524341Y147043D01*
X524336D01*
X524327Y147053D01*
X524313Y147057D01*
X524295Y147071D01*
X524272Y147085D01*
X524239Y147099D01*
X524170Y147131D01*
X524087Y147159D01*
X523990Y147187D01*
X523883Y147205D01*
X523768Y147214D01*
D02*
G37*
G36*
X261495Y103425D02*
X261491D01*
X261477D01*
X261454D01*
X261421Y103421D01*
X261380Y103416D01*
X261338Y103407D01*
X261287Y103398D01*
X261232Y103384D01*
X261176Y103365D01*
X261116Y103342D01*
X261052Y103319D01*
X260991Y103287D01*
X260927Y103245D01*
X260867Y103203D01*
X260807Y103153D01*
X260751Y103092D01*
X260746Y103088D01*
X260737Y103078D01*
X260723Y103055D01*
X260705Y103032D01*
X260682Y102995D01*
X260659Y102949D01*
X260631Y102898D01*
X260603Y102838D01*
X260575Y102773D01*
X260548Y102695D01*
X260525Y102607D01*
X260501Y102515D01*
X260483Y102413D01*
X260469Y102302D01*
X260460Y102182D01*
X260455Y102052D01*
Y100032D01*
X262568D01*
Y101946D01*
X262563Y101992D01*
Y102052D01*
X262559Y102112D01*
X262554Y102182D01*
X262540Y102325D01*
X262517Y102478D01*
X262489Y102626D01*
X262471Y102690D01*
X262452Y102755D01*
Y102760D01*
X262448Y102769D01*
X262438Y102787D01*
X262429Y102810D01*
X262415Y102838D01*
X262401Y102866D01*
X262360Y102940D01*
X262304Y103023D01*
X262240Y103106D01*
X262161Y103185D01*
X262069Y103254D01*
X262064D01*
X262055Y103263D01*
X262041Y103268D01*
X262022Y103282D01*
X261999Y103296D01*
X261967Y103310D01*
X261898Y103342D01*
X261814Y103370D01*
X261717Y103398D01*
X261611Y103416D01*
X261495Y103425D01*
D02*
G37*
G36*
X261625Y88790D02*
X261620D01*
X261606D01*
X261588D01*
X261555Y88785D01*
X261523D01*
X261481Y88780D01*
X261435Y88771D01*
X261389Y88766D01*
X261283Y88739D01*
X261167Y88702D01*
X261052Y88655D01*
X260996Y88623D01*
X260941Y88586D01*
X260936D01*
X260927Y88577D01*
X260913Y88563D01*
X260894Y88549D01*
X260844Y88503D01*
X260783Y88443D01*
X260723Y88364D01*
X260659Y88276D01*
X260603Y88170D01*
X260562Y88050D01*
Y88045D01*
X260557Y88041D01*
Y88027D01*
X260552Y88008D01*
X260548Y87985D01*
X260543Y87953D01*
X260538Y87916D01*
X260529Y87870D01*
X260525Y87819D01*
X260520Y87763D01*
X260515Y87698D01*
X260511Y87625D01*
X260506Y87546D01*
Y87458D01*
X260501Y87366D01*
Y85627D01*
X262790D01*
Y87356D01*
X262785Y87412D01*
X262780Y87477D01*
X262771Y87555D01*
X262762Y87638D01*
X262753Y87731D01*
X262716Y87920D01*
X262693Y88018D01*
X262660Y88115D01*
X262628Y88207D01*
X262586Y88295D01*
X262540Y88373D01*
X262485Y88443D01*
X262480Y88447D01*
X262471Y88457D01*
X262452Y88475D01*
X262429Y88498D01*
X262397Y88521D01*
X262360Y88554D01*
X262314Y88586D01*
X262263Y88618D01*
X262203Y88651D01*
X262143Y88679D01*
X262069Y88711D01*
X261995Y88734D01*
X261911Y88757D01*
X261819Y88776D01*
X261726Y88785D01*
X261625Y88790D01*
D02*
G37*
%LPD*%
D12*
X220033Y342526D02*
X321433D01*
X220033D02*
Y436526D01*
X321433D01*
Y342526D02*
Y436526D01*
X413014Y354450D02*
Y419950D01*
X343015D02*
X413014D01*
X343015Y354450D02*
Y419950D01*
Y354450D02*
X413014D01*
X224578Y170412D02*
X350285D01*
Y296119D01*
X224578D02*
X350285D01*
X224578Y170412D02*
Y296119D01*
X373632Y242364D02*
X405632D01*
Y221364D02*
Y242364D01*
X373632Y221364D02*
X405632D01*
X373632D02*
Y242364D01*
X302345Y124504D02*
Y156503D01*
X281346Y124504D02*
X302345D01*
X281346D02*
Y156503D01*
X302345D01*
X66714Y100926D02*
Y170927D01*
X1213Y100926D02*
X66714D01*
X1213D02*
Y170927D01*
X66714D01*
X520025Y134476D02*
Y151475D01*
X537024D01*
Y134476D02*
Y151475D01*
X520025Y134476D02*
X537024D01*
X258763Y72282D02*
Y97282D01*
X269764D01*
Y72282D02*
Y97282D01*
X258763Y72282D02*
X269764D01*
X411712Y320364D02*
X469312D01*
X411712Y170364D02*
Y320364D01*
Y170364D02*
X469312D01*
Y320364D01*
X149785Y-540D02*
Y65960D01*
Y-540D02*
X239785D01*
Y65960D01*
X149785D02*
X239785D01*
X375843Y242646D02*
Y258146D01*
Y242646D02*
X401964D01*
Y258146D01*
X375843D02*
X401964D01*
X205232Y193869D02*
Y341869D01*
X57733Y193869D02*
X205232D01*
X57733D02*
Y341869D01*
X205232D01*
X239785Y76025D02*
Y132624D01*
X149785D02*
X239785D01*
X149785Y76025D02*
Y132624D01*
Y76025D02*
X239785D01*
X299045Y3443D02*
Y69942D01*
Y3443D02*
X389045D01*
Y69942D01*
X299045D02*
X389045D01*
X389416Y79331D02*
Y135931D01*
X299417D02*
X389416D01*
X299417Y79331D02*
Y135931D01*
Y79331D02*
X389416D01*
D13*
X472842Y187364D02*
X477342Y190364D01*
X472842Y193364D02*
X477342Y190364D01*
X472842Y187364D02*
Y193364D01*
X484342Y175364D02*
X543342D01*
Y315364D01*
X484342D02*
X543342D01*
X484342Y175364D02*
Y315364D01*
X402562Y65110D02*
X462562D01*
Y6110D02*
Y65110D01*
X402562Y6110D02*
X462562D01*
X402562D02*
Y65110D01*
X414562Y76610D02*
X420562D01*
X417562Y72110D02*
X420562Y76610D01*
X414562D02*
X417562Y72110D01*
D120*
X273555Y19149D02*
G03*
X273555Y19149I-12700J0D01*
G01*
X32512Y77978D02*
G03*
X32512Y77978I-12700J0D01*
G01*
X485840Y137506D02*
Y152006D01*
X507840Y137506D02*
Y152006D01*
X485840D02*
X507840D01*
X485840Y137506D02*
X507840D01*
X485762Y119609D02*
Y134109D01*
X507762Y119609D02*
Y134109D01*
X485762D02*
X507762D01*
X485762Y119609D02*
X507762D01*
X485862Y101498D02*
Y115998D01*
X507862Y101498D02*
Y115998D01*
X485862D02*
X507862D01*
X485862Y101498D02*
X507862D01*
X272351Y39348D02*
Y61349D01*
X257851Y39348D02*
Y61349D01*
X272351D01*
X257851Y39348D02*
X272351D01*
X6327Y206773D02*
Y322773D01*
X46327D01*
Y206773D02*
Y322773D01*
X6327Y206773D02*
X46327D01*
X119579Y369711D02*
X178580D01*
Y414710D01*
X119579Y369711D02*
Y414710D01*
X178580D01*
X96240Y181884D02*
X112239D01*
Y189884D01*
X96240Y181884D02*
Y189884D01*
X112239D01*
X58828Y178136D02*
Y192636D01*
X80828Y178136D02*
Y192636D01*
X58828D02*
X80828D01*
X58828Y178136D02*
X80828D01*
M02*
