G04*
G04 #@! TF.GenerationSoftware,Altium Limited,Altium Designer,24.7.2 (38)*
G04*
G04 Layer_Color=16711935*
%FSLAX44Y44*%
%MOMM*%
G71*
G04*
G04 #@! TF.SameCoordinates,27BF797F-714E-4A77-BE02-AF934A81444A*
G04*
G04*
G04 #@! TF.FilePolarity,Positive*
G04*
G01*
G75*
%ADD12C,0.2000*%
%ADD120C,0.1000*%
D12*
X325502Y313510D02*
X340002D01*
X325502D02*
Y335510D01*
X340002D01*
Y313510D02*
Y335510D01*
X279026Y310799D02*
X301026D01*
Y325299D01*
X279026D02*
X301026D01*
X279026Y310799D02*
Y325299D01*
X171589Y246663D02*
Y268663D01*
Y246663D02*
X186089D01*
Y268663D01*
X171589D02*
X186089D01*
X191395Y248604D02*
Y268604D01*
Y248604D02*
X203896D01*
Y268604D01*
X191395D02*
X203896D01*
X260729Y309120D02*
Y331120D01*
X246229D02*
X260729D01*
X246229Y309120D02*
Y331120D01*
Y309120D02*
X260729D01*
X168765Y50186D02*
X190766D01*
Y64687D01*
X168765D02*
X190766D01*
X168765Y50186D02*
Y64687D01*
X169029Y31827D02*
X189029D01*
Y44327D01*
X169029D02*
X189029D01*
X169029Y31827D02*
Y44327D01*
X291064Y72875D02*
Y92875D01*
X278563D02*
X291064D01*
X278563Y72875D02*
Y92875D01*
Y72875D02*
X291064D01*
X277563Y41498D02*
Y63498D01*
Y41498D02*
X292063D01*
Y63498D01*
X277563D02*
X292063D01*
X284596Y129504D02*
Y151504D01*
Y129504D02*
X299095D01*
Y151504D01*
X284596D02*
X299095D01*
X535724Y192089D02*
Y214089D01*
X521225D02*
X535724D01*
X521225Y192089D02*
Y214089D01*
Y192089D02*
X535724D01*
X517085Y190084D02*
Y210084D01*
X504586D02*
X517085D01*
X504586Y190084D02*
Y210084D01*
Y190084D02*
X517085D01*
X422578Y22052D02*
Y36553D01*
X444578D01*
Y22052D02*
Y36553D01*
X422578Y22052D02*
X444578D01*
X160041Y215754D02*
X182041D01*
X160041Y201254D02*
Y215754D01*
Y201254D02*
X182041D01*
Y215754D01*
X142947Y142151D02*
Y164151D01*
Y142151D02*
X157446D01*
Y164151D01*
X142947D02*
X157446D01*
X168346Y140114D02*
X201345D01*
X168346D02*
Y191114D01*
X201345D01*
Y140114D02*
Y191114D01*
X156268Y77477D02*
Y97476D01*
X143768D02*
X156268D01*
X143768Y77477D02*
Y97476D01*
Y77477D02*
X156268D01*
X95123Y135570D02*
X115123D01*
Y148071D01*
X95123D02*
X115123D01*
X95123Y135570D02*
Y148071D01*
X102014Y223014D02*
X122014D01*
Y235514D01*
X102014D02*
X122014D01*
X102014Y223014D02*
Y235514D01*
X63346Y237142D02*
Y257142D01*
Y237142D02*
X75846D01*
Y257142D01*
X63346D02*
X75846D01*
X102014Y201776D02*
X122014D01*
Y214276D01*
X102014D02*
X122014D01*
X102014Y201776D02*
Y214276D01*
X101929Y298136D02*
X121929D01*
Y310636D01*
X101929D02*
X121929D01*
X101929Y298136D02*
Y310636D01*
X89394Y249492D02*
Y279492D01*
Y249492D02*
X119394D01*
Y279492D01*
X89394D02*
X119394D01*
X412272Y291514D02*
Y313515D01*
Y291514D02*
X426772D01*
Y313515D01*
X412272D02*
X426772D01*
X413372Y323677D02*
Y343677D01*
Y323677D02*
X425872D01*
Y343677D01*
X413372D02*
X425872D01*
X377373Y383722D02*
X407633D01*
X377373Y353462D02*
Y383722D01*
Y353462D02*
X407633D01*
Y383722D01*
X349168Y314632D02*
X369168D01*
Y327133D01*
X349168D02*
X369168D01*
X349168Y314632D02*
Y327133D01*
X349074Y295831D02*
X369074D01*
Y308331D01*
X349074D02*
X369074D01*
X349074Y295831D02*
Y308331D01*
X378125Y306096D02*
Y331096D01*
Y306096D02*
X403125D01*
Y331096D01*
X378125D02*
X403125D01*
X81942Y399724D02*
X112342D01*
X81942Y384524D02*
Y399724D01*
Y384524D02*
X112342D01*
Y399724D01*
X407341Y99727D02*
X456391D01*
Y60777D02*
Y99727D01*
X407341Y60777D02*
X456391D01*
X407341D02*
Y99727D01*
D120*
X71552Y121415D02*
X111552D01*
Y81415D02*
Y121415D01*
X71552Y81415D02*
X111552D01*
X71552D02*
Y121415D01*
M02*
