M48
;Layer_Color=9474304
;FILE_FORMAT=4:4
METRIC,LZ
;TYPE=PLATED
T01F00S00C0.2500
T02F00S00C0.3000
T03F00S00C0.4000
T05F00S00C1.0000
;TYPE=NON_PLATED
T06F00S00C3.1750
%
T01
X00169785Y0005746
X00083334Y00138936
X00083119Y00149794
T02
X00146307Y00037937
X00156785Y0003071
X00186301Y00028516
X00232785Y0000621
X0024927Y00041498
X00295969Y0004277
X00306324Y00056139
X00349045Y00061442
X00354695Y00027348
X00365297Y00027302
X00382045Y00010192
X00404562Y0003436
X00396946Y00050489
X00424328Y00029302
X00442828Y00039553
X00460562Y0003436
X00519244Y00129504
X00515092Y00177364
X00510835Y00192403
X0050038Y00196088
X00501396Y00201676
X00498856Y00216662
X00538725Y00212339
X00541843Y0020872
X00503936Y00166624
X0049276Y00169926
X00499092Y00290364
X00515092Y00313364
X00477592Y00300364
X00471562
X0047498Y00283972
X00474472Y00270364
X00446132
X0044323Y00263906
X00440944Y00236474
X00432562Y0023622
X0044958Y00235712
X00474472Y00230364
X00413512Y00216408
X00398881Y00221613
X00380625Y00231864
X00366482Y0023622
X00356362Y00236982
X00354464Y00216408
X00352536Y00200766
X00366721Y00210765
X0038735Y00182118
X00423062Y00177364
X00425515Y00119984
X00438215Y00119146
X00402856Y00113158
X00382417Y00101081
X00368747Y00104076
X00368734Y00114146
X00337535Y00114008
X0031496Y00129756
X00302096Y00131254
X00291845Y00149754
X00288544Y0016637
X00304931Y00168162
X00299931Y00193834
X00318401Y00194195
X00325374Y00198628
X00324612Y00186944
X00331978Y00226822
X00329438Y0024511
X00334152Y00265766
X00360426Y00279908
X00386433Y00273191
X00396175Y00259957
X00408541Y00271344
X00381631Y00250396
X0036644Y00330444
X00343003Y0033376
X00299276Y00328299
X00280776
X0027432Y00339852
X00263755Y0031087
X00243228
Y0032937
X00210058Y00340868
X00174565Y00333061
X00135473Y00314869
X00119201Y00294825
X00111894Y00286303
X00121929Y00271992
X00129032Y00265176
X0013038Y00257302
X0012065Y00243
X00104394Y00243431
X00104394Y00240538
X0010414
X00127762Y00232156
X00119286Y00217587
X00104742Y00208026
X00089983Y00202369
X00172845Y00197864
X00161791Y00218755
X00168588Y00248413
Y00266913
X00207206Y00265876
X00216154Y0026543
X00211836Y00255766
X00207207Y00251333
X00196733Y00230619
X00211074Y00195913
X00221488Y0018542
X00241046Y0019431
X00241808Y0020828
X00240792Y00235766
X00274066Y00230765
X00274932Y00198882
X00259588Y00162814
X00250952Y00129032
X00273812Y0012446
X00275253Y00090147
X00284814Y00075603
X00299212Y00086868
X00232785Y00097774
X00219785Y00073774
Y00068211
X00188401Y00071862
X00150018Y00080204
X00140457Y00094748
X00131021Y00105779
X00156785Y00122275
X00160447Y00162401
X00196845Y00133364
X00112395Y0013226
X00096949Y00322419
X0009577Y003556
X00242978Y00379578
X00329728Y00370128
X00350015Y00414201
X00406015Y003897
X00419623Y00364632
Y00353505
X00429184Y00326405
X00407162Y00325628
X00451219Y00319786
X00447563Y00313364
X00449562Y00290364
X00299212Y0029845
X00294932Y00303276
X0028702Y0029845
X00279931Y00298369
X00284932Y00279654
X00270256Y00275082
X00254932Y00279986
X00195732Y00284119
X00375795Y0007121
X00429039Y00078262
X0043896Y00074859
X00068963Y00120926
Y00140926
X00055482Y00185386
X00058481Y002012
X00055626Y00248869
X00068732Y00270869
X00055482Y00292869
X00057482Y00335869
X00077434Y00322468
X00087642Y00370873
X00083332Y0024003
X00031464Y00163926
X00006963Y00107927
T03
X00240982Y00354526
X00249483
X00257983
X00266482
X00274983
X00283483
X00291982
X00300482
Y00368026
X00291982
X00283483
X00274983
X00266482
X00257983
X00249483
X00240982
T05
X00260855Y00019149
X0015908Y0039771
X0013908
X00026328Y00289773
Y00264773
Y00239773
X00019812Y00077978
T06
X00077346Y00031827
X00460681Y00387677
M30
