G04*
G04 #@! TF.GenerationSoftware,Altium Limited,Altium Designer,24.7.2 (38)*
G04*
G04 Layer_Physical_Order=2*
G04 Layer_Color=32768*
%FSLAX44Y44*%
%MOMM*%
G71*
G04*
G04 #@! TF.SameCoordinates,27BF797F-714E-4A77-BE02-AF934A81444A*
G04*
G04*
G04 #@! TF.FilePolarity,Negative*
G04*
G01*
G75*
%ADD13C,0.1270*%
%ADD73C,1.0160*%
%ADD74C,3.9370*%
%ADD75C,1.1620*%
%ADD76O,1.4620X2.3620*%
G04:AMPARAMS|DCode=77|XSize=1.924mm|YSize=1.924mm|CornerRadius=0mm|HoleSize=0mm|Usage=FLASHONLY|Rotation=0.000|XOffset=0mm|YOffset=0mm|HoleType=Round|Shape=Relief|Width=0.254mm|Gap=0.254mm|Entries=4|*
%AMTHD77*
7,0,0,1.9240,1.4160,0.2540,45*
%
%ADD77THD77*%
%ADD78C,1.7620*%
G04:AMPARAMS|DCode=79|XSize=2.524mm|YSize=2.524mm|CornerRadius=0mm|HoleSize=0mm|Usage=FLASHONLY|Rotation=0.000|XOffset=0mm|YOffset=0mm|HoleType=Round|Shape=Relief|Width=0.254mm|Gap=0.254mm|Entries=4|*
%AMTHD79*
7,0,0,2.5240,2.0160,0.2540,45*
%
%ADD79THD79*%
%ADD80C,1.0620*%
%ADD81C,1.0120*%
D13*
X386243Y205D02*
Y14189D01*
X372259Y205D02*
X386243D01*
X330305D02*
X372259D01*
X386243Y14189D02*
Y56143D01*
X78146Y333108D02*
X307828D01*
Y380342D01*
X205Y94748D02*
X108552D01*
Y161431D01*
X61684D02*
X108552D01*
X430022Y321616D02*
Y418895D01*
X372229Y321616D02*
X430022D01*
X372229D02*
Y380342D01*
X61684D02*
X372229D01*
X61684Y161431D02*
Y380342D01*
X386243Y56143D02*
Y99077D01*
X274314D02*
X386243D01*
X274314Y24210D02*
Y99077D01*
X160768Y24210D02*
X274314D01*
X160768D02*
Y90029D01*
X117183D02*
X160768D01*
X117183Y2762D02*
Y90029D01*
D73*
X22655Y205D02*
G03*
X205Y22655I-11225J11225D01*
G01*
X545895D02*
G03*
X523445Y205I-11225J-11225D01*
G01*
Y418895D02*
G03*
X545895Y396445I11225J-11225D01*
G01*
X205D02*
G03*
X22655Y418895I11225J11225D01*
G01*
X205Y22655D02*
Y396445D01*
X22655Y418895D02*
X523445D01*
X545895Y396445D02*
X546100D01*
Y22110D02*
Y396445D01*
X545895Y22655D02*
X546100Y22110D01*
X22655Y205D02*
X523445D01*
D74*
X77346Y31827D02*
D03*
X460681Y387677D02*
D03*
D75*
X283483Y354526D02*
D03*
X274983D02*
D03*
X266482D02*
D03*
X257983D02*
D03*
Y368026D02*
D03*
X266482D02*
D03*
X274983D02*
D03*
X283483D02*
D03*
X240982D02*
D03*
Y354526D02*
D03*
X300482D02*
D03*
Y368026D02*
D03*
D76*
X227533Y359526D02*
D03*
Y401026D02*
D03*
X313933Y359526D02*
D03*
Y401026D02*
D03*
D77*
X249483Y368026D02*
D03*
Y354526D02*
D03*
X291982D02*
D03*
Y368026D02*
D03*
D78*
X260855Y19149D02*
D03*
X26328Y289773D02*
D03*
X19812Y77978D02*
D03*
X26328Y239773D02*
D03*
X159080Y397710D02*
D03*
X139080D02*
D03*
D79*
X26328Y264773D02*
D03*
D80*
X413512Y216408D02*
D03*
X354464D02*
D03*
X432562Y236220D02*
D03*
X366482D02*
D03*
X440944Y236474D02*
D03*
X356362Y236982D02*
D03*
X249270Y41498D02*
D03*
X160447Y162401D02*
D03*
X161791Y218755D02*
D03*
X57482Y335869D02*
D03*
X89983Y202369D02*
D03*
X196733Y230619D02*
D03*
X195732Y284119D02*
D03*
X55482Y292869D02*
D03*
X382417Y101081D02*
D03*
X314960Y129756D02*
D03*
X232785Y97774D02*
D03*
X156785Y122275D02*
D03*
X219785Y73774D02*
D03*
X382045Y10192D02*
D03*
X306324Y56139D02*
D03*
X425515Y119984D02*
D03*
X172845Y197864D02*
D03*
X196845Y133364D02*
D03*
X232785Y6210D02*
D03*
X156785Y30710D02*
D03*
X219785Y68211D02*
D03*
X460562Y34360D02*
D03*
X404562D02*
D03*
X515092Y313364D02*
D03*
Y177364D02*
D03*
X477592Y300364D02*
D03*
X499092Y290364D02*
D03*
X112395Y132260D02*
D03*
X140457Y94748D02*
D03*
X83332Y240030D02*
D03*
X120650Y243000D02*
D03*
X119286Y217587D02*
D03*
X429184Y326405D02*
D03*
X366440Y330444D02*
D03*
X451219Y319786D02*
D03*
X119201Y294825D02*
D03*
X207207Y251333D02*
D03*
X396175Y259957D02*
D03*
X168588Y248413D02*
D03*
X398881Y221613D02*
D03*
X343003Y333760D02*
D03*
X243228Y329370D02*
D03*
X302096Y131254D02*
D03*
X299276Y328299D02*
D03*
X541843Y208720D02*
D03*
X538725Y212339D02*
D03*
X442828Y39553D02*
D03*
X275253Y90147D02*
D03*
X186301Y28516D02*
D03*
X188401Y71862D02*
D03*
X447563Y313364D02*
D03*
X423062Y177364D02*
D03*
X471562Y300364D02*
D03*
X449562Y290364D02*
D03*
X31464Y163926D02*
D03*
X6963Y107927D02*
D03*
X68963Y140926D02*
D03*
Y120926D02*
D03*
X87642Y370873D02*
D03*
X58481Y201200D02*
D03*
X146307Y37937D02*
D03*
X77434Y322468D02*
D03*
X96949Y322419D02*
D03*
X408541Y271344D02*
D03*
X329728Y370128D02*
D03*
X242978Y379578D02*
D03*
X368747Y104076D02*
D03*
X295969Y42770D02*
D03*
X354695Y27348D02*
D03*
X402856Y113158D02*
D03*
X131021Y105779D02*
D03*
X111894Y286303D02*
D03*
X130380Y257302D02*
D03*
X334152Y265766D02*
D03*
X352536Y200766D02*
D03*
X254932Y279986D02*
D03*
X304931Y168162D02*
D03*
X406015Y389700D02*
D03*
X350015Y414201D02*
D03*
X241808Y208280D02*
D03*
X250952Y129032D02*
D03*
X241046Y194310D02*
D03*
X270256Y275082D02*
D03*
X221488Y185420D02*
D03*
X331978Y226822D02*
D03*
X211074Y195913D02*
D03*
X299212Y298450D02*
D03*
X318401Y194195D02*
D03*
X501396Y201676D02*
D03*
X474472Y270364D02*
D03*
X366721Y210765D02*
D03*
X500380Y196088D02*
D03*
X324612Y186944D02*
D03*
X498856Y216662D02*
D03*
X325374Y198628D02*
D03*
X446132Y270364D02*
D03*
X240792Y235766D02*
D03*
X443230Y263906D02*
D03*
X274066Y230765D02*
D03*
X449580Y235712D02*
D03*
X360426Y279908D02*
D03*
X407162Y325628D02*
D03*
X474472Y230364D02*
D03*
X273812Y124460D02*
D03*
X299212Y86868D02*
D03*
X287020Y298450D02*
D03*
X135473Y314869D02*
D03*
X127762Y232156D02*
D03*
X216154Y265430D02*
D03*
X55626Y248869D02*
D03*
X211836Y255766D02*
D03*
X210058Y340868D02*
D03*
X274320Y339852D02*
D03*
X387350Y182118D02*
D03*
X503936Y166624D02*
D03*
X492760Y169926D02*
D03*
X329438Y245110D02*
D03*
X474980Y283972D02*
D03*
X284932Y279654D02*
D03*
X299931Y193834D02*
D03*
X259588Y162814D02*
D03*
X294932Y303276D02*
D03*
X174565Y333061D02*
D03*
X288544Y166370D02*
D03*
X274932Y198882D02*
D03*
X129032Y265176D02*
D03*
X104394Y240538D02*
D03*
X104140D02*
D03*
X55482Y185386D02*
D03*
X68732Y270869D02*
D03*
X104394Y243431D02*
D03*
X207206Y265876D02*
D03*
X168588Y266913D02*
D03*
X243228Y310870D02*
D03*
X386433Y273191D02*
D03*
X381631Y250396D02*
D03*
X510835Y192403D02*
D03*
X519244Y129504D02*
D03*
X438215Y119146D02*
D03*
X380625Y231864D02*
D03*
X424328Y29302D02*
D03*
X263755Y310870D02*
D03*
X291845Y149754D02*
D03*
X337535Y114008D02*
D03*
X368734Y114146D02*
D03*
X365297Y27302D02*
D03*
X349045Y61442D02*
D03*
X121929Y271992D02*
D03*
X396946Y50489D02*
D03*
X429039Y78262D02*
D03*
X438960Y74859D02*
D03*
X104742Y208026D02*
D03*
D81*
X169785Y57460D02*
D03*
M02*
