G04*
G04 #@! TF.GenerationSoftware,Altium Limited,Altium Designer,24.7.2 (38)*
G04*
G04 Layer_Color=32768*
%FSLAX44Y44*%
%MOMM*%
G71*
G04*
G04 #@! TF.SameCoordinates,27BF797F-714E-4A77-BE02-AF934A81444A*
G04*
G04*
G04 #@! TF.FilePolarity,Positive*
G04*
G01*
G75*
%ADD12C,0.2000*%
%ADD119C,0.0500*%
%ADD120C,0.1000*%
D12*
X220033Y342526D02*
X321433D01*
X220033D02*
Y436526D01*
X321433D01*
Y342526D02*
Y436526D01*
X413014Y354450D02*
Y419950D01*
X343015D02*
X413014D01*
X343015Y354450D02*
Y419950D01*
Y354450D02*
X413014D01*
X224578Y170412D02*
X350285D01*
Y296119D01*
X224578D02*
X350285D01*
X224578Y170412D02*
Y296119D01*
X373632Y242364D02*
X405632D01*
Y221364D02*
Y242364D01*
X373632Y221364D02*
X405632D01*
X373632D02*
Y242364D01*
X302345Y124504D02*
Y156503D01*
X281346Y124504D02*
X302345D01*
X281346D02*
Y156503D01*
X302345D01*
X66714Y100926D02*
Y170927D01*
X1213Y100926D02*
X66714D01*
X1213D02*
Y170927D01*
X66714D01*
X520025Y134476D02*
Y151475D01*
X537024D01*
Y134476D02*
Y151475D01*
X520025Y134476D02*
X537024D01*
X258763Y72282D02*
Y97282D01*
X269764D01*
Y72282D02*
Y97282D01*
X258763Y72282D02*
X269764D01*
X411712Y320364D02*
X469312D01*
X411712Y170364D02*
Y320364D01*
Y170364D02*
X469312D01*
Y320364D01*
X149785Y-540D02*
Y65960D01*
Y-540D02*
X239785D01*
Y65960D01*
X149785D02*
X239785D01*
X375843Y242646D02*
Y258146D01*
Y242646D02*
X401964D01*
Y258146D01*
X375843D02*
X401964D01*
X205232Y193869D02*
Y341869D01*
X57733Y193869D02*
X205232D01*
X57733D02*
Y341869D01*
X205232D01*
X239785Y76025D02*
Y132624D01*
X149785D02*
X239785D01*
X149785Y76025D02*
Y132624D01*
Y76025D02*
X239785D01*
X299045Y3443D02*
Y69942D01*
Y3443D02*
X389045D01*
Y69942D01*
X299045D02*
X389045D01*
X389416Y79331D02*
Y135931D01*
X299417D02*
X389416D01*
X299417Y79331D02*
Y135931D01*
Y79331D02*
X389416D01*
D119*
X274555Y19149D02*
G03*
X274555Y19149I-13700J0D01*
G01*
X33512Y77978D02*
G03*
X33512Y77978I-13700J0D01*
G01*
X475340Y131756D02*
Y157756D01*
X518340Y131756D02*
Y157756D01*
X475340D02*
X518340D01*
X475340Y131756D02*
X518340D01*
X475262Y113859D02*
Y139859D01*
X518262Y113859D02*
Y139859D01*
X475262D02*
X518262D01*
X475262Y113859D02*
X518262D01*
X475362Y95748D02*
Y121748D01*
X518362Y95748D02*
Y121748D01*
X475362D02*
X518362D01*
X475362Y95748D02*
X518362D01*
X556042Y162664D02*
Y328064D01*
X471642Y162664D02*
X556042D01*
X471642Y328064D02*
X556042D01*
X471642Y162664D02*
Y328064D01*
X275101Y33349D02*
Y67349D01*
X255101Y33349D02*
Y67349D01*
X275101D01*
X255101Y33349D02*
X275101D01*
X5327Y205773D02*
Y323773D01*
X47328D01*
Y205773D02*
Y323773D01*
X5327Y205773D02*
X47328D01*
X118580Y368710D02*
X179580D01*
Y415710D01*
X118580Y368710D02*
Y415710D01*
X179580D01*
X92990Y180804D02*
X115490D01*
Y180883D02*
Y190883D01*
X92990D02*
X115490D01*
X92990Y180883D02*
Y190883D01*
X389862Y77810D02*
X475262D01*
Y-6590D02*
Y77810D01*
X389862Y-6590D02*
Y77810D01*
Y-6590D02*
X475262D01*
X52828Y175386D02*
Y195386D01*
X86828Y175386D02*
Y195386D01*
X52828D02*
X86828D01*
X52828Y175386D02*
X86828D01*
D120*
X260855Y14149D02*
Y24149D01*
X255856Y19149D02*
X265856D01*
X491840Y144756D02*
X501840D01*
X496840Y139756D02*
Y149756D01*
X491762Y126859D02*
X501762D01*
X496762Y121859D02*
Y131859D01*
X491862Y108747D02*
X501862D01*
X496862Y103748D02*
Y113748D01*
X19812Y72978D02*
Y82978D01*
X14812Y77978D02*
X24812D01*
X260101Y50349D02*
X270101D01*
X265101Y45349D02*
Y55349D01*
X21328Y264773D02*
X31328D01*
X26328Y259773D02*
Y269773D01*
X149080Y387211D02*
Y397211D01*
X144080Y392210D02*
X154080D01*
X101740Y185884D02*
X106739D01*
X104239Y183384D02*
Y188384D01*
X64828Y185386D02*
X74828D01*
X69828Y180386D02*
Y190386D01*
M02*
