G04*
G04 #@! TF.GenerationSoftware,Altium Limited,Altium Designer,24.7.2 (38)*
G04*
G04 Layer_Color=8388736*
%FSLAX44Y44*%
%MOMM*%
G71*
G04*
G04 #@! TF.SameCoordinates,27BF797F-714E-4A77-BE02-AF934A81444A*
G04*
G04*
G04 #@! TF.FilePolarity,Positive*
G04*
G01*
G75*
%ADD120C,0.1000*%
D120*
X265733Y390176D02*
X275733D01*
X270732Y385176D02*
Y395176D01*
X378015Y386200D02*
Y396200D01*
X373015Y391200D02*
X383015D01*
X282432Y233266D02*
X292431D01*
X287431Y228266D02*
Y238266D01*
X384632Y231864D02*
X394632D01*
X389632Y226864D02*
Y236864D01*
X291845Y135504D02*
Y145504D01*
X286846Y140504D02*
X296846D01*
X29964Y130926D02*
Y140926D01*
X24964Y135926D02*
X34964D01*
X528525Y137976D02*
Y147976D01*
X523524Y142976D02*
X533524D01*
X264263Y79782D02*
Y89782D01*
X259264Y84782D02*
X269264D01*
X431062Y245364D02*
X441062D01*
X436062Y240364D02*
Y250364D01*
X194785Y24210D02*
Y34210D01*
X189785Y29210D02*
X199785D01*
X388903Y245396D02*
Y255396D01*
X383903Y250396D02*
X393903D01*
X132232Y247744D02*
Y291994D01*
X110107Y269869D02*
X154358D01*
X194785Y103274D02*
Y113274D01*
X189785Y108274D02*
X199785D01*
X344045Y28192D02*
Y38192D01*
X339045Y33193D02*
X349045D01*
X344417Y106581D02*
Y116581D01*
X339417Y111581D02*
X349417D01*
M02*
