G04*
G04 #@! TF.GenerationSoftware,Altium Limited,Altium Designer,24.7.2 (38)*
G04*
G04 Layer_Color=8421504*
%FSLAX44Y44*%
%MOMM*%
G71*
G04*
G04 #@! TF.SameCoordinates,27BF797F-714E-4A77-BE02-AF934A81444A*
G04*
G04*
G04 #@! TF.FilePolarity,Positive*
G04*
G01*
G75*
%ADD17R,1.0500X1.8000*%
%ADD18R,0.6000X0.9000*%
%ADD19R,1.0500X1.8000*%
%ADD20R,0.6000X0.9000*%
%ADD21R,0.6000X1.5000*%
%ADD22R,1.2000X1.8000*%
G04:AMPARAMS|DCode=23|XSize=0.2125mm|YSize=1.1883mm|CornerRadius=0.1062mm|HoleSize=0mm|Usage=FLASHONLY|Rotation=90.000|XOffset=0mm|YOffset=0mm|HoleType=Round|Shape=RoundedRectangle|*
%AMROUNDEDRECTD23*
21,1,0.2125,0.9758,0,0,90.0*
21,1,0.0000,1.1883,0,0,90.0*
1,1,0.2125,0.4879,0.0000*
1,1,0.2125,0.4879,0.0000*
1,1,0.2125,-0.4879,0.0000*
1,1,0.2125,-0.4879,0.0000*
%
%ADD23ROUNDEDRECTD23*%
G04:AMPARAMS|DCode=24|XSize=1.1883mm|YSize=0.2125mm|CornerRadius=0.1062mm|HoleSize=0mm|Usage=FLASHONLY|Rotation=90.000|XOffset=0mm|YOffset=0mm|HoleType=Round|Shape=RoundedRectangle|*
%AMROUNDEDRECTD24*
21,1,1.1883,0.0000,0,0,90.0*
21,1,0.9758,0.2125,0,0,90.0*
1,1,0.2125,0.0000,0.4879*
1,1,0.2125,0.0000,-0.4879*
1,1,0.2125,0.0000,-0.4879*
1,1,0.2125,0.0000,0.4879*
%
%ADD24ROUNDEDRECTD24*%
%ADD25R,0.2125X1.1883*%
%ADD26R,0.6000X1.5500*%
%ADD27R,0.8000X0.8000*%
%ADD28R,0.9578X1.2621*%
%ADD29R,2.0080X1.1080*%
%ADD30R,1.5500X0.6000*%
%ADD31R,0.4500X0.4500*%
%ADD32R,0.9500X1.4000*%
%ADD33R,2.0000X0.7000*%
%ADD34R,1.4000X0.9500*%
%ADD35R,2.3080X1.7080*%
%ADD36R,1.8000X1.2000*%
%ADD37R,1.2000X1.2000*%
%ADD38R,1.1080X2.0080*%
%ADD39R,1.7080X2.3080*%
%ADD40R,2.6000X1.5000*%
%ADD41R,1.4000X2.7000*%
%ADD42R,2.6000X1.0000*%
%ADD43R,1.9580X1.6580*%
%ADD44R,1.5000X0.6000*%
%ADD45R,1.9080X2.0580*%
%ADD46R,1.1080X1.3080*%
%ADD47R,1.6580X1.9580*%
D17*
X233535Y18460D02*
D03*
X156035D02*
D03*
D18*
X219785Y60460D02*
D03*
X209785D02*
D03*
X199785D02*
D03*
X189785D02*
D03*
X179785D02*
D03*
X169785D02*
D03*
D19*
X382795Y22443D02*
D03*
X305295D02*
D03*
D20*
X369045Y64443D02*
D03*
X359045D02*
D03*
X349045D02*
D03*
X339045D02*
D03*
X329045D02*
D03*
X319045D02*
D03*
D21*
X363015Y362950D02*
D03*
X373015D02*
D03*
X383015D02*
D03*
X393015D02*
D03*
D22*
X350015Y401950D02*
D03*
X406015D02*
D03*
X382417Y113331D02*
D03*
X306417D02*
D03*
X232785Y110024D02*
D03*
X156785D02*
D03*
D23*
X231519Y195766D02*
D03*
Y200766D02*
D03*
X231519Y205766D02*
D03*
X231519Y210765D02*
D03*
Y215766D02*
D03*
Y220766D02*
D03*
Y225765D02*
D03*
Y230765D02*
D03*
Y235766D02*
D03*
X231519Y240765D02*
D03*
X231519Y245766D02*
D03*
Y250766D02*
D03*
Y255766D02*
D03*
Y260765D02*
D03*
Y265766D02*
D03*
Y270766D02*
D03*
X343344D02*
D03*
Y265766D02*
D03*
Y260765D02*
D03*
Y255766D02*
D03*
Y250766D02*
D03*
Y245766D02*
D03*
X343343Y240765D02*
D03*
X343344Y235766D02*
D03*
Y230765D02*
D03*
Y225765D02*
D03*
Y220766D02*
D03*
Y215766D02*
D03*
Y210765D02*
D03*
X343343Y205766D02*
D03*
X343344Y200766D02*
D03*
Y195766D02*
D03*
D24*
X249931Y289178D02*
D03*
X254932D02*
D03*
X259931Y289177D02*
D03*
X264931Y289178D02*
D03*
X269931D02*
D03*
X274932D02*
D03*
X279931D02*
D03*
X284932D02*
D03*
X289932D02*
D03*
X294932Y289177D02*
D03*
X299931Y289178D02*
D03*
X304931D02*
D03*
X309932D02*
D03*
X314931D02*
D03*
X319931D02*
D03*
X324931D02*
D03*
Y177354D02*
D03*
X319931D02*
D03*
X314931D02*
D03*
X309932D02*
D03*
X304931D02*
D03*
X299931D02*
D03*
X294931D02*
D03*
X289932D02*
D03*
X284932D02*
D03*
X279931D02*
D03*
X274932D02*
D03*
X269931D02*
D03*
X264931D02*
D03*
X259931D02*
D03*
X254932D02*
D03*
D25*
X249931D02*
D03*
D26*
X319417Y88082D02*
D03*
X169785Y84774D02*
D03*
X369417Y88082D02*
D03*
X219785Y84774D02*
D03*
X209785D02*
D03*
X199785D02*
D03*
X189785D02*
D03*
X179785D02*
D03*
X359417Y88082D02*
D03*
X349417D02*
D03*
X339417D02*
D03*
X329417D02*
D03*
D27*
X264263Y92282D02*
D03*
Y77282D02*
D03*
D28*
X381631Y250396D02*
D03*
X396175D02*
D03*
D29*
X488342Y190364D02*
D03*
Y300364D02*
D03*
Y290364D02*
D03*
Y280364D02*
D03*
Y270364D02*
D03*
Y260364D02*
D03*
Y250364D02*
D03*
Y240364D02*
D03*
Y230364D02*
D03*
Y220364D02*
D03*
Y210364D02*
D03*
Y200364D02*
D03*
D30*
X460562Y190364D02*
D03*
Y300364D02*
D03*
Y290364D02*
D03*
Y280364D02*
D03*
Y270364D02*
D03*
Y260364D02*
D03*
Y250364D02*
D03*
Y240364D02*
D03*
Y230364D02*
D03*
Y220364D02*
D03*
Y210364D02*
D03*
Y200364D02*
D03*
D31*
X524275Y138726D02*
D03*
Y147225D02*
D03*
X532775D02*
D03*
Y138726D02*
D03*
D32*
X380382Y231864D02*
D03*
X398881D02*
D03*
D33*
X68732Y270869D02*
D03*
Y292869D02*
D03*
Y314869D02*
D03*
Y303869D02*
D03*
Y281869D02*
D03*
Y259869D02*
D03*
Y248869D02*
D03*
Y237869D02*
D03*
D34*
X291845Y149754D02*
D03*
Y131254D02*
D03*
D35*
X527342Y313364D02*
D03*
Y177364D02*
D03*
D36*
X435312Y313364D02*
D03*
Y177364D02*
D03*
X19213Y163926D02*
D03*
Y107927D02*
D03*
D37*
X196733Y221369D02*
D03*
D38*
X447562Y61110D02*
D03*
X417562D02*
D03*
X427562D02*
D03*
X437562D02*
D03*
D39*
X460562Y22110D02*
D03*
X404562D02*
D03*
D40*
X73733Y202369D02*
D03*
D41*
X195732Y300869D02*
D03*
Y251869D02*
D03*
D42*
X73733Y335869D02*
D03*
D43*
X265101Y41599D02*
D03*
Y59099D02*
D03*
D44*
X58214Y140926D02*
D03*
Y120926D02*
D03*
Y150927D02*
D03*
Y130926D02*
D03*
D45*
X487340Y144756D02*
D03*
X506340D02*
D03*
X487262Y126859D02*
D03*
X506263D02*
D03*
X487362Y108747D02*
D03*
X506362D02*
D03*
D46*
X111490Y185884D02*
D03*
X96990D02*
D03*
D47*
X61078Y185386D02*
D03*
X78578D02*
D03*
M02*
