G04*
G04 #@! TF.GenerationSoftware,Altium Limited,Altium Designer,24.7.2 (38)*
G04*
G04 Layer_Physical_Order=1*
G04 Layer_Color=255*
%FSLAX44Y44*%
%MOMM*%
G71*
G04*
G04 #@! TF.SameCoordinates,27BF797F-714E-4A77-BE02-AF934A81444A*
G04*
G04*
G04 #@! TF.FilePolarity,Positive*
G04*
G01*
G75*
%ADD11C,0.5000*%
%ADD12C,0.2000*%
%ADD16C,0.2540*%
%ADD21R,0.6000X1.5000*%
%ADD22R,1.2000X1.8000*%
G04:AMPARAMS|DCode=23|XSize=0.2125mm|YSize=1.1883mm|CornerRadius=0.1062mm|HoleSize=0mm|Usage=FLASHONLY|Rotation=90.000|XOffset=0mm|YOffset=0mm|HoleType=Round|Shape=RoundedRectangle|*
%AMROUNDEDRECTD23*
21,1,0.2125,0.9758,0,0,90.0*
21,1,0.0000,1.1883,0,0,90.0*
1,1,0.2125,0.4879,0.0000*
1,1,0.2125,0.4879,0.0000*
1,1,0.2125,-0.4879,0.0000*
1,1,0.2125,-0.4879,0.0000*
%
%ADD23ROUNDEDRECTD23*%
G04:AMPARAMS|DCode=24|XSize=1.1883mm|YSize=0.2125mm|CornerRadius=0.1062mm|HoleSize=0mm|Usage=FLASHONLY|Rotation=90.000|XOffset=0mm|YOffset=0mm|HoleType=Round|Shape=RoundedRectangle|*
%AMROUNDEDRECTD24*
21,1,1.1883,0.0000,0,0,90.0*
21,1,0.9758,0.2125,0,0,90.0*
1,1,0.2125,0.0000,0.4879*
1,1,0.2125,0.0000,-0.4879*
1,1,0.2125,0.0000,-0.4879*
1,1,0.2125,0.0000,0.4879*
%
%ADD24ROUNDEDRECTD24*%
%ADD25R,0.2125X1.1883*%
%ADD26R,0.6000X1.5500*%
%ADD27R,0.8000X0.8000*%
%ADD28R,0.9578X1.2621*%
%ADD30R,1.5500X0.6000*%
%ADD31R,0.4500X0.4500*%
%ADD32R,0.9500X1.4000*%
%ADD33R,2.0000X0.7000*%
%ADD34R,1.4000X0.9500*%
%ADD36R,1.8000X1.2000*%
%ADD37R,1.2000X1.2000*%
%ADD40R,2.6000X1.5000*%
%ADD41R,1.4000X2.7000*%
%ADD42R,2.6000X1.0000*%
%ADD44R,1.5000X0.6000*%
G04:AMPARAMS|DCode=48|XSize=1.3mm|YSize=3.2mm|CornerRadius=0.65mm|HoleSize=0mm|Usage=FLASHONLY|Rotation=180.000|XOffset=0mm|YOffset=0mm|HoleType=Round|Shape=RoundedRectangle|*
%AMROUNDEDRECTD48*
21,1,1.3000,1.9000,0,0,180.0*
21,1,0.0000,3.2000,0,0,180.0*
1,1,1.3000,0.0000,0.9500*
1,1,1.3000,0.0000,0.9500*
1,1,1.3000,0.0000,-0.9500*
1,1,1.3000,0.0000,-0.9500*
%
%ADD48ROUNDEDRECTD48*%
G04:AMPARAMS|DCode=49|XSize=1.3mm|YSize=2.5mm|CornerRadius=0.65mm|HoleSize=0mm|Usage=FLASHONLY|Rotation=180.000|XOffset=0mm|YOffset=0mm|HoleType=Round|Shape=RoundedRectangle|*
%AMROUNDEDRECTD49*
21,1,1.3000,1.2000,0,0,180.0*
21,1,0.0000,2.5000,0,0,180.0*
1,1,1.3000,0.0000,0.6000*
1,1,1.3000,0.0000,0.6000*
1,1,1.3000,0.0000,-0.6000*
1,1,1.3000,0.0000,-0.6000*
%
%ADD49ROUNDEDRECTD49*%
%ADD55C,0.7000*%
G04:AMPARAMS|DCode=56|XSize=0.7mm|YSize=1.6mm|CornerRadius=0.35mm|HoleSize=0mm|Usage=FLASHONLY|Rotation=180.000|XOffset=0mm|YOffset=0mm|HoleType=Round|Shape=RoundedRectangle|*
%AMROUNDEDRECTD56*
21,1,0.7000,0.9000,0,0,180.0*
21,1,0.0000,1.6000,0,0,180.0*
1,1,0.7000,0.0000,0.4500*
1,1,0.7000,0.0000,0.4500*
1,1,0.7000,0.0000,-0.4500*
1,1,0.7000,0.0000,-0.4500*
%
%ADD56ROUNDEDRECTD56*%
%ADD57R,0.7000X0.7000*%
%ADD63R,1.4500X1.1500*%
%ADD64R,1.4000X1.5500*%
%ADD65R,0.6000X0.8000*%
%ADD66R,1.1500X1.4500*%
%ADD67C,0.2125*%
%ADD68C,1.5000*%
%ADD69R,1.5000X1.5000*%
%ADD70R,1.5000X1.5000*%
%ADD71C,0.4500*%
%ADD72C,0.6000*%
D11*
X85344Y355527D02*
X95697D01*
X26328Y239414D02*
X46104D01*
X26328D02*
Y239773D01*
Y325540D02*
X56315Y355527D01*
X85344D01*
X26328Y289773D02*
Y325540D01*
X95697Y355527D02*
X95770Y355600D01*
X87470Y225298D02*
X104742Y208026D01*
X46104Y239414D02*
X60220Y225298D01*
X87470D01*
D12*
X55482Y185420D02*
X61078D01*
X55482Y185386D02*
Y185420D01*
X209785Y89408D02*
X212598D01*
X249270Y41498D02*
X265101D01*
X324931Y182372D02*
X326644D01*
X348234Y155702D02*
Y195766D01*
X324931Y289052D02*
X396494D01*
X455930Y257302D02*
Y260364D01*
X75184Y234253D02*
Y237869D01*
X380382Y210228D02*
Y231864D01*
X347980Y240765D02*
Y242316D01*
X265280Y55735D02*
Y79710D01*
X104394Y240538D02*
X129032Y265176D01*
X104140Y240538D02*
Y254203D01*
X460562Y240364D02*
X488342D01*
X455930Y260364D02*
X460562D01*
X454927Y256299D02*
X455930Y257302D01*
X437655Y256299D02*
X454927D01*
X413512Y232156D02*
X437655Y256299D01*
X413512Y216408D02*
Y232156D01*
X353822Y215766D02*
X354464Y216408D01*
X343344Y215766D02*
X353822D01*
X446706Y250364D02*
X460562D01*
X432562Y236220D02*
X446706Y250364D01*
X351028Y220766D02*
X366482Y236220D01*
X343344Y220766D02*
X351028D01*
X444834Y240364D02*
X460562D01*
X440944Y236474D02*
X444834Y240364D01*
X356362Y233131D02*
Y236982D01*
X348996Y225765D02*
X356362Y233131D01*
X343344Y225765D02*
X348996D01*
X460562Y250364D02*
X488342D01*
X460562Y260364D02*
X488342D01*
X313377Y81331D02*
Y82042D01*
X85417Y355527D02*
X86170Y354774D01*
X85344Y355600D02*
X85417Y355527D01*
X284565Y75852D02*
X284814Y75603D01*
X281638Y75852D02*
X284565D01*
X265280Y92210D02*
X281638Y75852D01*
X290541Y81331D02*
X313377D01*
X284814Y75603D02*
X290541Y81331D01*
X57482Y335869D02*
X73733D01*
Y202369D02*
X89983D01*
X196733Y221369D02*
Y230619D01*
X195732Y284119D02*
Y300869D01*
X55482Y292869D02*
X68732D01*
X382417Y101081D02*
Y113331D01*
X309422Y129756D02*
X314960D01*
X306417Y126751D02*
X309422Y129756D01*
X306417Y113331D02*
Y126751D01*
X232785Y97774D02*
Y110024D01*
X156785D02*
Y122275D01*
X219785Y73774D02*
Y84774D01*
X382045Y10192D02*
Y22442D01*
X306324Y43513D02*
Y56139D01*
X306045Y43234D02*
X306324Y43513D01*
X306045Y22442D02*
Y43234D01*
X232785Y6210D02*
Y18460D01*
X156785D02*
Y30710D01*
X219785Y57460D02*
Y68211D01*
X460562Y22110D02*
Y34360D01*
X404562Y22110D02*
Y34360D01*
X515092Y313364D02*
X527342D01*
X515092Y177364D02*
X527342D01*
X477592Y300364D02*
X488342D01*
Y290364D02*
X499092D01*
X396175Y250396D02*
Y259957D01*
X398881Y221613D02*
Y231864D01*
X435312Y313364D02*
X447563D01*
X423062Y177364D02*
X435312D01*
X460562Y300364D02*
X471562D01*
X449562Y290364D02*
X460562D01*
X19213Y163926D02*
X31464D01*
X6963Y107927D02*
X19213D01*
X58214Y140926D02*
X68963D01*
X58214Y120926D02*
X68963D01*
X334152Y265766D02*
X343344D01*
Y200766D02*
X352536D01*
X254932Y279986D02*
Y289178D01*
X304931Y168162D02*
Y177354D01*
X406015Y389700D02*
Y401950D01*
X350015D02*
Y414201D01*
X199785Y50038D02*
Y57460D01*
X381631Y265430D02*
Y268389D01*
Y250396D02*
Y265430D01*
X319417Y83331D02*
Y86827D01*
X313377Y82042D02*
X317246D01*
X104140Y254203D02*
X104394Y254458D01*
X239322Y210765D02*
X241808Y208280D01*
X231519Y210765D02*
X239322D01*
X250952Y129032D02*
X251302Y129382D01*
X243868Y138147D02*
X251302Y129382D01*
X243840Y138176D02*
X243868Y138147D01*
X243840Y138176D02*
Y185502D01*
X246634Y188296D01*
Y195606D01*
X236474Y205766D02*
X246634Y195606D01*
X231519Y205766D02*
X236474D01*
X189785Y84774D02*
Y114855D01*
X232803Y157873D01*
Y186067D01*
X241046Y194310D01*
X270256Y275082D02*
X298450D01*
X304931Y281563D01*
Y289178D01*
X189785Y49022D02*
Y57460D01*
X188515Y47752D02*
X189785Y49022D01*
X165608Y47752D02*
X188515D01*
X164592Y48768D02*
X165608Y47752D01*
X164592Y48768D02*
Y93992D01*
X167786Y97186D01*
Y131718D01*
X221488Y185420D01*
X331978Y226822D02*
Y230886D01*
X336858Y235766D01*
X343344D01*
X209785Y84774D02*
Y89408D01*
X212598D02*
Y117602D01*
X217424Y122428D01*
X251968D01*
X257048Y127508D01*
Y129794D01*
X246869Y139973D02*
X257048Y129794D01*
X246869Y139973D02*
Y184260D01*
X249936Y187327D01*
Y216408D01*
X245578Y220766D02*
X249936Y216408D01*
X231519Y220766D02*
X245578D01*
X193435Y43688D02*
X199785Y50038D01*
X163830Y43688D02*
X193435D01*
X161290Y46228D02*
X163830Y43688D01*
X161290Y46228D02*
Y96520D01*
X164785Y100015D01*
Y149625D01*
X211074Y195913D01*
X299212Y298450D02*
X299931Y297731D01*
Y289178D02*
Y297731D01*
X179785Y84774D02*
Y135216D01*
X225806Y181237D01*
Y191635D01*
X224919Y192522D02*
X225806Y191635D01*
X219456Y192522D02*
X224919D01*
X216916Y195062D02*
X219456Y192522D01*
X216916Y195062D02*
Y211373D01*
X221996Y216453D01*
Y222758D01*
X225003Y225765D01*
X231519D01*
X314931Y177354D02*
Y190725D01*
X318401Y194195D01*
X500084Y200364D02*
X501396Y201676D01*
X488342Y200364D02*
X500084D01*
X474472Y270364D02*
X488342D01*
X343344Y210765D02*
X366721D01*
X488342Y210364D02*
X498803D01*
X505714Y203454D01*
Y198779D02*
Y203454D01*
X503022Y196088D02*
X505714Y198779D01*
X500380Y196088D02*
X503022D01*
X322725Y186944D02*
X324612D01*
X319931Y184150D02*
X322725Y186944D01*
X319931Y177354D02*
Y184150D01*
X488342Y220364D02*
X497840D01*
X498856Y219348D01*
Y216662D02*
Y219348D01*
X325374Y194750D02*
Y198628D01*
Y194750D02*
X328930Y191194D01*
Y184658D02*
Y191194D01*
X326644Y182372D02*
X328930Y184658D01*
X324931Y177354D02*
Y182372D01*
X343344Y195766D02*
X348234D01*
Y155702D02*
X363406Y140529D01*
X457013D01*
X502412Y185928D01*
X512826D01*
X515366Y188468D01*
Y212838D01*
X497840Y230364D02*
X515366Y212838D01*
X488342Y230364D02*
X497840D01*
X409737Y200364D02*
X460562D01*
X405384Y204718D02*
X409737Y200364D01*
X405384Y204718D02*
Y222141D01*
X405638Y222395D01*
Y241808D01*
X403098Y244348D02*
X405638Y241808D01*
X403098Y244348D02*
Y282448D01*
X396494Y289052D02*
X403098Y282448D01*
X324931Y289052D02*
Y289178D01*
X446132Y270364D02*
X460562D01*
X231519Y235766D02*
X240792D01*
X448512Y280364D02*
X460562D01*
X441452Y273304D02*
X448512Y280364D01*
X441452Y265684D02*
Y273304D01*
Y265684D02*
X443230Y263906D01*
X231519Y230765D02*
X274066D01*
X410733Y210364D02*
X460562D01*
X408499Y212598D02*
X410733Y210364D01*
X408499Y212598D02*
Y218761D01*
X409194Y219456D01*
Y244094D01*
X413258Y248158D01*
Y290576D01*
X408432Y295402D02*
X413258Y290576D01*
X366776Y295402D02*
X408432D01*
X363982Y298196D02*
X366776Y295402D01*
X322217Y298196D02*
X363982D01*
X319931Y295910D02*
X322217Y298196D01*
X319931Y289178D02*
Y295910D01*
X451974Y220364D02*
X460562D01*
X449580Y222758D02*
X451974Y220364D01*
X449580Y222758D02*
Y235712D01*
X317246Y279908D02*
X360426D01*
X314931Y282223D02*
X317246Y279908D01*
X314931Y282223D02*
Y289178D01*
X309932D02*
Y302514D01*
X333046Y325628D01*
X407162D01*
X460562Y230364D02*
X474472D01*
X273812Y124460D02*
Y160274D01*
X284932Y171394D01*
Y177354D01*
X294931Y163105D02*
Y177354D01*
X293878Y162052D02*
X294931Y163105D01*
X281940Y162052D02*
X293878D01*
X279400Y159512D02*
X281940Y162052D01*
X279400Y106680D02*
Y159512D01*
Y106680D02*
X299212Y86868D01*
X279931Y177354D02*
Y236982D01*
X274851Y242062D02*
X279931Y236982D01*
X241808Y242062D02*
X274851D01*
X239522Y244348D02*
X241808Y242062D01*
X239522Y244348D02*
Y273558D01*
X237998Y275082D02*
X239522Y273558D01*
X193040Y275082D02*
X237998D01*
X186690Y281432D02*
X193040Y275082D01*
X186690Y281432D02*
Y375412D01*
X195580Y384302D01*
X357935D01*
X363015Y379222D01*
Y362950D02*
Y379222D01*
X221810Y250766D02*
X231519D01*
X213360Y242316D02*
X221810Y250766D01*
X213360Y217424D02*
Y242316D01*
X209042Y213106D02*
X213360Y217424D01*
X188976Y213106D02*
X209042D01*
X120213Y281869D02*
X188976Y213106D01*
X68732Y281869D02*
X120213D01*
X68732Y259869D02*
X87376D01*
X99314Y247931D01*
Y238523D02*
Y247931D01*
Y238523D02*
X101600Y236237D01*
X107253D01*
X108506Y237490D01*
X129916D01*
X156464Y210942D01*
Y206248D02*
Y210942D01*
Y206248D02*
X158750Y203962D01*
X205232D01*
X216916Y215646D01*
Y241620D01*
X221062Y245766D01*
X231519D01*
X289932Y289178D02*
Y295538D01*
X287020Y298450D02*
X289932Y295538D01*
X68732Y314869D02*
X135473D01*
X68732Y237869D02*
X75184D01*
Y234253D02*
X76265Y233172D01*
X110188D01*
X111281Y234265D01*
X125653D01*
X127762Y232156D01*
X216154Y263398D02*
Y265430D01*
Y263398D02*
X218786Y260765D01*
X231519D01*
X55626Y248869D02*
X68732D01*
X211836Y255766D02*
X231519D01*
X189736Y270766D02*
X231519D01*
X182880Y277622D02*
X189736Y270766D01*
X182880Y277622D02*
Y381254D01*
X189230Y387604D01*
X368697D01*
X373015Y383286D01*
Y362950D02*
Y383286D01*
X259931Y289177D02*
Y297942D01*
X255073Y302800D02*
X259931Y297942D01*
X233680Y302800D02*
X255073D01*
X229616Y306864D02*
X233680Y302800D01*
X229616Y306864D02*
Y321310D01*
X210058Y340868D02*
X229616Y321310D01*
X274320Y339852D02*
X274574Y339598D01*
X376665D01*
X383015Y345948D01*
Y362950D01*
X416191Y126859D02*
X487262D01*
X405636Y137414D02*
X416191Y126859D01*
X346087Y137414D02*
X405636D01*
X331978Y151523D02*
X346087Y137414D01*
X331978Y151523D02*
Y194079D01*
X329692Y196365D02*
X331978Y194079D01*
X329692Y196365D02*
Y222317D01*
X327660Y224349D02*
X329692Y222317D01*
X327660Y224349D02*
Y237236D01*
X336190Y245766D01*
X343344D01*
X343343Y240765D02*
X347980D01*
Y242316D02*
X355346D01*
X355854Y241808D01*
X386080D01*
X387350Y240538D01*
Y182118D02*
Y240538D01*
X503936Y162560D02*
Y166624D01*
X496824Y155448D02*
X503936Y162560D01*
X496824Y113573D02*
Y155448D01*
X491998Y108747D02*
X496824Y113573D01*
X487362Y108747D02*
X491998D01*
X249270Y30734D02*
X260855Y19149D01*
X231902Y30734D02*
X249270D01*
X222785Y39850D02*
X231902Y30734D01*
X222785Y39850D02*
Y45747D01*
X257556Y80518D01*
Y116514D01*
X260350Y119308D01*
Y147574D01*
X254932Y152992D02*
X260350Y147574D01*
X254932Y152992D02*
Y177354D01*
X487340Y144756D02*
Y164506D01*
X492760Y169926D01*
X329438Y245110D02*
X335094Y250766D01*
X343344D01*
X478588Y280364D02*
X488342D01*
X474980Y283972D02*
X478588Y280364D01*
X284932Y279654D02*
Y289178D01*
X299931Y177354D02*
Y193834D01*
X269931Y170942D02*
Y177354D01*
X261803Y162814D02*
X269931Y170942D01*
X259588Y162814D02*
X261803D01*
X294932Y289177D02*
Y303276D01*
X145373Y303869D02*
X174565Y333061D01*
X68732Y303869D02*
X145373D01*
X288544Y166370D02*
X289932Y167758D01*
Y177354D01*
X274932D02*
Y198882D01*
X254000Y270766D02*
X343344D01*
X249931Y274834D02*
X254000Y270766D01*
X249931Y274834D02*
Y289178D01*
X343344Y270766D02*
X376295D01*
X381631Y265430D01*
X343343Y205766D02*
X375920D01*
X380382Y210228D01*
X61078Y185386D02*
Y185420D01*
X291845Y149754D02*
X303983D01*
X309932Y155702D01*
Y177354D01*
X381631Y268389D02*
X386433Y273191D01*
X317417Y81331D02*
X319417Y83331D01*
Y62160D02*
Y83331D01*
X261713Y310870D02*
X263755D01*
X253506D02*
X261713D01*
X279931Y289178D02*
Y298369D01*
X104394Y254458D02*
X121929Y271992D01*
X104394Y243431D02*
Y254458D01*
X319005Y61748D02*
X319045Y61709D01*
Y61442D02*
Y61709D01*
X319005Y61748D02*
X319417Y62160D01*
X508120Y190364D02*
X510159Y192403D01*
X510835D01*
X460562Y190364D02*
X488342D01*
X508120D01*
X524275Y134534D02*
Y138726D01*
X519244Y129504D02*
X524275Y134534D01*
X380382Y231864D02*
X380625D01*
X291805Y149794D02*
X291845Y149754D01*
X169785Y57460D02*
Y84774D01*
X506362Y108747D02*
X522059D01*
X339417Y61814D02*
Y88082D01*
X339045Y61442D02*
X339417Y61814D01*
X329045Y61442D02*
X329417Y61814D01*
Y88082D01*
X337535Y114008D02*
X349417Y102126D01*
Y88082D02*
Y102126D01*
X359417Y104829D02*
X368734Y114146D01*
X359417Y88082D02*
Y104829D01*
X359045Y33554D02*
X365297Y27302D01*
X359045Y33554D02*
Y61442D01*
X265280Y55735D02*
X265355Y55659D01*
X209785Y57460D02*
Y84774D01*
X199785Y57460D02*
Y84774D01*
X179785Y57460D02*
Y84774D01*
X532775Y119463D02*
Y138726D01*
X522059Y108747D02*
X532775Y119463D01*
X528525Y142976D02*
X532775Y147225D01*
X517682Y139462D02*
X521196Y142976D01*
X517682Y138520D02*
Y139462D01*
X514169Y135006D02*
X517682Y138520D01*
X513659Y135006D02*
X514169D01*
X506263Y127609D02*
X513659Y135006D01*
X506263Y126859D02*
Y127609D01*
X518025Y144756D02*
X519244Y145976D01*
X523024D01*
X506340Y144756D02*
X518025D01*
X521196Y142976D02*
X528525D01*
X523024Y145976D02*
X524275Y147225D01*
X431441Y50489D02*
X437562Y56610D01*
X396946Y50489D02*
X431441D01*
X437562Y56610D02*
Y61110D01*
X417562Y66785D02*
X429039Y78262D01*
X417562Y61110D02*
Y66785D01*
X432562Y68461D02*
Y69438D01*
X427562Y63461D02*
X432562Y68461D01*
Y69438D02*
X433734Y70610D01*
X434711D01*
X438960Y74859D01*
X427562Y61110D02*
Y63461D01*
X111490Y185884D02*
Y201279D01*
X104742Y208026D02*
X111490Y201279D01*
X78578Y185386D02*
X96492D01*
X96990Y185884D01*
D16*
X260113Y374396D02*
X266482Y368026D01*
X237744Y374396D02*
X260113D01*
X233426Y378714D02*
X237744Y374396D01*
X221488Y378714D02*
X233426D01*
X216916Y374142D02*
X221488Y378714D01*
X216916Y339598D02*
Y374142D01*
Y339598D02*
X235966Y320548D01*
Y310134D02*
Y320548D01*
Y310134D02*
X239776Y306324D01*
X260613D01*
X264931Y302006D01*
X266482Y354526D02*
X269931Y351077D01*
X274983Y354526D02*
Y359526D01*
X266482Y368026D02*
X274983Y359526D01*
D21*
X363015Y362950D02*
D03*
X373015D02*
D03*
X383015D02*
D03*
X393015D02*
D03*
X319045Y61442D02*
D03*
X169785Y57460D02*
D03*
X447562Y61110D02*
D03*
X369045Y61442D02*
D03*
X219785Y57460D02*
D03*
X417562Y61110D02*
D03*
X427562D02*
D03*
X437562D02*
D03*
X209785Y57460D02*
D03*
X199785D02*
D03*
X189785D02*
D03*
X179785D02*
D03*
X359045Y61442D02*
D03*
X349045D02*
D03*
X339045D02*
D03*
X329045D02*
D03*
D22*
X350015Y401950D02*
D03*
X406015D02*
D03*
X460562Y22110D02*
D03*
X382417Y113331D02*
D03*
X404562Y22110D02*
D03*
X382045Y22442D02*
D03*
X306417Y113331D02*
D03*
X306045Y22442D02*
D03*
X232785Y110024D02*
D03*
Y18460D02*
D03*
X156785Y110024D02*
D03*
Y18460D02*
D03*
D23*
X231519Y195766D02*
D03*
Y200766D02*
D03*
X231519Y205766D02*
D03*
X231519Y210765D02*
D03*
Y215766D02*
D03*
Y220766D02*
D03*
Y225765D02*
D03*
Y230765D02*
D03*
Y235766D02*
D03*
X231519Y240765D02*
D03*
X231519Y245766D02*
D03*
Y250766D02*
D03*
Y255766D02*
D03*
Y260765D02*
D03*
Y265766D02*
D03*
Y270766D02*
D03*
X343344D02*
D03*
Y265766D02*
D03*
Y260765D02*
D03*
Y255766D02*
D03*
Y250766D02*
D03*
Y245766D02*
D03*
X343343Y240765D02*
D03*
X343344Y235766D02*
D03*
Y230765D02*
D03*
Y225765D02*
D03*
Y220766D02*
D03*
Y215766D02*
D03*
Y210765D02*
D03*
X343343Y205766D02*
D03*
X343344Y200766D02*
D03*
Y195766D02*
D03*
D24*
X249931Y289178D02*
D03*
X254932D02*
D03*
X259931Y289177D02*
D03*
X264931Y289178D02*
D03*
X269931D02*
D03*
X274932D02*
D03*
X279931D02*
D03*
X284932D02*
D03*
X289932D02*
D03*
X294932Y289177D02*
D03*
X299931Y289178D02*
D03*
X304931D02*
D03*
X309932D02*
D03*
X314931D02*
D03*
X319931D02*
D03*
X324931D02*
D03*
Y177354D02*
D03*
X319931D02*
D03*
X314931D02*
D03*
X309932D02*
D03*
X304931D02*
D03*
X299931D02*
D03*
X294931D02*
D03*
X289932D02*
D03*
X284932D02*
D03*
X279931D02*
D03*
X274932D02*
D03*
X269931D02*
D03*
X264931D02*
D03*
X259931D02*
D03*
X254932D02*
D03*
D25*
X249931D02*
D03*
D26*
X319417Y88082D02*
D03*
X169785Y84774D02*
D03*
X369417Y88082D02*
D03*
X219785Y84774D02*
D03*
X209785D02*
D03*
X199785D02*
D03*
X189785D02*
D03*
X179785D02*
D03*
X359417Y88082D02*
D03*
X349417D02*
D03*
X339417D02*
D03*
X329417D02*
D03*
D27*
X264263Y92282D02*
D03*
Y77282D02*
D03*
D28*
X381631Y250396D02*
D03*
X396175D02*
D03*
D30*
X460562Y190364D02*
D03*
Y300364D02*
D03*
Y290364D02*
D03*
Y280364D02*
D03*
Y270364D02*
D03*
Y260364D02*
D03*
Y250364D02*
D03*
Y240364D02*
D03*
Y230364D02*
D03*
Y220364D02*
D03*
Y210364D02*
D03*
Y200364D02*
D03*
D31*
X524275Y138726D02*
D03*
Y147225D02*
D03*
X532775D02*
D03*
Y138726D02*
D03*
D32*
X380382Y231864D02*
D03*
X398881D02*
D03*
D33*
X68732Y270869D02*
D03*
Y292869D02*
D03*
Y314869D02*
D03*
Y303869D02*
D03*
Y281869D02*
D03*
Y259869D02*
D03*
Y248869D02*
D03*
Y237869D02*
D03*
D34*
X291845Y149754D02*
D03*
Y131254D02*
D03*
D36*
X527342Y313364D02*
D03*
X435312D02*
D03*
X527342Y177364D02*
D03*
X435312D02*
D03*
X19213Y163926D02*
D03*
Y107927D02*
D03*
D37*
X196733Y221369D02*
D03*
D40*
X73733Y202369D02*
D03*
D41*
X195732Y300869D02*
D03*
Y251869D02*
D03*
D42*
X73733Y335869D02*
D03*
D44*
X488342Y190364D02*
D03*
Y300364D02*
D03*
Y290364D02*
D03*
X58214Y140926D02*
D03*
Y120926D02*
D03*
Y150927D02*
D03*
Y130926D02*
D03*
X488342Y280364D02*
D03*
Y270364D02*
D03*
Y260364D02*
D03*
Y250364D02*
D03*
Y240364D02*
D03*
Y230364D02*
D03*
Y220364D02*
D03*
Y210364D02*
D03*
Y200364D02*
D03*
D48*
X227533Y359526D02*
D03*
X313933D02*
D03*
D49*
X227533Y402526D02*
D03*
X313933D02*
D03*
D55*
X283483Y354526D02*
D03*
X274983D02*
D03*
X266482D02*
D03*
X257983D02*
D03*
Y368026D02*
D03*
X266482D02*
D03*
X274983D02*
D03*
X283483D02*
D03*
X240982D02*
D03*
Y354526D02*
D03*
X300482Y368026D02*
D03*
X249483D02*
D03*
Y354526D02*
D03*
X291982D02*
D03*
Y368026D02*
D03*
D56*
X227533Y359526D02*
D03*
Y401026D02*
D03*
X313933Y359526D02*
D03*
Y401026D02*
D03*
D57*
X300482Y354526D02*
D03*
D63*
X265101Y41599D02*
D03*
Y59099D02*
D03*
D64*
X487340Y144756D02*
D03*
X506340D02*
D03*
X487262Y126859D02*
D03*
X506263D02*
D03*
X487362Y108747D02*
D03*
X506362D02*
D03*
D65*
X111490Y185884D02*
D03*
X96990D02*
D03*
D66*
X61078Y185386D02*
D03*
X78578D02*
D03*
D67*
X264931Y289178D02*
Y302006D01*
X269931Y289178D02*
Y351077D01*
D68*
X260855Y19149D02*
D03*
X26328Y289773D02*
D03*
Y264773D02*
D03*
X19812Y77978D02*
D03*
X159080Y397710D02*
D03*
D69*
X26328Y239773D02*
D03*
D70*
X139080Y397710D02*
D03*
D71*
X413512Y216408D02*
D03*
X354464D02*
D03*
X432562Y236220D02*
D03*
X366482D02*
D03*
X440944Y236474D02*
D03*
X356362Y236982D02*
D03*
X249270Y41498D02*
D03*
X95770Y355600D02*
D03*
X160447Y162401D02*
D03*
X161791Y218755D02*
D03*
X57482Y335869D02*
D03*
X89983Y202369D02*
D03*
X196733Y230619D02*
D03*
X195732Y284119D02*
D03*
X55482Y292869D02*
D03*
X382417Y101081D02*
D03*
X314960Y129756D02*
D03*
X232785Y97774D02*
D03*
X156785Y122275D02*
D03*
X219785Y73774D02*
D03*
X382045Y10192D02*
D03*
X306324Y56139D02*
D03*
X425515Y119984D02*
D03*
X172845Y197864D02*
D03*
X196845Y133364D02*
D03*
X232785Y6210D02*
D03*
X156785Y30710D02*
D03*
X219785Y68211D02*
D03*
X460562Y34360D02*
D03*
X404562D02*
D03*
X515092Y313364D02*
D03*
Y177364D02*
D03*
X477592Y300364D02*
D03*
X499092Y290364D02*
D03*
X112395Y132260D02*
D03*
X140457Y94748D02*
D03*
X83332Y240030D02*
D03*
X120650Y243000D02*
D03*
X119286Y217587D02*
D03*
X429184Y326405D02*
D03*
X366440Y330444D02*
D03*
X451219Y319786D02*
D03*
X119201Y294825D02*
D03*
X207207Y251333D02*
D03*
X396175Y259957D02*
D03*
X168588Y248413D02*
D03*
X398881Y221613D02*
D03*
X343003Y333760D02*
D03*
X243228Y329370D02*
D03*
X302096Y131254D02*
D03*
X299276Y328299D02*
D03*
X541843Y208720D02*
D03*
X538725Y212339D02*
D03*
X442828Y39553D02*
D03*
X275253Y90147D02*
D03*
X186301Y28516D02*
D03*
X188401Y71862D02*
D03*
X447563Y313364D02*
D03*
X423062Y177364D02*
D03*
X471562Y300364D02*
D03*
X449562Y290364D02*
D03*
X31464Y163926D02*
D03*
X6963Y107927D02*
D03*
X68963Y140926D02*
D03*
Y120926D02*
D03*
X87642Y370873D02*
D03*
X58481Y201200D02*
D03*
X146307Y37937D02*
D03*
X77434Y322468D02*
D03*
X96949Y322419D02*
D03*
X408541Y271344D02*
D03*
X329728Y370128D02*
D03*
X242978Y379578D02*
D03*
X368747Y104076D02*
D03*
X295969Y42770D02*
D03*
X354695Y27348D02*
D03*
X402856Y113158D02*
D03*
X131021Y105779D02*
D03*
X111894Y286303D02*
D03*
X130380Y257302D02*
D03*
X334152Y265766D02*
D03*
X352536Y200766D02*
D03*
X254932Y279986D02*
D03*
X304931Y168162D02*
D03*
X406015Y389700D02*
D03*
X350015Y414201D02*
D03*
X241808Y208280D02*
D03*
X250952Y129032D02*
D03*
X241046Y194310D02*
D03*
X270256Y275082D02*
D03*
X221488Y185420D02*
D03*
X331978Y226822D02*
D03*
X211074Y195913D02*
D03*
X299212Y298450D02*
D03*
X318401Y194195D02*
D03*
X501396Y201676D02*
D03*
X474472Y270364D02*
D03*
X366721Y210765D02*
D03*
X500380Y196088D02*
D03*
X324612Y186944D02*
D03*
X498856Y216662D02*
D03*
X325374Y198628D02*
D03*
X446132Y270364D02*
D03*
X240792Y235766D02*
D03*
X443230Y263906D02*
D03*
X274066Y230765D02*
D03*
X449580Y235712D02*
D03*
X360426Y279908D02*
D03*
X407162Y325628D02*
D03*
X474472Y230364D02*
D03*
X273812Y124460D02*
D03*
X299212Y86868D02*
D03*
X287020Y298450D02*
D03*
X135473Y314869D02*
D03*
X127762Y232156D02*
D03*
X216154Y265430D02*
D03*
X55626Y248869D02*
D03*
X211836Y255766D02*
D03*
X210058Y340868D02*
D03*
X274320Y339852D02*
D03*
X387350Y182118D02*
D03*
X503936Y166624D02*
D03*
X492760Y169926D02*
D03*
X329438Y245110D02*
D03*
X474980Y283972D02*
D03*
X284932Y279654D02*
D03*
X299931Y193834D02*
D03*
X259588Y162814D02*
D03*
X294932Y303276D02*
D03*
X174565Y333061D02*
D03*
X288544Y166370D02*
D03*
X274932Y198882D02*
D03*
X129032Y265176D02*
D03*
X104394Y240538D02*
D03*
X104140D02*
D03*
X280776Y328299D02*
D03*
X279931Y298369D02*
D03*
X55482Y185386D02*
D03*
X68732Y270869D02*
D03*
X104394Y243431D02*
D03*
X207206Y265876D02*
D03*
X168588Y266913D02*
D03*
X243228Y310870D02*
D03*
X419623Y353505D02*
D03*
Y364632D02*
D03*
X375795Y71210D02*
D03*
X284814Y75603D02*
D03*
X150018Y80204D02*
D03*
X386433Y273191D02*
D03*
X381631Y250396D02*
D03*
X510835Y192403D02*
D03*
X519244Y129504D02*
D03*
X438215Y119146D02*
D03*
X380625Y231864D02*
D03*
X424328Y29302D02*
D03*
X263755Y310870D02*
D03*
X291845Y149754D02*
D03*
X337535Y114008D02*
D03*
X368734Y114146D02*
D03*
X365297Y27302D02*
D03*
X349045Y61442D02*
D03*
X121929Y271992D02*
D03*
X396946Y50489D02*
D03*
X429039Y78262D02*
D03*
X438960Y74859D02*
D03*
X104742Y208026D02*
D03*
D72*
X83334Y138936D02*
D03*
X83119Y149794D02*
D03*
X169785Y57460D02*
D03*
M02*
